<svg width="1189" height="1753" viewBox="0 0 1189 1753" fill="none" xmlns="http://www.w3.org/2000/svg">
<path d="M-191.869 1727.12C-189.86 1774.33 -184.603 1808.08 -174.822 1836.58C-135.611 1945.07 6.07166 2021.41 186.133 2031.04C276.173 2035.09 359.744 2018.49 427.803 1983.03C487.09 1951.57 543.334 1900.2 604.803 1821.36C646.756 1766.9 682.786 1704.03 718.192 1623.5C753.739 1541.84 769.43 1477.12 769.066 1413.65C769.024 1410.77 768.943 1407.89 768.813 1404.85C765.743 1332.72 738.005 1219.13 694.611 1100.99C650.508 980.92 598.218 879.096 554.736 828.612C475.428 690.403 404.475 711.277 297.073 742.863C249.432 756.878 195.434 772.754 129.634 778.988C82.1493 783.474 39.7165 786.748 2.2752 789.636C-177.52 803.497 -259.58 809.817 -346.269 909.636C-366.343 933.891 -375.692 965.724 -374.052 1004.23C-372.76 1034.59 -364.641 1069.35 -349.917 1107.57C-336.432 1142.23 -319.919 1177.91 -302.433 1215.69C-279.435 1265.38 -255.654 1316.75 -235.286 1373.04C-211.335 1440.03 -197.938 1513.83 -194.328 1598.63C-193.793 1611.22 -193.458 1624.43 -193.33 1637.89C-193.276 1643.93 -193.232 1649.94 -193.187 1655.88C-193.007 1680.84 -192.836 1704.41 -191.869 1727.12ZM769.821 1404.81C769.951 1407.87 770.035 1410.76 770.08 1413.67C770.446 1477.37 754.715 1542.28 719.078 1624.15C683.629 1704.78 647.547 1767.73 605.534 1822.28C543.968 1901.24 487.623 1952.7 428.21 1984.23C360.012 2019.76 276.298 2036.39 186.116 2032.33C5.66917 2022.68 -136.369 1946.04 -175.744 1837.08C-185.582 1808.43 -190.864 1774.53 -192.88 1727.16C-193.849 1704.42 -194.02 1680.83 -194.201 1655.86C-194.242 1649.92 -194.285 1643.92 -194.342 1637.87C-194.471 1624.43 -194.805 1611.24 -195.34 1598.67C-198.943 1514.03 -212.309 1440.39 -236.203 1373.54C-256.55 1317.33 -280.316 1265.99 -303.302 1216.33C-320.799 1178.53 -337.322 1142.83 -350.822 1108.12C-365.61 1069.74 -373.765 1034.8 -375.064 1004.27C-376.72 965.372 -367.267 933.214 -346.965 908.681C-304.812 860.143 -263.254 832.489 -207.991 816.217C-154.335 800.412 -88.6797 795.351 2.18973 788.345C39.6267 785.457 82.0597 782.189 129.538 777.696C195.255 771.477 249.218 755.604 296.825 741.604C352.259 725.301 396.047 712.418 437.127 720.614C481.544 729.468 518.042 762.517 555.479 827.773C598.988 878.261 651.368 980.244 695.53 1100.46C738.972 1218.75 766.744 1332.52 769.821 1404.81Z" fill="white"/>
<path d="M757.895 1405.98C757.851 1404.27 757.79 1402.57 757.715 1400.83C754.783 1331.92 727.788 1222.53 685.493 1108.22C642.46 991.885 591.418 892.873 548.954 843.357C471.643 709.15 402.365 727.869 297.498 756.21C252.151 768.461 200.753 782.348 138.543 787.422C93.2013 791.264 52.5704 793.996 16.7237 796.409C-157.171 808.11 -236.538 813.451 -321.003 908.929C-342.826 934.065 -352.998 967.843 -351.232 1009.34C-350.047 1037.17 -343.474 1068.64 -331.692 1102.87C-318.767 1145.15 -301.268 1189.17 -282.741 1235.77C-265.331 1279.56 -247.329 1324.85 -231.234 1373.26C-198.452 1473.78 -190.377 1571.72 -187.155 1636.65L-186.79 1648.1C-186.344 1662.01 -185.925 1675.15 -185.369 1688.22C-183.003 1743.82 -178.402 1788.92 -163.63 1828.35C-124.114 1932.53 13.2225 2007.28 186.248 2018.76C274.809 2025.24 356.641 2011.37 422.894 1978.65C481.62 1949.3 537.157 1899.97 597.667 1823.4C641.973 1767.6 678.799 1702.64 713.551 1618.98C747.021 1537.49 760.708 1472.02 757.926 1406.7L757.895 1405.98ZM758.729 1400.79C758.804 1402.54 758.865 1404.25 758.903 1405.95L758.937 1406.66C761.727 1472.22 748.006 1537.89 714.446 1619.6C679.647 1703.38 642.769 1768.43 598.392 1824.33C537.782 1901.02 482.14 1950.44 423.281 1979.86C356.896 2012.64 274.921 2026.54 186.217 2020.05C12.82 2008.54 -124.861 1933.5 -164.544 1828.88C-179.386 1789.26 -184.01 1744.01 -186.383 1688.26C-186.939 1675.18 -187.357 1662.04 -187.802 1648.12L-188.169 1636.68C-191.386 1571.86 -199.446 1474.06 -232.163 1373.74C-248.248 1325.37 -266.241 1280.1 -283.641 1236.33C-302.18 1189.7 -319.691 1145.65 -332.624 1103.34C-344.448 1068.99 -351.05 1037.37 -352.241 1009.38C-354.024 967.489 -343.747 933.362 -321.686 907.967C-236.963 812.185 -157.487 806.837 16.647 795.12C52.4915 792.707 93.1159 789.975 138.458 786.135C200.594 781.069 251.955 767.189 297.265 754.945C351.392 740.318 394.144 728.765 434.245 737.398C477.595 746.729 513.203 779.152 549.698 842.511C592.186 892.041 643.32 991.217 686.408 1107.69C728.757 1222.15 755.79 1331.72 758.729 1400.79Z" fill="white"/>
<path d="M-328.344 1014.87C-327.277 1039.93 -322.148 1067.87 -313.104 1097.9C-301.456 1149.51 -282.991 1203.97 -263.44 1261.62C-251.239 1297.6 -238.622 1334.8 -226.854 1373.63C-198.597 1469.41 -187.652 1559.99 -180.671 1635.96L-180.412 1640.41C-176.386 1709.9 -172.908 1769.92 -152.13 1820.98C-112.326 1921.03 20.5729 1994.31 186.457 2007.67C274.723 2016.74 352.588 2005.89 417.904 1975.42C475.214 1948.54 531.605 1899.78 590.308 1826.35C636.306 1769.93 674.992 1700.82 708.574 1615.07C740.049 1533.72 751.927 1465.59 746.352 1398.6L746.29 1397.09C743.491 1331.31 717.235 1225.96 676.062 1115.29C634.102 1002.52 584.32 906.146 542.893 857.491C467.602 727.043 400.023 743.615 297.729 768.701C254.738 779.241 206.012 791.186 147.456 795.14C104.344 798.332 65.5977 800.527 31.4118 802.466C-136.551 811.994 -213.209 816.34 -295.411 907.664C-319.177 933.783 -330.259 969.851 -328.344 1014.87ZM748.329 1414C750.978 1476.25 738.633 1540.33 709.483 1615.66C675.848 1701.54 637.099 1770.77 591.026 1827.28C532.223 1900.84 475.715 1949.69 418.272 1976.63C352.822 2007.17 274.809 2018.04 186.411 2008.96C104.587 2002.37 29.4736 1981.29 -30.806 1948.02C-91.0903 1914.73 -133.355 1871 -153.026 1821.54C-173.902 1770.25 -177.385 1710.11 -181.421 1640.48L-181.677 1636.05C-188.649 1560.19 -199.581 1469.7 -227.798 1374.07C-239.558 1335.27 -252.17 1298.07 -264.371 1262.1C-283.932 1204.41 -302.412 1149.92 -314.061 1098.29C-323.132 1068.17 -328.282 1040.11 -329.354 1014.9C-331.287 969.471 -320.093 933.06 -296.083 906.679C-213.626 815.073 -136.858 810.72 31.342 801.183C65.5255 799.241 104.27 797.047 147.377 793.85C205.865 789.904 254.558 777.97 297.513 767.428C350.313 754.485 392.01 744.26 431.113 753.367C473.391 763.205 508.092 795.06 543.636 856.648C585.087 905.314 634.959 1001.84 676.973 1114.77C718.205 1225.58 744.495 1331.11 747.301 1397.06L747.361 1398.53C747.784 1403.63 748.11 1408.85 748.329 1414Z" fill="white"/>
<path d="M-305.414 1022.04C-304.484 1043.92 -300.687 1067.93 -294.13 1093.41C-284.727 1156.31 -265.218 1223.67 -244.564 1294.99C-237.156 1320.55 -229.499 1346.99 -222.095 1373.95C-196.005 1472.27 -183.191 1566.16 -173.831 1634.72C-168.262 1699.84 -163.01 1761.31 -140.297 1812.7C-120.559 1859.87 -79.5105 1901.9 -21.5808 1934.27C36.467 1966.71 108.576 1987.81 186.953 1995.31C273.654 2006.89 349.77 1998.69 413.185 1970.95C469.867 1946.21 525.486 1899.56 583.223 1828.33C631.525 1770.63 670.988 1699.41 703.866 1610.58C729.392 1540.73 740.107 1480.68 737.593 1421.58C737.162 1411.44 736.324 1401.17 735.096 1391.05C731.914 1327.94 706.213 1227.04 666.333 1121.06C624.991 1011.19 577.917 920.59 537.174 872.476C463.889 745.999 397.989 760.363 298.238 782.108C257.634 790.96 211.609 800.993 156.73 803.849C115.929 806.394 79.1213 808.053 46.6456 809.522C-115.473 816.842 -189.465 820.18 -269.428 907.215C-295.396 934.365 -307.5 972.999 -305.414 1022.04ZM738.605 1421.54C741.128 1480.86 730.38 1541.1 704.788 1611.15C671.851 1700.13 632.32 1771.47 583.928 1829.27C526.092 1900.63 470.352 1947.37 413.533 1972.17C349.977 1999.97 273.72 2008.19 186.887 1996.6C108.41 1989.09 36.1839 1967.94 -21.969 1935.45C-80.1152 1902.96 -121.336 1860.72 -141.181 1813.3C-163.992 1761.69 -169.257 1700.09 -174.832 1634.87C-184.18 1566.4 -196.991 1472.56 -223.051 1374.34C-230.449 1347.41 -238.107 1320.97 -245.512 1295.4C-266.181 1224.04 -285.703 1156.62 -295.107 1093.7C-301.674 1068.2 -305.489 1044.07 -306.424 1022.08C-308.528 972.615 -296.304 933.632 -270.09 906.217C-189.87 818.915 -115.769 815.564 46.5864 808.233C79.0602 806.769 115.862 805.108 156.66 802.565C211.481 799.707 257.468 789.682 298.045 780.839C349.525 769.621 390.19 760.752 428.306 770.325C469.516 780.672 503.323 811.921 537.914 871.632C578.687 919.764 625.847 1010.52 667.246 1120.53C707.173 1226.64 732.913 1327.74 736.1 1390.94C737.324 1401.05 738.172 1411.36 738.605 1421.54Z" fill="white"/>
<path d="M-284.189 1030C-283.413 1048.25 -280.805 1067.94 -276.434 1088.54C-270.542 1165.45 -249.665 1249.14 -227.563 1337.73C-224.56 1349.76 -221.531 1361.89 -218.508 1374.15C-200.833 1448.86 -188.47 1518.89 -177.562 1580.67C-174.283 1599.26 -171.181 1616.82 -168.098 1633.61C-160.299 1701.26 -152.515 1756.78 -129.53 1804.74C-109.587 1849.94 -69.5096 1890.53 -13.6276 1922.13C42.3906 1953.82 111.722 1975.01 186.876 1983.43C272.151 1997.54 346.62 1991.99 408.234 1966.92C464.35 1944.32 519.28 1899.73 576.152 1830.59C626.147 1772.4 667.594 1696.91 699.361 1606.18C721.767 1541.33 731.093 1485.06 728.713 1429.09C728.069 1413.95 726.51 1398.57 724.094 1383.39C720.184 1322.59 694.865 1226.14 656.348 1125.32C616.288 1020.45 570.756 933.519 531.424 886.816C460.009 764.146 395.659 776.285 298.252 794.67C260.007 801.89 216.661 810.07 165.405 811.878C126.931 813.776 92.072 814.916 61.3163 815.912C-95.3122 821.014 -166.795 823.344 -244.69 906.195C-273.192 934.529 -286.478 976.176 -284.189 1030ZM729.726 1429.05C732.115 1485.23 722.759 1541.68 700.285 1606.73C668.468 1697.61 626.934 1773.25 576.851 1831.54C519.877 1900.8 464.827 1945.49 408.559 1968.15C346.808 1993.27 272.194 1998.85 186.791 1984.71C111.547 1976.28 42.0983 1955.05 -14.0183 1923.31C-70.1104 1891.58 -110.355 1850.8 -130.397 1805.37C-153.476 1757.22 -161.285 1701.56 -169.091 1633.82C-172.167 1617.08 -175.269 1599.52 -178.551 1580.93C-189.452 1519.16 -201.813 1449.16 -219.475 1374.5C-222.497 1362.26 -225.524 1350.12 -228.524 1338.1C-250.645 1249.44 -271.538 1165.68 -277.425 1088.74C-281.801 1068.16 -284.42 1048.37 -285.2 1030.04C-287.507 975.78 -274.095 933.776 -245.337 905.187C-167.194 822.064 -95.5999 819.737 61.2663 814.633C92.0194 813.628 126.874 812.497 165.346 810.592C216.55 808.781 259.865 800.612 298.077 793.394C348.351 783.909 388.059 776.418 425.264 786.487C465.488 797.375 498.461 828.052 532.167 885.974C571.528 932.7 617.139 1019.77 657.254 1124.78C695.822 1225.74 721.182 1322.36 725.095 1383.24C727.518 1398.41 729.079 1413.85 729.726 1429.05Z" fill="white"/>
<path d="M-256.71 1106.45C-253.264 1187.49 -235.124 1275.63 -213.548 1374.14C-205.153 1414.49 -197.691 1452.78 -190.475 1489.82C-180.366 1541.72 -170.812 1590.74 -161.072 1632.51C-152.017 1693.96 -142.499 1748.7 -117.528 1796.94C-97.4166 1840.22 -58.3925 1879.4 -4.66194 1910.28C49.2117 1941.24 115.628 1962.55 187.409 1971.91C271.08 1988.61 343.755 1985.7 403.433 1963.25C458.856 1942.8 512.97 1900.24 568.866 1833.13C621.12 1773.61 663.336 1695.81 694.357 1601.88C713.694 1542.5 722.019 1488.34 719.807 1436.31C718.955 1416.28 716.504 1395.87 712.521 1375.64C703.126 1257.11 608.921 1000.63 525.438 900.632C455.993 781.607 393.282 791.49 298.356 806.447C262.596 812.088 222.066 818.475 174.578 819.273C138.6 820.544 105.835 821.153 76.9277 821.697C-74.0165 824.519 -142.909 825.803 -218.599 904.592C-249.941 934.237 -264.537 979.454 -262.006 1038.99C-261.41 1053.02 -259.823 1067.9 -257.296 1083.23C-257.236 1090.85 -257.042 1098.62 -256.71 1106.45ZM720.818 1436.27C723.038 1488.5 714.686 1542.84 695.288 1602.41C664.212 1696.51 621.91 1774.46 569.558 1834.09C513.557 1901.33 459.315 1943.99 403.738 1964.49C343.914 1986.99 271.095 1989.91 187.302 1973.18C115.441 1963.82 48.9155 1942.47 -5.06069 1911.45C-58.9856 1880.46 -98.1722 1841.09 -118.382 1797.61C-143.445 1749.18 -152.989 1694.31 -162.053 1632.78C-171.787 1591.05 -181.34 1542.01 -191.456 1490.11C-198.672 1453.07 -206.134 1414.78 -214.523 1374.45C-236.111 1275.87 -254.265 1187.66 -257.716 1106.49C-258.05 1098.64 -258.244 1090.85 -258.293 1083.33C-260.824 1068.07 -262.414 1053.12 -263.013 1039.03C-265.563 979.038 -250.836 933.464 -219.233 903.566C-182.571 865.406 -146.45 844.411 -98.4645 833.384C-52.5411 822.827 1.74773 821.808 76.8881 820.405C105.793 819.865 138.556 819.252 174.534 817.988C221.972 817.182 262.474 810.801 298.212 805.17C347.203 797.454 385.898 791.351 422.13 801.955C461.311 813.425 493.397 843.596 526.179 899.788C564.053 945.149 608.041 1028.62 646.798 1128.72C683.93 1224.61 708.869 1316.85 713.517 1375.45C717.499 1395.66 719.963 1416.16 720.818 1436.27Z" fill="white"/>
<path d="M-239.898 1151.11C-236.666 1227.15 -222.894 1306.76 -209.849 1374.61C-193.392 1465.58 -175.623 1560.35 -155.255 1631.53C-143.399 1696.4 -131.151 1745.34 -106.691 1789.04C-65.1134 1873.56 47.5278 1939.06 187.285 1959.99C269.506 1979.3 340.506 1979.03 398.346 1959.19C453.168 1940.94 506.56 1900.45 561.6 1835.42C615.447 1775.51 659.706 1693.29 689.604 1597.64C706.572 1542.57 713.812 1492.09 711.738 1443.31C710.674 1418.29 707.25 1393.74 701.27 1368.26C695.886 1312.04 671.375 1224.48 635.683 1133.92C598.274 1038.99 555.929 959.374 519.507 915.472C451.887 800.197 390.661 807.765 297.979 819.215C264.691 823.334 226.964 827.998 183.214 827.855C149.768 828.506 119.124 828.613 92.0878 828.696C-49.1657 829.194 -120.067 829.44 -193.751 904.103C-227.926 934.748 -244.509 985.454 -241.734 1050.75C-241.349 1059.81 -240.591 1069.23 -239.474 1078.79C-240.832 1101.48 -240.976 1125.76 -239.898 1151.11ZM712.747 1443.27C714.829 1492.24 707.566 1542.89 690.546 1598.14C660.589 1693.97 616.235 1776.36 562.283 1836.39C507.138 1901.55 453.6 1942.13 398.632 1960.43C340.641 1980.32 269.496 1980.6 187.157 1961.27C47.127 1940.29 -65.8007 1874.56 -107.529 1789.74C-134.725 1741.15 -146.496 1685.11 -156.219 1631.87C-176.589 1560.7 -194.368 1465.89 -210.833 1374.88C-223.886 1306.98 -237.67 1227.3 -240.907 1151.15C-241.987 1125.75 -241.841 1101.4 -240.475 1078.81C-241.594 1069.36 -242.358 1059.89 -242.745 1050.79C-245.54 985.029 -228.812 933.949 -194.368 903.065C-120.437 828.157 -49.4207 827.909 92.0617 827.417C119.095 827.324 149.735 827.215 183.185 826.564C226.887 826.711 264.593 822.05 297.858 817.939C345.693 812.027 383.473 807.356 418.828 818.505C457.05 830.559 488.328 860.207 520.253 914.635C556.7 958.551 599.125 1038.31 636.585 1133.36C672.324 1224.05 696.878 1311.77 702.256 1368.02C708.242 1393.5 711.679 1418.15 712.747 1443.27Z" fill="white"/>
<path d="M-225.694 1199.61C-223.522 1250.72 -217.064 1308.13 -205.949 1375.12C-188.943 1485.33 -170.389 1568.96 -149.222 1630.8C-136.21 1689.6 -122.129 1737.69 -95.6282 1781.52C-53.7327 1861.87 54.7108 1925.88 187.406 1948.62C268.18 1970.57 337.511 1972.94 393.514 1955.65C447.704 1939.6 500.391 1901.16 554.584 1838.14C625.574 1760.85 664.747 1662.53 685.109 1593.66C700.014 1542.49 706.318 1495.42 704.377 1449.74C703.125 1420.29 698.509 1391.24 690.265 1360.95C677.777 1251.14 589.974 1022.52 513.803 930.014C447.941 818.314 388.131 823.512 297.601 831.384C266.855 834.058 232.006 837.088 192.053 836.062C161.259 836.119 132.841 835.741 107.768 835.403C-28.5412 833.571 -96.9618 832.654 -168.704 903.298C-206.683 935.564 -225.099 991.306 -221.987 1064.53C-221.852 1067.7 -221.673 1070.96 -221.456 1074.2C-226.258 1112.79 -227.643 1153.76 -225.694 1199.61ZM705.386 1449.7C707.335 1495.56 701.012 1542.8 686.055 1594.13C665.651 1663.15 626.395 1761.66 555.26 1839.11C500.954 1902.27 448.13 1940.8 393.769 1956.9C337.625 1974.23 268.137 1971.87 187.255 1949.89C54.3119 1927.11 -54.4113 1862.87 -96.4445 1782.25C-123.025 1738.29 -137.148 1690.07 -150.173 1631.21C-171.343 1569.36 -189.919 1485.65 -206.937 1375.36C-218.061 1308.31 -224.528 1250.83 -226.703 1199.65C-228.656 1153.71 -227.266 1112.65 -222.46 1074.12C-222.681 1071.03 -222.861 1067.76 -222.997 1064.56C-226.129 990.876 -207.563 934.745 -169.307 902.252C-97.3195 831.364 -28.7856 832.282 107.755 834.114C132.823 834.449 161.235 834.835 192.038 834.782C231.958 835.8 266.783 832.773 297.509 830.101C388.374 822.2 448.405 816.987 514.545 929.176C590.798 1021.76 678.755 1250.78 691.247 1360.68C699.49 1390.96 704.128 1420.12 705.386 1449.7Z" fill="white"/>
<path d="M-213.239 1247.42C-211.536 1287.48 -207.579 1329.34 -201.146 1375.38C-187.631 1480.78 -167.854 1566.46 -142.359 1630.04C-129.929 1677.26 -114.254 1727.32 -83.8081 1774.1C-41.653 1850.36 62.4362 1912.96 187.865 1937.51C268.188 1962.53 333.864 1967.4 388.697 1952.4C442.17 1938.58 494.051 1902.16 547.321 1841.07C604.934 1779.48 652.094 1690.2 680.125 1589.68C693.222 1542.02 698.702 1498.05 696.884 1455.27C695.456 1421.66 689.526 1388.35 678.756 1353.45C664.722 1248.13 581.441 1034.31 507.812 943.972C443.742 835.65 385.367 838.404 296.999 842.574C268.932 843.899 237.115 845.4 201.102 843.577C173.133 843.066 147.112 842.231 124.15 841.485C-7.19742 837.221 -73.1271 835.085 -142.889 901.827C-193.711 942.751 -203.386 1015.35 -202.563 1069.06L-202.576 1069.22C-212.565 1122.89 -216.054 1181.18 -213.239 1247.42ZM697.89 1455.23C699.715 1498.19 694.217 1542.31 681.082 1590.13C652.986 1690.87 605.725 1780.33 547.994 1842.05C494.602 1903.28 442.571 1939.79 388.929 1953.67C333.95 1968.7 268.119 1963.83 187.692 1938.77C62.0398 1914.18 -42.3128 1851.37 -84.6043 1774.87C-115.132 1727.96 -130.852 1677.77 -143.285 1630.51C-168.799 1566.9 -188.612 1481.09 -202.14 1375.57C-208.58 1329.49 -212.539 1287.58 -214.244 1247.45C-217.063 1181.12 -213.572 1122.74 -203.572 1068.97C-204.393 1014.95 -194.622 941.95 -143.476 900.758C-73.4715 833.788 -7.42633 835.93 124.152 840.194C147.107 840.938 173.128 841.785 201.101 842.286C237.095 844.115 268.886 842.613 296.94 841.284C385.627 837.108 444.217 834.341 508.559 943.135C582.259 1033.56 665.688 1247.76 679.723 1353.14C690.503 1388.04 696.455 1421.48 697.89 1455.23Z" fill="white"/>
<path d="M-204.513 1291.1C-203.35 1318.47 -201.072 1347.07 -197.748 1376.12C-187.156 1478.89 -166.084 1566.49 -136.813 1629.48C-118.616 1688.12 -99.6015 1729.14 -73.2025 1766.72C-52.2828 1802.21 -17.2417 1835.67 28.1636 1863.51C73.8416 1891.51 128.998 1913.2 187.67 1926.22C266.576 1954.02 330.667 1961.44 383.661 1948.95C436.507 1937.37 487.707 1903.01 540.188 1843.89C600.166 1781.07 648.245 1689.43 675.586 1585.85C687.141 1541.4 691.934 1500.33 690.232 1460.28C688.64 1422.83 681.277 1385.57 667.719 1346.36C651.929 1244.57 572.378 1045.84 501.99 958.811C439.496 853.865 382.322 854.084 295.778 854.417C270.437 854.511 241.715 854.625 209.661 852.117C184.626 851.101 162.107 849.894 140.336 848.726C13.4305 841.933 -50.2676 838.52 -118.311 901.355C-169.827 940.502 -183.033 1011.82 -185.049 1064.75L-185.071 1064.92C-201.507 1131.8 -208.048 1207.91 -204.513 1291.1ZM691.24 1460.24C692.949 1500.45 688.141 1541.68 676.545 1586.28C649.148 1690.09 600.957 1781.92 540.854 1844.87C488.245 1904.14 436.888 1938.6 383.863 1950.21C330.72 1962.75 266.478 1955.31 187.471 1927.48C128.755 1914.45 73.5054 1892.72 27.7445 1864.66C-17.8104 1836.73 -52.9837 1803.14 -73.9763 1767.52C-100.435 1729.86 -119.507 1688.73 -137.716 1630.03C-167.021 1566.98 -188.138 1479.2 -198.75 1376.27C-202.075 1347.19 -204.355 1318.55 -205.519 1291.14C-209.06 1207.83 -202.51 1131.6 -186.056 1064.58C-184.018 1011.35 -170.707 939.661 -118.879 900.281C-50.5951 837.219 13.2207 840.634 140.353 847.44C162.126 848.608 184.637 849.815 209.685 850.833C241.721 853.339 270.426 853.227 295.755 853.128C382.603 852.795 439.981 852.576 502.736 957.972C534.892 997.721 572.602 1066.58 606.145 1146.8C637.645 1222.14 661.02 1296.61 668.675 1346C682.252 1385.22 689.642 1422.63 691.24 1460.24Z" fill="white"/>
<path d="M-197.005 1326.8C-196.316 1343.01 -195.214 1359.61 -193.737 1376.14C-185.68 1478.75 -163.883 1565.95 -130.704 1628.31C-111.566 1681.15 -90.4189 1721.36 -62.093 1758.78C-18.6244 1827.86 74.7436 1886.05 187.703 1914.48C265.098 1945.1 327.53 1955.1 378.621 1945.04C430.774 1935.74 481.227 1903.41 532.87 1846.22C595.149 1782.16 644.09 1688.13 670.697 1581.43C680.906 1539.88 685.089 1501.42 683.493 1463.85C681.75 1422.83 672.864 1381.85 656.324 1338.57C639.108 1242.52 561.762 1054.95 495.972 972.773C434.999 870.985 378.949 868.541 294.115 864.859C271.684 863.882 246.259 862.782 218.342 859.716C196.459 858.271 176.541 856.722 157.28 855.223C38.545 846.006 -26.8598 840.927 -93.2293 899.959C-145.351 937.318 -162.087 1007.39 -166.952 1059.59C-191.053 1139.28 -201.155 1229.13 -197.005 1326.8ZM684.503 1463.81C686.106 1501.53 681.905 1540.14 671.659 1581.84C644.997 1688.77 595.943 1783.02 533.53 1847.21C481.753 1904.56 431.132 1936.98 378.792 1946.32C327.557 1956.4 264.973 1946.39 187.473 1915.72C74.3376 1887.25 -19.2597 1828.88 -62.8431 1759.62C-91.2239 1722.14 -112.431 1681.81 -131.579 1628.93C-164.812 1566.47 -186.667 1479.07 -194.74 1376.25C-196.22 1359.7 -197.323 1343.07 -198.013 1326.84C-202.171 1228.99 -192.048 1138.96 -167.926 1059.26C-163.06 1006.92 -146.219 936.45 -93.7807 898.865C-27.1678 839.618 38.3592 844.704 157.317 853.939C176.577 855.436 196.491 856.982 218.392 858.439C246.294 861.5 271.703 862.601 294.126 863.571C379.255 867.273 435.494 869.72 496.719 971.936C527.889 1010.86 563.094 1074.41 595.798 1150.8C625.852 1221.01 648.831 1291.06 657.269 1338.18C673.831 1381.47 682.752 1422.61 684.503 1463.81Z" fill="white"/>
<path d="M-190.668 1356.06C-190.373 1363 -189.994 1370.05 -189.542 1376.99C-183.922 1479.89 -161.416 1566.61 -124.451 1627.8C-104.684 1674.85 -81.3205 1714.1 -50.8817 1751.42C-7.0934 1816.35 82.0894 1873.07 187.715 1903.18C264.628 1937.14 323.64 1949.33 373.476 1941.56C424.897 1934.55 474.577 1904.29 525.368 1849.04C588.992 1784.74 640.081 1685.84 665.555 1577.7C674.584 1538.78 678.242 1502.72 676.744 1467.46C674.834 1422.5 664.649 1379.35 644.69 1331.65C625.972 1240.82 552.735 1067.31 489.796 987.868C430.207 889.063 375.124 883.822 291.741 875.886C272.439 874.046 250.566 871.963 226.999 868.54C208.507 866.765 191.436 864.973 174.929 863.232C60.067 851.14 -3.20209 844.473 -68.0399 899.756C-120.7 935.279 -140.966 1004.06 -148.704 1055.51C-180.719 1145.1 -195.218 1248.99 -190.668 1356.06ZM677.753 1467.42C679.258 1502.84 675.586 1539.04 666.522 1578.09C640.993 1686.48 589.777 1785.6 526.013 1850.04C475.087 1905.45 425.233 1935.8 373.615 1942.83C323.628 1950.63 264.47 1938.42 187.461 1904.42C81.6835 1874.26 -7.71042 1817.38 -51.6057 1752.29C-82.0923 1714.92 -105.516 1675.57 -125.29 1628.48C-162.332 1567.18 -184.915 1480.2 -190.548 1377.06C-191 1370.11 -191.378 1363.06 -191.673 1356.1C-196.231 1248.82 -181.705 1144.74 -149.656 1055.1C-141.918 1003.52 -121.53 934.369 -68.572 898.645C-3.49061 843.159 59.9027 849.831 174.987 861.95C191.492 863.689 208.561 865.489 227.066 867.258C250.635 870.681 272.502 872.764 291.79 874.603C334.892 878.705 368.934 881.942 400.534 896.636C434.651 912.501 462.415 940.376 490.545 987.03C520.241 1024.51 553.89 1084.47 585.244 1155.8C613.822 1220.82 636.392 1286.39 645.622 1331.21C665.61 1378.94 675.835 1422.27 677.753 1467.42Z" fill="white"/>
<path d="M-186.057 1385.82C-181.82 1485.55 -158.673 1568.91 -119.112 1626.9C-98.494 1669.33 -74.2512 1705.33 -40.4551 1743.71C3.77529 1804.59 88.9342 1859.86 187.386 1891.61C262.879 1928.53 320.359 1943.2 368.333 1937.79C418.396 1933.16 468.795 1904.14 518.155 1851.52C584.152 1786.02 636.203 1684.69 660.972 1573.5C668.996 1536.97 672.206 1503.07 670.796 1469.88C668.751 1421.75 656.933 1375.44 633.598 1324.17C612.638 1235.53 544.188 1079.1 483.889 1002.22C425.36 906.024 373.776 898.208 288.312 885.257C271.642 882.728 254.412 880.117 235.436 876.596C220.598 874.668 206.659 872.752 193.179 870.911C81.5347 855.593 20.0385 847.159 -43.6139 898.828C-96.8717 932.518 -120.733 1000.06 -131.384 1050.79C-172.059 1149.8 -191.058 1262.69 -186.371 1377.35C-186.278 1380.2 -186.176 1383.01 -186.057 1385.82ZM671.809 1469.84C673.225 1503.17 669.998 1537.21 661.945 1573.88C637.12 1685.32 584.944 1786.88 518.799 1852.53C469.294 1905.3 418.703 1934.43 368.437 1939.07C320.312 1944.5 262.69 1929.8 187.101 1892.83C88.5233 1861.05 3.17313 1805.64 -41.1522 1744.62C-74.9915 1706.19 -99.2947 1670.1 -119.918 1627.64C-159.58 1569.52 -182.817 1485.88 -187.067 1385.86C-187.187 1383.04 -187.289 1380.23 -187.377 1377.38C-192.076 1262.49 -173.036 1149.39 -132.319 1050.3C-121.656 999.444 -97.6649 931.573 -44.1272 897.71C19.7733 845.835 81.3967 854.291 193.263 869.627C206.744 871.479 220.679 873.388 235.534 875.32C254.521 878.846 271.747 881.45 288.406 883.979C331.108 890.45 364.834 895.563 396.029 911.249C429.672 928.159 456.999 955.958 484.641 1001.39C512.919 1037.44 545.071 1093.84 575.128 1160.14C602.26 1219.99 624.463 1281.13 634.515 1323.69C657.888 1375 669.755 1421.49 671.809 1469.84Z" fill="white"/>
<path d="M-182.083 1400C-178.077 1494.3 -154.28 1572.49 -113.268 1626.11C-92.5705 1663.11 -66.7746 1697.06 -29.5742 1736.26C15.1311 1793.25 96.1951 1847.14 187.309 1880.46C262.328 1921.02 316.576 1937.69 363.277 1934.54C412.636 1932.21 462.292 1905.25 510.886 1854.43C579.204 1787.67 632.163 1683.8 656.192 1569.43C663.323 1535.02 666.14 1503.05 664.809 1471.72C662.633 1420.51 649.124 1371.19 622.299 1316.52C599.887 1233.63 535.1 1089.94 477.882 1016.05C420.105 921.829 368.678 910.852 283.478 892.655C270.921 889.967 257.924 887.199 243.998 883.961C233.218 882.12 222.845 880.301 212.868 878.554C103.936 859.465 43.9338 848.953 -18.795 897.211C-72.5453 929.077 -100.004 995.452 -113.583 1045.52C-160.766 1147.78 -184.634 1262.54 -182.652 1377.54C-182.589 1385.08 -182.396 1392.63 -182.083 1400ZM665.817 1471.68C667.154 1503.15 664.325 1535.24 657.167 1569.79C633.08 1684.42 579.998 1788.53 511.524 1855.44C462.782 1906.43 412.919 1933.48 363.349 1935.82C316.494 1938.99 262.103 1922.29 186.991 1881.67C95.7771 1848.32 14.5446 1794.3 -30.2417 1737.2C-67.4804 1697.96 -93.3319 1663.94 -114.032 1626.92C-155.173 1573.15 -179.069 1494.66 -183.089 1400.04C-183.403 1392.65 -183.597 1385.08 -183.661 1377.52C-185.65 1262.31 -161.731 1147.3 -114.494 1044.97C-100.897 994.774 -73.2987 928.098 -19.283 896.073C43.6962 847.612 103.825 858.15 212.981 877.277C222.961 879.024 233.329 880.843 244.134 882.69C258.077 885.932 271.065 888.705 283.625 891.384C326.268 900.496 359.944 907.682 390.924 924.566C424.294 942.76 451.346 970.715 478.633 1015.22C535.903 1089.17 600.803 1233.1 623.204 1315.99C650.075 1370.72 663.631 1420.24 665.817 1471.68Z" fill="white"/>
<path d="M-178.256 1411.1C-174.423 1501.31 -149.87 1575.37 -107.244 1625.26C-83.1763 1662.65 -54.3923 1693.61 -18.5589 1728.61C27.4051 1782.57 102.415 1833.71 187.272 1868.95C236.752 1898.39 300.837 1931.99 358.182 1930.84C406.803 1930.83 455.698 1905.98 503.511 1856.99C573.091 1790.04 628.316 1681.02 651.244 1565.33C657.592 1532.88 660.063 1502.72 658.806 1473.11C656.476 1418.27 641.695 1367.69 610.861 1309.12C586.601 1230.66 524.97 1100.05 471.814 1030.49C414.249 937.508 362.3 922.928 276.228 898.768C268.62 896.626 260.754 894.421 252.605 892.085C246.398 890.722 240.316 889.37 234.371 888.062C130.879 865.17 68.4121 851.359 6.17557 896.34C-47.9924 926.338 -79.058 991.474 -95.5894 1040.84C-148.533 1144.52 -178.039 1264.2 -178.718 1377.93C-178.871 1389.13 -178.715 1400.29 -178.256 1411.1ZM659.814 1473.07C661.077 1502.81 658.597 1533.1 652.227 1565.67C641.472 1619.91 623.184 1674.38 599.326 1723.21C572.89 1777.32 540.87 1822.68 504.146 1858.01C456.162 1907.17 407.06 1932.12 358.217 1932.13C300.667 1933.28 236.443 1899.61 186.92 1870.15C101.986 1834.87 26.8387 1783.63 -19.1962 1729.59C-55.0522 1694.56 -83.8887 1663.55 -107.967 1626.13C-150.745 1576.07 -175.416 1501.7 -179.264 1411.14C-179.724 1400.3 -179.879 1389.11 -179.728 1377.89C-179.391 1321.18 -172.132 1263.47 -158.151 1206.37C-143.988 1148.51 -123.237 1092.61 -96.4797 1040.22C-79.9204 990.74 -48.7058 925.319 5.70897 895.19C68.207 850.012 130.808 863.854 234.521 886.789C240.465 888.112 246.544 889.453 252.775 890.82C260.951 893.17 268.817 895.373 276.42 897.51C362.717 921.731 414.807 936.352 472.567 1029.66C525.771 1099.28 587.5 1230.09 611.75 1308.55C642.631 1367.2 657.473 1417.98 659.814 1473.07Z" fill="white"/>
<path d="M-174.49 1420.52C-170.791 1507.6 -145.4 1578.28 -101.066 1624.92C-74.5406 1660.74 -41.9418 1690.24 -7.42814 1721.48C39.38 1771.81 110.338 1821.55 187.286 1857.98C238.704 1891.54 298.567 1926.05 353.074 1927.68C400.924 1930.01 449.036 1907.26 496.069 1860.07C567.891 1791.97 623.997 1680.45 646.165 1561.75C651.811 1531.11 653.978 1502.6 652.788 1474.57C650.338 1416.9 633.845 1363.75 599.308 1302.24C573.283 1228.67 516.215 1112.55 465.671 1045.42C407.325 952.156 353.539 933.213 264.425 901.827L261.193 900.686L258.551 899.949C155.725 871.276 93.6575 853.965 31.2183 895.965C-23.2803 924.068 -57.9675 987.98 -77.4795 1036.65C-136.841 1143.07 -171.319 1264.56 -174.606 1378.83C-175.103 1392.99 -175.064 1407.01 -174.49 1420.52ZM653.797 1474.53C654.993 1502.68 652.816 1531.31 647.144 1562.07C624.927 1681.05 568.683 1792.84 496.696 1861.1C449.477 1908.46 401.155 1931.3 353.068 1928.97C298.356 1927.33 238.366 1892.75 186.894 1859.15C109.898 1822.7 38.8297 1772.88 -8.03541 1722.49C-42.5558 1691.25 -75.1952 1661.71 -101.744 1625.85C-146.264 1579.02 -171.782 1508.02 -175.497 1420.56C-176.073 1407.01 -176.111 1392.94 -175.612 1378.75C-172.322 1264.24 -137.774 1142.5 -78.3411 1035.97C-58.7924 987.188 -23.9574 923.021 30.7751 894.795C93.4912 852.61 155.695 869.957 258.744 898.696L261.412 899.442L264.674 900.591C353.992 932.047 407.897 951.033 466.42 1044.59C517.011 1111.79 574.166 1228.06 600.175 1301.63C634.779 1363.23 651.336 1416.6 653.797 1474.53Z" fill="white"/>
<path d="M-171.718 1427.47C-168.125 1512.05 -141.826 1579.85 -95.6649 1623.55C-72.2743 1650.94 -44.1447 1674.22 -14.3679 1698.87C-8.68068 1703.57 -2.89419 1708.36 2.98681 1713.28C51.328 1760.51 118.293 1808.83 186.735 1845.87C237.061 1881.78 295.473 1919.03 347.533 1923.35C394.638 1928.01 442.003 1907.38 488.311 1862C562.435 1792.76 619.475 1678.79 640.894 1557.14C645.931 1528.17 647.834 1501.18 646.707 1474.63C644.141 1414.24 625.895 1358.67 587.545 1294.45C559.98 1226.52 507.085 1124.08 459.225 1059.54C402.879 970.642 349.893 943.202 269.321 908.561C176.247 875.762 116.111 857.546 55.6085 894.87C0.792481 921.074 -37.5674 983.739 -60.1032 1031.7C-125.945 1140.69 -165.427 1263.94 -171.313 1378.82C-172.248 1395.43 -172.383 1411.8 -171.718 1427.47ZM647.714 1474.59C648.847 1501.26 646.939 1528.36 641.883 1557.45C620.405 1679.39 563.228 1793.63 488.929 1863.03C442.429 1908.59 394.837 1929.32 347.485 1924.63C295.227 1920.3 236.685 1882.96 186.308 1847.02C117.839 1809.96 50.7935 1761.59 2.41355 1714.32C-3.4314 1709.43 -9.21779 1704.64 -14.9027 1699.94C-44.7201 1675.26 -72.8791 1651.95 -96.297 1624.54C-118.57 1603.45 -136.454 1576.32 -149.408 1543.95C-163.043 1509.87 -170.888 1470.69 -172.722 1427.51C-173.391 1411.78 -173.253 1395.36 -172.318 1378.7C-166.422 1263.58 -126.866 1140.08 -60.9412 1030.96C-38.3577 982.893 0.155537 920 55.1909 893.688C115.975 856.185 176.265 874.444 269.595 907.335C350.372 942.055 403.479 969.567 459.979 1058.71C507.877 1123.3 560.844 1225.87 588.391 1293.79C626.824 1358.13 645.137 1413.93 647.714 1474.59Z" fill="white"/>
<path d="M-168.03 1434.04C-164.519 1516.7 -137.273 1582.12 -89.2374 1623.2C-68.0252 1644.7 -43.3151 1663.04 -17.1529 1682.47C-6.92864 1690.06 3.64574 1697.91 14.4054 1706.24C51.7878 1739.2 112.076 1788.3 187.152 1835.11C238.836 1875.4 293.445 1913.61 342.916 1920.47C389.249 1927.52 435.853 1908.96 481.426 1865.31C557.834 1794.85 615.78 1678.29 636.429 1553.5C640.86 1526.42 642.573 1500.08 641.516 1475.19C638.835 1412.07 618.81 1354.11 576.591 1287.26C550.004 1230.24 501.878 1140.23 453.608 1073.92C400.363 991.044 350.928 954.649 278.311 916.473C190.736 877.293 136.155 863.027 80.9171 893.792C25.8781 918.126 -16.1723 979.62 -41.7601 1026.93C-114.054 1138.54 -158.518 1263.72 -166.985 1379.46C-168.423 1398.2 -168.773 1416.57 -168.03 1434.04ZM642.523 1475.15C643.584 1500.15 641.866 1526.61 637.415 1553.79C627.836 1611.68 609.39 1670.24 584.073 1723.15C556.551 1780.66 521.264 1830.18 482.039 1866.35C436.259 1910.19 389.42 1928.84 342.822 1921.75C293.161 1914.86 238.431 1876.58 186.687 1836.23C111.593 1789.42 51.2576 1740.28 13.8706 1707.31C3.1448 1699.01 -7.42506 1691.16 -17.645 1683.57C-43.8384 1664.13 -68.5799 1645.76 -89.8194 1624.24C-112.997 1604.41 -131.58 1578.51 -145.012 1547.28C-159.16 1514.39 -167.244 1476.3 -169.037 1434.08C-169.782 1416.54 -169.428 1398.11 -167.989 1379.31C-159.504 1263.32 -114.961 1137.9 -42.5695 1026.14C-16.9211 978.724 25.2791 917.021 80.5318 892.601C107.933 877.328 136.616 872.753 170.759 878.215C205.057 883.707 242.88 899.27 278.649 915.272C351.448 953.546 400.996 990.028 454.36 1073.1C502.662 1139.44 550.841 1229.55 577.408 1286.55C619.736 1353.55 639.829 1411.74 642.523 1475.15Z" fill="white"/>
<path d="M-165.312 1439.36C-161.873 1520.34 -133.654 1583.55 -83.7042 1622.16C-64.1076 1639.24 -41.77 1653.86 -18.1229 1669.34C-4.18223 1678.46 10.2387 1687.9 24.8987 1698.36C34.6527 1706.03 44.8144 1714.1 55.3627 1722.48C94.6088 1753.65 139.091 1788.97 186.623 1823.32C244.967 1872.87 292.908 1907.66 337.318 1916.44C382.861 1925.85 428.696 1909.4 473.542 1867.53C551.054 1797.03 611.369 1675.06 630.96 1549.22C634.91 1523.57 636.407 1498.57 635.403 1474.93C632.574 1408.33 611.414 1349.98 564.655 1279.83C550.818 1254.16 501.544 1164.69 447.036 1088.38C398.846 1014.65 352.304 967.234 286.372 924.698C227.553 891.026 164.895 863.882 105.322 893.082C61.6342 910.836 16.821 955.527 -24.3003 1022.34C-103.037 1136.32 -152.477 1263.25 -163.527 1379.77C-165.517 1400.34 -166.118 1420.39 -165.312 1439.36ZM636.411 1474.89C637.42 1498.63 635.916 1523.74 631.945 1549.5C622.751 1608.57 604.254 1668.45 578.449 1722.68C550.448 1781.53 514.379 1831.98 474.145 1868.58C429.081 1910.65 382.998 1927.18 337.183 1917.7C292.589 1908.89 244.54 1874.03 186.109 1824.41C138.59 1790.07 94.099 1754.74 54.844 1723.57C44.2979 1715.19 34.1364 1707.12 24.4047 1699.46C9.77846 1689.03 -4.63143 1679.6 -18.5654 1670.48C-42.2439 1654.98 -64.6083 1640.34 -84.2364 1623.23C-108.341 1604.61 -127.631 1579.85 -141.559 1549.66C-156.232 1517.86 -164.562 1480.77 -166.319 1439.4C-167.128 1420.35 -166.525 1400.23 -164.528 1379.59C-153.453 1262.82 -103.93 1135.65 -25.0807 1021.51C16.1442 954.527 61.1203 909.682 104.968 891.869C131.134 879.043 159.051 875.992 190.282 882.575C217.208 888.244 247.874 901.259 286.788 923.541C352.88 966.18 399.518 1013.69 447.796 1087.56C502.325 1163.9 551.632 1253.44 565.446 1279.06C612.334 1349.4 633.57 1407.99 636.411 1474.89Z" fill="white"/>
<path d="M-162.574 1444.14C-159.239 1522.66 -129.207 1585.62 -78.0096 1621.41C-59.6589 1635.08 -39.0772 1646.79 -17.2841 1659.18C-0.0940203 1668.95 17.6861 1679.06 35.6552 1690.86C78.8946 1720.88 125.947 1760.75 175.762 1802.96L186.495 1812.05C234.555 1856.45 285.388 1900.81 332.255 1913.01C377.036 1924.82 422.141 1910.46 466.313 1870.31C546.142 1798.63 607.435 1674.05 626.274 1545.18C629.805 1520.81 631.108 1497.05 630.152 1474.54C626.455 1387.49 589.304 1323.48 553.45 1272.35C532.726 1239.32 490.602 1173.39 441.095 1102.59C401.584 1043.34 356.539 981.741 294.913 932.498C230.83 884.656 178.441 871.761 130.051 891.928C85.6339 908.426 39.6542 950.651 -6.62755 1017.44C-91.8735 1133.83 -146.33 1262.63 -159.975 1380.13C-162.561 1402.33 -163.435 1423.87 -162.574 1444.14ZM631.159 1474.5C632.119 1497.11 630.81 1520.97 627.268 1545.44C608.378 1674.63 546.935 1799.51 466.908 1871.36C422.507 1911.72 377.138 1926.16 332.076 1914.27C285.006 1902.02 234.07 1857.58 185.934 1813.11L175.217 1804.03C125.423 1761.83 78.3894 1721.98 35.1992 1691.99C17.2657 1680.22 -0.498786 1670.12 -17.6776 1660.35C-39.4954 1647.94 -60.1038 1636.22 -78.4904 1622.53C-103.555 1605 -123.591 1581.27 -138.039 1551.99C-153.26 1521.14 -161.855 1484.86 -163.583 1444.18C-164.447 1423.82 -163.569 1402.2 -160.973 1379.92C-147.295 1262.17 -92.7488 1133.12 -7.38201 1016.56C39.0166 949.608 85.1517 907.256 129.731 890.693C178.399 870.419 231.052 883.349 295.42 931.405C357.179 980.752 402.296 1042.44 441.849 1101.76C491.36 1172.57 533.498 1238.52 554.211 1271.53C590.171 1322.81 627.444 1387.04 631.159 1474.5Z" fill="white"/>
<path d="M-159.868 1448.3C-156.581 1525.7 -125.481 1586.85 -72.2977 1620.49C-54.9834 1631.4 -35.7991 1640.74 -15.4917 1650.62C4.67351 1660.43 25.5247 1670.57 46.4123 1683.17C86.9385 1707.6 128.79 1742.7 186.347 1800.55C235.2 1849.59 282.73 1894.8 327.145 1909.3C371.148 1923.52 415.515 1911.24 459.021 1872.81C541.161 1800 603.419 1672.85 621.504 1540.98C624.658 1517.83 625.791 1495.23 624.881 1473.79C621.045 1383.48 580.916 1317.47 542.169 1264.81C535.855 1256.25 529.365 1247.49 522.708 1238.53C496.189 1202.77 466.129 1162.26 435.092 1116.81C427.742 1106.05 420.232 1094.85 412.968 1084.01C379.039 1033.41 343.958 981.09 303.42 940.353C255.615 892.346 202.826 874.765 154.782 890.848C110.322 905.849 61.9693 946.797 11.0639 1012.56C-80.6741 1131.28 -140.147 1261.91 -156.398 1380.41C-159.61 1404.07 -160.777 1426.91 -159.868 1448.3ZM625.89 1473.76C626.804 1495.28 625.664 1517.98 622.502 1541.22C604.37 1673.42 541.955 1800.88 459.607 1873.87C415.858 1912.52 371.216 1924.86 326.92 1910.54C282.311 1895.98 234.677 1850.68 185.735 1801.55C128.239 1743.77 86.4511 1708.71 45.9986 1684.33C25.1466 1671.76 4.3154 1661.62 -15.8321 1651.82C-36.1639 1641.93 -55.3681 1632.58 -72.7295 1621.64C-98.7685 1605.17 -119.56 1582.4 -134.535 1553.95C-150.307 1523.97 -159.172 1488.44 -160.875 1448.34C-161.788 1426.86 -160.614 1403.91 -157.393 1380.16C-149.3 1321.15 -130.443 1258.92 -101.342 1195.17C-72.473 1131.93 -34.898 1070.19 10.3382 1011.65C61.3673 945.726 109.872 904.666 154.503 889.602C202.86 873.415 255.97 891.081 304.036 939.353C344.649 980.167 379.769 1032.54 413.731 1083.19C420.991 1094.02 428.498 1105.22 435.848 1115.97C466.867 1161.41 496.918 1201.91 523.434 1237.66C530.086 1246.62 536.582 1255.38 542.897 1263.94C581.778 1316.78 622.036 1383.02 625.89 1473.76Z" fill="white"/>
<path d="M-146.963 1449.65C-143.691 1526.69 -113.946 1586.91 -63.2046 1619.21C-45.2365 1630.67 -25.543 1640.17 -4.69581 1650.23C13.8617 1659.19 33.0515 1668.45 52.4599 1679.78C61.5431 1685.13 71.0039 1691.24 80.5806 1697.92C112.337 1720.09 145.891 1748.88 189.382 1791.29C237.131 1837.71 283.584 1880.49 327.023 1893.96C369.987 1907.16 413.189 1895.03 455.432 1857.91C504.151 1815.15 544.46 1753.98 572.003 1681C590.016 1634.39 602.775 1583.21 608.912 1533C611.737 1510.89 612.725 1489.23 611.85 1468.62C609.499 1413.27 594.078 1362.51 563.319 1308.9C554.848 1294.23 545.091 1279.11 533.493 1262.69C524.445 1249.72 515.092 1236.49 505.194 1222.49C483.011 1191.1 457.864 1155.54 432.014 1116.88C427.805 1110.55 423.583 1104.16 419.337 1097.73C390.456 1054.02 360.593 1008.81 327.097 970.654C319.145 961.587 311.175 953.129 303.406 945.522C256.748 899.655 205.168 882.937 158.173 898.439C114.328 912.969 66.9628 952.402 17.3938 1015.63C-16.1485 1057.74 -46.0786 1105.23 -71.5681 1156.78C-89.4961 1192.58 -104.894 1229.89 -117.331 1267.66C-129.787 1305.6 -138.117 1341.89 -143.54 1381.89C-146.72 1405.41 -147.873 1428.21 -146.963 1449.65ZM612.855 1468.58C613.734 1489.28 612.745 1511.03 609.906 1533.23C603.759 1583.56 590.962 1634.86 572.91 1681.58C545.295 1754.75 504.874 1816.1 456.018 1858.97C413.537 1896.31 370.063 1908.5 326.809 1895.2C283.171 1881.68 236.621 1838.82 188.782 1792.31C145.332 1749.94 111.818 1721.18 80.1132 1699.04C70.5567 1692.37 61.1183 1686.29 52.0573 1680.95C32.6802 1669.63 13.5081 1660.38 -5.0316 1651.43C-25.9076 1641.36 -45.6212 1631.84 -63.6384 1620.36C-114.727 1587.83 -144.677 1527.22 -147.97 1449.69C-148.884 1428.16 -147.727 1405.26 -144.535 1381.64C-139.097 1341.55 -130.747 1305.16 -118.261 1267.14C-105.803 1229.3 -90.3798 1191.94 -72.4218 1156.07C-46.8941 1104.45 -16.9173 1056.88 16.6743 1014.7C66.3649 951.322 113.882 911.786 157.901 897.193C205.205 881.594 257.096 898.392 304.011 944.508C311.798 952.138 319.788 960.615 327.754 969.704C361.309 1007.92 391.196 1053.16 420.102 1096.91C424.346 1103.34 428.568 1109.74 432.779 1116.06C458.617 1154.7 482.673 1188.73 505.936 1221.65C515.837 1235.65 525.189 1248.87 534.237 1261.84C545.859 1278.3 555.634 1293.45 564.122 1308.15C595.01 1361.98 610.493 1412.96 612.855 1468.58Z" fill="white"/>
<path d="M-134.062 1451.51C-130.812 1528.04 -102.452 1587.23 -54.2055 1618.17C-35.5563 1630.2 -15.3611 1639.85 6.0215 1650.07C22.9362 1658.15 40.4267 1666.5 58.2815 1676.59C67.0946 1681.65 76.3182 1687.43 85.7027 1693.78C116.828 1714.84 149.624 1742.09 192.034 1782.13C238.615 1825.88 283.936 1866.19 326.359 1878.61C368.242 1890.79 410.23 1878.82 451.164 1843.03C499.465 1801.06 538.024 1741.09 562.677 1669.6C579.025 1624.53 590.055 1576 595.455 1525.36C597.956 1504.32 598.797 1483.66 597.959 1463.93C595.661 1409.82 581.073 1359.82 552.051 1306.57C544.08 1292.1 534.918 1277.25 524.041 1261.16C511.558 1242.18 498.291 1222.49 484.244 1201.65C466.375 1175.13 447.899 1147.71 428.269 1117.69L426.192 1114.47C395.152 1066.39 363.054 1016.68 326.105 975.617C318.338 966.968 310.518 958.875 302.875 951.583C257.413 907.907 207.106 892.059 161.217 906.969C118.03 921.018 71.7076 958.885 23.5322 1019.51C-9.44113 1059.69 -37.7753 1105.62 -63.1035 1159.95C-79.8159 1194.91 -93.9642 1231.07 -106.366 1270.5C-117.557 1306.28 -124.833 1340.18 -130.689 1383.84C-133.841 1407.23 -134.975 1430 -134.062 1451.51ZM598.967 1463.89C599.808 1483.7 598.962 1504.45 596.456 1525.57C591.039 1576.32 579.982 1624.97 563.593 1670.15C538.874 1741.84 500.199 1802 451.745 1844.1C410.577 1880.09 368.325 1892.12 326.156 1879.86C283.547 1867.38 238.124 1826.99 191.448 1783.15C149.081 1743.15 116.325 1715.94 85.2472 1694.91C75.8829 1688.58 66.6772 1682.81 57.8862 1677.76C40.0626 1667.69 22.5875 1659.34 5.68838 1651.27C-15.7184 1641.04 -35.9426 1631.38 -54.6409 1619.32C-78.3646 1604.1 -97.4149 1581.96 -111.262 1553.51C-125.421 1524.41 -133.43 1490.11 -135.067 1451.55C-135.985 1429.94 -134.844 1407.08 -131.681 1383.6C-125.811 1339.84 -118.521 1305.86 -107.298 1270C-94.878 1230.5 -80.7062 1194.28 -63.9701 1159.27C-38.6003 1104.85 -10.209 1058.83 22.8221 1018.58C71.1168 957.8 117.589 919.826 160.945 905.724C207.138 890.715 257.754 906.638 303.468 950.564C311.135 957.877 318.965 965.986 326.757 974.661C363.767 1015.79 395.894 1065.55 426.966 1113.68L429.035 1116.88C448.658 1146.89 467.136 1174.31 485.001 1200.82C499.05 1221.67 512.32 1241.36 524.805 1260.34C535.694 1276.46 544.876 1291.34 552.871 1305.84C582.01 1359.3 596.658 1409.53 598.967 1463.89Z" fill="white"/>
<path d="M-121.115 1453.55C-117.93 1528.56 -90.2102 1588.32 -45.0621 1617.52C-25.6564 1630.2 -4.92024 1639.99 17.0336 1650.35C32.313 1657.57 48.1059 1665.02 64.3712 1673.89C72.9332 1678.68 81.9345 1684.16 91.1235 1690.18C121.652 1710.17 153.722 1735.91 195.106 1773.66C240.568 1814.84 284.804 1852.74 326.266 1864.16C367.115 1875.33 407.937 1863.49 447.597 1828.99C495.531 1787.73 532.381 1728.85 554.171 1658.72C568.646 1615.82 578.296 1568.46 582.87 1517.95C585.05 1497.98 585.744 1478.3 584.944 1459.46C582.693 1406.46 568.917 1357.09 541.591 1304.05C534.099 1289.76 525.523 1275.15 515.368 1259.36C498.146 1231.47 479.033 1201.78 458.803 1170.35C447.976 1153.54 436.783 1136.16 425.177 1117.96C395.358 1070.29 363.119 1020.36 325.66 979.787C318.043 971.507 310.373 963.774 302.855 956.792C258.543 915.219 209.447 900.218 164.614 914.56C122.037 928.153 76.7079 964.528 29.8794 1022.67C-2.82299 1061.37 -29.64 1105.84 -54.519 1162.64C-69.7663 1196.19 -83.1105 1232.3 -95.322 1273.07C-106.695 1311.31 -112.171 1343.34 -117.79 1385.74C-120.917 1409.07 -122.035 1431.89 -121.115 1453.55ZM585.948 1459.42C586.752 1478.35 586.051 1498.11 583.865 1518.15C579.282 1568.76 569.605 1616.24 555.102 1659.24C533.247 1729.59 496.271 1788.66 448.174 1830.06C408.286 1864.76 367.204 1876.66 326.076 1865.41C284.426 1853.95 240.087 1815.96 194.537 1774.7C153.19 1736.99 121.161 1711.27 90.6838 1691.32C81.5105 1685.31 72.5294 1679.85 63.9893 1675.07C47.751 1666.22 31.9689 1658.76 16.7073 1651.56C-5.2797 1641.18 -26.0448 1631.38 -45.5017 1618.66C-90.9889 1589.25 -118.917 1529.08 -122.122 1453.59C-123.046 1431.83 -121.921 1408.92 -118.783 1385.5C-113.154 1343.02 -107.664 1310.93 -96.2645 1272.59C-84.0317 1231.76 -70.6663 1195.58 -55.3948 1161.99C-30.4706 1105.08 -3.59483 1060.51 29.1779 1021.73C76.1193 963.437 121.601 926.962 164.348 913.314C209.481 898.883 258.878 913.952 303.44 955.762C310.972 962.758 318.664 970.517 326.299 978.816C363.829 1019.47 396.108 1069.45 425.954 1117.17C437.556 1135.36 448.749 1152.74 459.572 1169.56C479.811 1200.99 498.923 1230.68 516.142 1258.57C526.317 1274.38 534.912 1289.04 542.425 1303.36C569.859 1356.6 583.688 1406.19 585.948 1459.42Z" fill="white"/>
<path d="M-109.085 1455.67C-105.927 1530.04 -79.567 1588.65 -36.7578 1616.49C-16.5151 1629.85 4.80261 1639.72 27.3719 1650.18C41.0122 1656.5 55.1199 1663.04 69.7594 1670.7C78.0697 1675.2 86.8553 1680.36 95.8758 1686.04C125.838 1704.91 157.22 1729.1 197.635 1764.49C240.255 1801.48 285.253 1838.46 325.787 1848.81C365.658 1858.95 405.367 1847.27 443.812 1814.11C491.442 1773.63 526.642 1715.95 545.608 1647.31C558.237 1606.77 566.534 1560.67 570.277 1510.28C572.139 1491.45 572.7 1472.83 571.94 1454.94C569.741 1403.14 556.763 1354.44 531.101 1301.67C524.091 1287.59 516.086 1273.24 506.631 1257.78C481.848 1214.93 452.746 1168.2 421.934 1118.73C395.382 1074.96 363.096 1024.82 324.947 984.727C317.481 976.841 309.949 969.475 302.546 962.823C259.335 923.429 211.388 909.307 167.54 923.065C125.516 936.174 81.1154 970.995 35.5695 1026.55C2.90492 1063.96 -22.4714 1106.91 -46.7226 1165.82C-60.7046 1198.15 -72.9103 1233.14 -85.139 1275.92C-96.2591 1315.2 -100.318 1346.09 -105.46 1385.2L-105.788 1387.71C-108.904 1410.98 -110.011 1433.84 -109.085 1455.67ZM572.946 1454.9C573.709 1472.87 573.15 1491.56 571.277 1510.45C567.527 1560.94 559.207 1607.15 546.55 1647.78C527.526 1716.66 492.193 1774.55 444.385 1815.18C405.718 1848.54 365.755 1860.28 325.614 1850.07C284.892 1839.67 239.787 1802.61 197.081 1765.54C156.706 1730.19 125.364 1706.03 95.4489 1687.19C86.442 1681.52 77.6763 1676.37 69.3905 1671.88C54.7776 1664.23 40.681 1657.7 27.0474 1651.39C4.44716 1640.92 -16.9038 1631.02 -37.2001 1617.63C-80.3465 1589.58 -106.913 1530.55 -110.091 1455.71C-111.021 1433.78 -109.912 1410.82 -106.782 1387.47L-106.454 1384.96C-101.303 1345.79 -97.2358 1314.85 -86.0859 1275.45C-73.8404 1232.61 -61.615 1197.58 -47.6113 1165.2C-23.3092 1106.15 2.13454 1063.11 34.8755 1025.61C80.535 969.905 125.085 934.987 167.281 921.818C211.419 907.971 259.659 922.166 303.118 961.78C310.537 968.451 318.095 975.847 325.581 983.747C363.807 1023.92 396.135 1074.13 422.72 1117.95C453.534 1167.42 482.643 1214.16 507.426 1257.04C516.893 1272.5 524.921 1286.89 531.952 1301C557.714 1353.98 570.737 1402.88 572.946 1454.9Z" fill="white"/>
<path d="M-96.1749 1457.48C-93.0457 1531.19 -68.0998 1588.66 -27.731 1615.16C-6.65153 1629.26 15.1989 1639.19 38.3335 1649.71C50.3008 1655.15 62.6726 1660.78 75.5951 1667.27C83.761 1671.55 92.0709 1676.27 101.009 1681.69C130.317 1699.45 160.937 1722.12 200.284 1755.19C241.76 1789.67 285.568 1824.11 325.11 1833.43C363.895 1842.55 402.387 1831.03 439.506 1799.18C486.703 1759.45 520.152 1702.93 536.236 1635.72C547.162 1597.08 553.883 1553.45 556.789 1502.31C558.341 1484.64 558.759 1467.13 558.041 1450.22C555.89 1399.54 543.736 1351.43 519.792 1298.8C513.278 1284.92 505.861 1270.82 497.129 1255.7C476.632 1217.5 452.269 1175.29 418.126 1118.84C384.654 1061.63 354.717 1020.34 323.906 988.874C316.61 981.372 309.228 974.366 301.962 968.038C259.964 930.789 213.297 917.528 170.548 930.689C129.768 943.155 85.2115 977.371 41.7013 1029.64C0.418775 1075.56 -22.7104 1127.87 -38.2469 1168.3C-54.4095 1207.88 -65.9293 1247.81 -74.1569 1278.16C-83.2658 1312.17 -86.6482 1339.22 -90.5605 1370.53C-91.3097 1376.52 -92.0833 1382.71 -92.9232 1389.17C-96.0173 1412.44 -97.1117 1435.42 -96.1749 1457.48ZM559.048 1450.18C559.768 1467.16 559.347 1484.75 557.792 1502.46C554.878 1553.69 548.137 1597.43 537.193 1636.15C521.048 1703.61 487.464 1760.37 440.08 1800.25C402.737 1832.29 363.997 1843.88 324.949 1834.69C285.221 1825.32 241.314 1790.81 199.748 1756.26C160.437 1723.22 129.86 1700.58 100.596 1682.84C91.6761 1677.44 83.3816 1672.73 75.238 1668.46C62.34 1661.98 49.9747 1656.36 38.0184 1650.92C14.8462 1640.39 -7.03931 1630.44 -28.1793 1616.3C-68.878 1589.58 -94.0296 1531.7 -97.1791 1457.52C-98.1199 1435.36 -97.023 1412.29 -93.9131 1388.93C-93.0753 1382.47 -92.3038 1376.29 -91.5522 1370.3C-87.6316 1338.93 -84.2469 1311.84 -75.1077 1277.73C-66.8668 1247.32 -55.3343 1207.34 -39.1482 1167.7C-23.5744 1127.17 -0.385688 1074.74 41.0145 1028.68C84.636 976.275 129.342 941.958 170.291 929.445C213.32 916.187 260.283 929.521 302.518 966.987C309.8 973.333 317.206 980.357 324.525 987.877C355.403 1019.42 385.401 1060.78 418.919 1118.08C453.077 1174.55 477.447 1216.76 497.944 1254.97C506.687 1270.11 514.12 1284.24 520.653 1298.16C544.687 1350.99 556.887 1399.29 559.048 1450.18Z" fill="white"/>
<path d="M-83.2468 1459.86C-80.1995 1531.64 -56.0301 1589.27 -18.5972 1614.05C3.38384 1628.92 25.7963 1638.84 49.5229 1649.35C59.8292 1653.91 70.4846 1658.63 81.6673 1663.99C89.5617 1667.98 97.6513 1672.39 106.411 1677.46C134.713 1693.88 165.508 1715.64 203.326 1745.95C243.702 1777.88 286.361 1809.75 324.979 1818.03C362.733 1826.12 400.055 1814.75 435.908 1784.24C482.727 1745.32 514.476 1690 527.72 1624.28C536.932 1587.82 542.167 1546.64 544.2 1494.62C545.448 1478.2 545.738 1461.86 545.066 1446.04C542.962 1396.48 531.609 1348.94 509.349 1296.41C503.326 1282.74 496.498 1268.9 488.464 1254.12C468.117 1213.07 444.106 1169.08 415.055 1119.61C385.184 1066.66 354.385 1024.34 323.496 993.82C316.365 986.716 309.125 980.071 301.982 974.07C261.148 939 215.697 926.615 173.987 939.193C133.8 951.175 90.2643 983.79 48.0853 1033.51C7.43423 1077.32 -14.0162 1127.82 -29.6353 1171.45C-43.6779 1207.9 -54.0197 1245.63 -63.1025 1280.96C-70.8163 1311.38 -73.4729 1334.8 -76.5513 1361.92C-77.5929 1371.12 -78.6755 1380.63 -80.0181 1391.07C-83.1089 1414.37 -84.1956 1437.51 -83.2468 1459.86ZM546.072 1446C546.747 1461.89 546.455 1478.29 545.202 1494.75C543.169 1546.84 537.916 1588.13 528.683 1624.66C515.392 1690.66 483.5 1746.22 436.475 1785.32C400.411 1816.01 362.852 1827.44 324.835 1819.3C286.036 1810.97 243.276 1779.03 202.808 1747.03C165.029 1716.75 134.271 1695.02 106.011 1678.63C97.2699 1673.56 89.1936 1669.16 81.3258 1665.18C70.1652 1659.84 59.5143 1655.12 49.2145 1650.56C25.4484 1640.04 3.00044 1630.09 -19.0476 1615.18C-38.3703 1602.39 -53.9587 1581.77 -65.3763 1553.89C-76.2401 1527.36 -82.7662 1494.86 -84.2505 1459.9C-85.2034 1437.46 -84.1142 1414.22 -81.0097 1390.83C-79.6669 1380.4 -78.5883 1370.9 -77.5463 1361.71C-74.4617 1334.53 -71.8006 1311.06 -64.0586 1280.54C-54.9629 1245.16 -44.6076 1207.39 -30.5457 1170.88C-14.8858 1127.14 6.62995 1076.49 47.4117 1032.55C89.6957 982.696 133.383 949.979 173.734 937.947C215.723 925.283 261.46 937.735 302.522 973.01C309.685 979.028 316.95 985.696 324.099 992.816C355.062 1023.41 385.94 1065.83 415.86 1118.86C444.925 1168.36 468.947 1212.37 489.299 1253.43C497.335 1268.22 504.183 1282.1 510.223 1295.81C532.569 1348.53 543.96 1396.24 546.072 1446Z" fill="white"/>
<path d="M-70.3131 1462.06C-67.3046 1532.92 -44.5527 1589.23 -9.45235 1612.68C13.4663 1628.38 35.3616 1637.78 60.7158 1648.67C69.3759 1652.39 78.3338 1656.23 87.7457 1660.52C95.399 1664.24 103.268 1668.34 111.817 1673.07C139.494 1688.38 169.538 1708.57 206.369 1736.61C245.638 1766.03 287.134 1795.37 324.843 1802.62C361.571 1809.68 397.722 1798.46 432.294 1769.27C478.732 1731.1 508.774 1676.94 519.17 1612.64C528.773 1569.09 530.848 1522.41 531.586 1486.61C532.536 1471.5 532.706 1456.42 532.083 1441.74C530.022 1393.2 519.464 1346.1 498.864 1293.49C493.336 1280.02 487.088 1266.43 479.765 1251.97C460.113 1208.69 437.932 1165.43 411.944 1119.68C384.878 1069.73 354.14 1027.64 323.045 997.934C316.073 991.217 308.978 984.935 301.958 979.249C262.306 946.325 218.066 934.8 177.394 946.801C127.367 961.344 82.9272 1003.66 54.4542 1036.58C14.2211 1078.62 -5.60136 1127.43 -21.0334 1173.91C-33.6661 1208.89 -42.5516 1244.09 -52.0453 1283.18C-58.7233 1311.1 -60.7717 1331.97 -63.1456 1356.14C-64.2521 1367.42 -65.3984 1379.09 -67.1093 1392.5C-70.2016 1415.92 -71.2783 1439.32 -70.3131 1462.06ZM533.082 1441.7C533.707 1456.44 533.542 1471.57 532.591 1486.7C531.852 1522.55 529.771 1569.33 520.146 1612.98C509.701 1677.56 479.515 1732 432.857 1770.35C398.081 1799.72 361.694 1811 324.714 1803.88C286.829 1796.6 245.228 1767.2 205.872 1737.71C169.079 1709.7 139.071 1689.53 111.438 1674.24C102.9 1669.52 95.0445 1665.43 87.4199 1661.72C78.0256 1657.44 69.0721 1653.59 60.4164 1649.88C35.0182 1638.98 13.0833 1629.56 -9.90482 1613.81C-45.3303 1590.14 -68.2879 1533.43 -71.3163 1462.1C-72.2856 1439.27 -71.2041 1415.77 -68.1005 1392.26C-66.3929 1378.87 -65.2503 1367.22 -64.1434 1355.95C-61.7634 1331.72 -59.7085 1310.8 -53.0065 1282.78C-43.502 1243.64 -34.6029 1208.4 -21.953 1173.37C-6.47661 1126.76 13.4108 1077.8 53.7889 1035.6C82.3297 1002.59 126.916 960.159 177.148 945.546C218.09 933.469 262.603 945.056 302.486 978.173C309.53 983.875 316.646 990.186 323.639 996.916C354.817 1026.7 385.635 1068.9 412.759 1118.96C438.762 1164.73 460.959 1208.03 480.619 1251.32C487.944 1265.78 494.209 1279.4 499.758 1292.93C520.426 1345.71 531.014 1392.98 533.082 1441.7Z" fill="white"/>
<path d="M-58.2289 1465.08C-55.2629 1534.94 -33.923 1589.87 -1.14584 1612.02C22.7125 1628.61 45.0866 1637.86 70.9897 1648.57C78.0387 1651.49 85.3257 1654.51 92.9775 1657.8C100.374 1661.25 108.023 1665.06 116.377 1669.45C143.409 1683.66 172.698 1702.3 208.556 1728.11C246.699 1755.06 287.02 1781.89 323.834 1788.11C359.533 1794.16 394.516 1783.08 427.802 1755.18C473.845 1717.73 502.174 1664.68 509.73 1601.74C516.572 1564.86 518.013 1526.08 518.072 1479.19C518.742 1465.5 518.793 1451.78 518.224 1438.38C516.201 1390.73 506.431 1343.89 487.479 1290.98C482.447 1277.66 476.777 1264.31 470.154 1250.17C451.744 1205.44 431.392 1162.86 407.919 1119.97C383.038 1071.95 353.224 1031.21 321.687 1002.13C314.873 995.793 307.93 989.864 301.035 984.501C262.563 953.677 219.55 942.996 179.91 954.434C130.632 968.396 87.476 1008.54 59.9471 1039.77C22.1921 1078.07 3.36924 1122.18 -13.2856 1176.63C-24.6061 1210.28 -32.4144 1244.48 -40.6806 1280.69L-41.8392 1285.77C-47.7075 1311.89 -49.2317 1330.88 -50.9942 1352.88C-52.0102 1365.55 -53.0578 1378.65 -55.0462 1394.41C-58.1456 1418.06 -59.216 1441.83 -58.2289 1465.08ZM519.225 1438.34C519.796 1451.79 519.746 1465.56 519.075 1479.26C519.018 1526.2 517.571 1565.07 510.717 1602.01C503.121 1665.27 474.642 1718.62 428.361 1756.26C394.876 1784.33 359.669 1795.47 323.728 1789.38C286.735 1783.13 246.314 1756.24 208.082 1729.22C172.26 1703.44 143.004 1684.83 116.014 1670.63C107.673 1666.25 100.037 1662.45 92.6675 1659.01C85.0333 1655.72 77.7462 1652.7 70.7016 1649.79C44.7479 1639.06 22.3342 1629.79 -1.60442 1613.15C-34.7001 1590.78 -56.2457 1535.44 -59.2314 1465.12C-60.2224 1441.78 -59.1473 1417.91 -56.0388 1394.17C-54.055 1378.46 -53.0066 1365.38 -51.9942 1352.73C-50.2256 1330.67 -48.6975 1311.61 -42.8076 1285.39L-41.6428 1280.3C-33.3696 1244.05 -25.552 1209.81 -14.2138 1176.12C2.48975 1121.5 21.3838 1077.22 59.2904 1038.78C86.8833 1007.48 130.19 967.205 179.668 953.179C219.567 941.674 262.851 952.41 301.547 983.416C308.46 988.792 315.433 994.742 322.262 1001.1C353.898 1030.27 383.801 1071.13 408.748 1119.27C432.236 1162.19 452.609 1204.81 471.028 1249.57C477.649 1263.71 483.332 1277.09 488.387 1290.45C507.394 1343.54 517.195 1390.53 519.225 1438.34Z" fill="white"/>
<path d="M-45.2764 1468.18C-42.3675 1536.69 -22.442 1590.01 8.03121 1610.81C32.7953 1628.24 55.5764 1637.21 81.9536 1647.61C87.4477 1649.78 93.1376 1652.02 99.0786 1654.43C106.224 1657.6 113.652 1661.1 121.801 1665.13C148.165 1678.21 176.699 1695.26 211.598 1718.78C248.603 1743.2 287.742 1767.48 323.685 1772.64C358.359 1777.66 392.165 1766.74 424.162 1740.18C469.813 1703.54 496.439 1651.7 501.168 1590.27C506.522 1554.24 506.297 1516.74 505.451 1471.47C505.858 1459.4 505.801 1447.26 505.296 1435.36C503.31 1388.6 494.321 1341.95 476.999 1288.56C472.46 1275.44 467.376 1262.35 461.458 1248.58C444.597 1202.95 426.068 1161.14 404.813 1120.75C382.288 1075.22 352.614 1034.87 321.252 1007.09C314.603 1001.15 307.801 995.579 301.037 990.551C263.764 961.899 221.969 952.096 183.354 962.941C134.818 976.295 92.9421 1014.2 66.3601 1043.65C28.7994 1080.55 10.8191 1124.74 -4.6282 1179.75C-14.0022 1209.77 -20.4724 1240.23 -27.3208 1272.49C-28.4474 1277.79 -29.5809 1283.13 -30.7403 1288.52C-35.9533 1313.24 -37.0613 1331.62 -38.2317 1351.06C-39.049 1364.61 -39.8922 1378.62 -42.0981 1396.25C-45.2173 1420.17 -46.2875 1444.37 -45.2764 1468.18ZM506.302 1435.32C506.809 1447.26 506.857 1459.44 506.452 1471.51C507.301 1516.82 507.527 1554.38 502.161 1590.48C497.405 1652.25 470.624 1704.42 424.718 1741.26C392.527 1767.98 358.503 1778.96 323.594 1773.91C287.482 1768.73 248.247 1744.4 211.149 1719.92C176.285 1696.41 147.782 1679.38 121.456 1666.33C113.32 1662.3 105.903 1658.8 98.7799 1655.64C92.8585 1653.24 87.171 1651 81.6769 1648.84C55.2469 1638.42 32.4216 1629.42 7.56865 1611.93C-23.2188 1590.92 -43.3497 1537.2 -46.2782 1468.22C-47.2932 1444.31 -46.2206 1420.02 -43.0898 1396.01C-40.8924 1378.45 -40.0481 1364.46 -39.2318 1350.94C-38.0575 1331.43 -36.9456 1313 -31.7072 1288.16C-30.5501 1282.76 -29.4142 1277.43 -28.2897 1272.13C-21.4321 1239.84 -14.9572 1209.33 -5.56974 1179.27C9.93219 1124.07 27.9896 1079.71 65.7168 1042.65C92.3605 1013.13 134.38 975.101 183.117 961.688C221.984 950.773 264.039 960.631 301.531 989.451C308.317 994.49 315.141 1000.08 321.811 1006.05C353.283 1033.92 383.058 1074.41 405.651 1120.07C426.928 1160.5 445.478 1202.36 462.347 1248.02C468.265 1261.79 473.365 1274.91 477.919 1288.09C495.293 1341.62 504.31 1388.41 506.302 1435.32Z" fill="white"/>
<path d="M-32.309 1471.27C-29.4215 1539.28 -11.3634 1589.61 17.2358 1609.36C42.8291 1627.62 64.8079 1635.81 92.637 1646.17C96.6871 1647.68 100.86 1649.23 105.193 1650.87C112.106 1653.77 119.314 1656.97 127.235 1660.65C152.906 1672.6 180.679 1688.07 214.644 1709.36C248.912 1730.32 288.422 1753.03 323.519 1757.14C357.164 1761.13 389.793 1750.36 420.499 1725.13C465.74 1689.25 490.653 1638.58 492.558 1578.58C496.121 1545.75 494.699 1510.64 493.188 1473.48L492.782 1463.4C492.952 1453.21 492.822 1442.93 492.393 1432.81C490.435 1386.71 482.198 1339.94 466.464 1285.61C462.425 1272.66 457.922 1259.82 452.701 1246.41C437.368 1199.46 421.151 1159.56 401.644 1120.81C380.993 1076.87 352.273 1037.95 320.772 1011.22C314.285 1005.65 307.634 1000.44 300.987 995.737C264.922 969.223 224.358 960.278 186.765 970.546C138.973 983.299 98.3934 1019.01 72.771 1046.72C31.1937 1086.31 16.02 1135.35 4.03875 1182.19C-3.75247 1209.3 -9.08702 1236.77 -14.7359 1265.84C-16.3223 1274.02 -17.9304 1282.3 -19.6175 1290.7C-24.2852 1314.39 -24.9438 1331.55 -25.6438 1349.71C-26.1848 1363.84 -26.7485 1378.45 -29.1253 1397.62C-32.2352 1421.62 -33.3359 1447.09 -32.309 1471.27ZM493.393 1432.77C493.824 1442.92 493.957 1453.23 493.783 1463.42L494.189 1473.44C495.699 1510.67 497.127 1545.83 493.554 1578.73C491.643 1639.1 466.57 1690.12 421.046 1726.22C390.161 1751.59 357.325 1762.43 323.452 1758.41C288.19 1754.29 248.58 1731.52 214.221 1710.5C180.286 1689.24 152.545 1673.78 126.912 1661.86C119.002 1658.17 111.806 1654.98 104.916 1652.09C100.599 1650.46 96.426 1648.9 92.378 1647.4C64.4896 1637.01 42.4582 1628.81 16.7713 1610.48C-12.1463 1590.51 -30.4025 1539.78 -33.3098 1471.31C-34.3406 1447.04 -33.2354 1421.47 -30.1161 1397.39C-27.747 1378.29 -27.1862 1363.71 -26.644 1349.61C-25.9444 1331.39 -25.2797 1314.17 -20.5892 1290.36C-18.9023 1281.95 -17.2939 1273.68 -15.7093 1265.51C-10.0536 1236.39 -4.71171 1208.89 3.08907 1181.75C15.1168 1134.73 30.3553 1085.49 72.1361 1045.71C97.8227 1017.93 138.544 982.102 186.536 969.295C224.369 958.96 265.186 967.958 301.467 994.623C308.13 999.343 314.81 1004.57 321.312 1010.16C352.939 1037 381.771 1076.06 402.496 1120.15C422.022 1158.95 438.269 1198.91 453.612 1245.89C458.825 1259.31 463.342 1272.18 467.396 1285.18C483.171 1339.64 491.43 1386.53 493.393 1432.77Z" fill="white"/>
<path d="M-20.197 1475.16C-17.3901 1541.26 -0.670139 1589.72 25.6748 1608.09C52.0097 1627.09 73.0779 1634.39 102.24 1644.5C104.983 1645.45 107.794 1646.43 110.689 1647.44C117.394 1650.07 124.388 1652.96 132.089 1656.28C157.063 1667.06 184.121 1680.95 217.253 1699.98C258.443 1723.01 292.216 1738.91 323.106 1741.64C355.795 1744.58 387.301 1733.97 416.756 1710.1C461.67 1675.03 484.931 1625.57 484.028 1567.07C484.917 1553.44 484.969 1538.51 484.183 1520.02C483.615 1506.63 482.692 1493.05 481.712 1478.67C481.201 1471.11 480.68 1463.44 480.2 1455.65C480.193 1447.78 480.019 1439.83 479.686 1431.99C477.721 1385.72 470.415 1339.83 455.993 1283.18C452.5 1270.57 448.459 1257.65 443.988 1244.78C430.531 1197.39 416.064 1158.25 398.447 1121.57C379.536 1079.13 351.725 1041.71 320.126 1016.17C313.775 1010.97 307.254 1006.13 300.749 1001.78C265.842 977.425 226.44 969.355 189.785 979.04C142.633 991.185 103.282 1024.66 78.575 1050.61C37.0491 1088.82 23.3726 1136.12 11.964 1185.3C5.47353 1209.97 1.09966 1234.93 -3.53385 1261.36C-5.35835 1271.76 -7.24306 1282.52 -9.29456 1293.43C-13.5002 1316.3 -13.7464 1332.45 -14.0066 1349.54C-14.227 1364 -14.4528 1378.95 -16.9804 1399.42C-20.1462 1423.96 -21.2592 1450.15 -20.197 1475.16ZM485.185 1519.98C485.973 1538.53 485.921 1553.52 485.03 1567.15C485.938 1626.05 462.523 1675.88 417.302 1711.18C387.671 1735.2 355.963 1745.88 323.063 1742.91C292.021 1740.16 258.16 1724.23 216.864 1701.15C183.758 1682.13 156.728 1668.26 131.79 1657.49C124.098 1654.17 117.11 1651.28 110.43 1648.67C107.555 1647.66 104.739 1646.68 101.996 1645.73C72.7637 1635.6 51.6427 1628.28 25.2031 1609.2C-1.45606 1590.61 -18.3721 1541.76 -21.1987 1475.2C-22.2648 1450.1 -21.1472 1423.81 -17.9697 1399.19C-15.4556 1378.81 -15.228 1363.9 -15.0078 1349.49C-14.7463 1332.32 -14.5006 1316.11 -10.2683 1293.11C-8.22106 1282.2 -6.33592 1271.45 -4.51338 1261.06C0.125182 1234.59 4.50623 1209.59 11.008 1184.89C22.4582 1135.52 36.2013 1088 77.9499 1049.58C102.722 1023.58 142.215 989.988 189.561 977.789C226.445 968.045 266.095 976.158 301.207 1000.65C307.732 1005.02 314.276 1009.88 320.651 1015.1C352.389 1040.75 380.322 1078.34 399.307 1120.95C416.952 1157.69 431.45 1196.9 444.918 1244.33C449.386 1257.18 453.435 1270.13 456.943 1282.79C471.394 1339.56 478.716 1385.56 480.686 1431.95C481.02 1439.82 481.194 1447.78 481.2 1455.63C481.678 1463.37 482.196 1471.04 482.712 1478.59C483.69 1492.98 484.615 1506.57 485.185 1519.98Z" fill="white"/>
<path d="M474.979 1556.09C475.099 1549.58 475.002 1542.84 474.687 1535.42C473.958 1518.25 472.163 1500.42 470.266 1481.54C469.182 1470.76 468.056 1459.6 467.099 1448.17C466.997 1443.44 466.845 1438.69 466.645 1433.99C464.676 1387.63 458.012 1340.32 445.041 1280.62C442.038 1268.13 438.6 1255.46 434.818 1242.96C423.193 1194.48 410.886 1157.14 394.885 1121.86C377.684 1080.71 350.857 1044.68 319.337 1020.4C313.156 1015.57 306.791 1011.08 300.422 1007.05C266.3 984.486 229.175 977.448 193.048 986.708C146.673 998.254 108.682 1029.56 84.9749 1053.79C43.5895 1090.77 31.3898 1136.44 20.7188 1187.99C15.347 1210.65 11.8199 1233.57 8.08208 1257.82C6.18122 1270.16 4.21383 1282.91 1.94671 1295.97C-1.84048 1318.25 -1.68955 1333.59 -1.53086 1349.82C-1.38516 1364.48 -1.23553 1379.64 -3.87414 1401.27C-7.1052 1426.59 -8.23025 1453.74 -7.12379 1479.79C-4.40545 1543.8 10.9465 1590.28 34.9939 1607.32C61.8108 1627 81.7356 1633.38 111.896 1643.04L116.817 1644.62C123.31 1646.99 130.074 1649.58 137.513 1652.55C161.983 1662.31 187.476 1674.27 220.18 1691.36C259.9 1711.47 292.539 1725.23 322.703 1727C354.336 1728.92 384.626 1718.45 412.734 1695.89C455.958 1662.5 477.559 1615.69 475.216 1560.52C475.154 1559.05 475.078 1557.57 474.979 1556.09ZM475.689 1535.38C476.005 1542.83 476.099 1549.6 475.979 1556.08C476.07 1557.51 476.153 1559 476.216 1560.49C478.58 1616.14 456.818 1663.34 413.276 1696.98C385.001 1719.68 354.522 1730.21 322.681 1728.28C292.375 1726.5 259.648 1712.71 219.825 1692.54C187.145 1675.47 161.676 1663.51 137.237 1653.76C129.804 1650.8 123.049 1648.21 116.578 1645.85L111.673 1644.28C81.4312 1634.59 61.4518 1628.2 34.519 1608.43C10.1581 1591.17 -5.38542 1544.3 -8.12317 1479.83C-9.23351 1453.69 -8.10589 1426.44 -4.86137 1401.04C-2.23744 1379.51 -2.38686 1364.41 -2.53021 1349.81C-2.69022 1333.5 -2.84178 1318.09 0.969536 1295.67C3.23512 1282.62 5.19853 1269.88 7.09949 1257.54C10.8424 1233.26 14.379 1210.31 19.7579 1187.62C30.0801 1137.76 42.7893 1089.91 84.3659 1052.76C108.131 1028.48 146.264 997.051 192.832 985.448C229.182 976.137 266.538 983.218 300.854 1005.91C307.244 1009.95 313.635 1014.46 319.841 1019.3C351.515 1043.71 378.477 1079.92 395.757 1121.26C411.788 1156.61 424.128 1194.03 435.757 1242.56C439.543 1255.05 442.989 1267.76 445.998 1280.29C458.997 1340.11 465.672 1387.49 467.645 1433.95C467.845 1438.66 467.995 1443.42 468.097 1448.11C469.05 1459.48 470.173 1470.63 471.259 1481.41C473.162 1500.31 474.953 1518.16 475.689 1535.38Z" fill="white"/>
<path d="M5.08427 1484.43C7.69363 1545.87 21.7181 1590.11 43.5586 1605.81C70.698 1626 89.3554 1631.41 120.257 1640.38L122.374 1640.99C128.694 1643.11 135.244 1645.4 142.413 1648C165.984 1656.55 190.766 1667 222.762 1681.87C255.906 1696.75 290.892 1710.63 322.185 1711.45C352.849 1712.33 381.992 1702.01 408.817 1680.78C449.173 1650.04 469.383 1607.45 467.266 1557.59C467.081 1553.24 466.726 1548.79 466.203 1544.35C466.17 1543.37 466.134 1542.47 466.095 1541.55C465.292 1522.66 462.525 1502.72 459.592 1481.6C457.74 1468.26 455.823 1454.46 454.274 1440.04C451.665 1380.14 442.723 1324.31 434.329 1277.59C431.823 1265.21 428.978 1252.79 425.865 1240.69C419.432 1207.84 409.723 1164.67 391.469 1121.84C376.094 1082.51 349.51 1047.01 318.53 1024.43C312.501 1019.98 306.279 1015.85 300.034 1012.16C267.153 991.744 231.185 985.55 196.008 994.224C150.288 1005.18 113.57 1034.3 90.8196 1056.8C49.5141 1092.5 38.2744 1138.41 28.75 1190.36C24.3249 1211.28 21.5227 1232.41 18.5553 1254.78C16.7039 1268.74 14.7886 1283.17 12.3976 1298.09C8.98092 1319.89 9.50965 1334.52 10.0684 1350.01C10.6003 1364.72 11.1518 1379.94 8.416 1402.58C5.12782 1428.52 3.94411 1457.59 5.08427 1484.43ZM468.265 1557.55C470.404 1607.9 450.029 1650.89 409.349 1681.87C382.376 1703.23 353.046 1713.61 322.186 1712.73C290.754 1711.9 255.677 1697.99 222.447 1683.07C190.468 1668.21 165.706 1657.77 142.158 1649.22C135 1646.63 128.457 1644.34 122.159 1642.23L120.06 1641.62C89.0599 1632.63 70.3479 1627.2 43.079 1606.91C20.9294 1590.99 6.71361 1546.36 4.08494 1484.47C2.94101 1457.54 4.12711 1428.38 7.42689 1402.35C10.1489 1379.84 9.60028 1364.69 9.07076 1350.04C8.50642 1334.47 7.97684 1319.76 11.4169 1297.8C13.8065 1282.91 15.7204 1268.49 17.5678 1254.54C20.5404 1232.14 23.3458 1210.98 27.7777 1190.02C37.3461 1137.83 48.6513 1091.69 90.2186 1055.75C113.029 1033.19 149.887 1003.96 195.8 992.975C231.186 984.245 267.374 990.48 300.447 1011C306.707 1014.71 312.96 1018.85 319.014 1023.33C350.167 1046.03 376.898 1081.73 392.353 1121.27C410.654 1164.21 420.388 1207.48 426.826 1240.37C429.934 1252.45 432.786 1264.89 435.299 1277.31C443.708 1324.1 452.658 1380 455.271 1439.94C456.814 1454.29 458.726 1468.08 460.578 1481.41C463.658 1503.58 466.556 1524.47 467.198 1544.26C467.715 1548.67 468.079 1553.16 468.265 1557.55Z" fill="white"/>
<path d="M18.2624 1490.58C19.7203 1524.9 26.1896 1585.41 53.128 1605.08C80.3494 1625.61 97.5628 1630.06 128.815 1638.13C135.117 1640.02 141.446 1642.01 148.279 1644.23C177.013 1653.57 205.062 1664.6 226.293 1673.17C258.151 1685.53 291.874 1696.94 322.571 1696.69C352.272 1696.52 380.264 1686.35 405.774 1666.46C443.519 1638.12 462.453 1599.3 460.536 1554.18C460.249 1547.42 459.497 1540.43 458.291 1533.41C456.823 1516.77 453.626 1499.29 450.242 1480.78C447.442 1465.47 444.55 1449.64 442.311 1432.72C438.894 1382.73 432.715 1333.68 424.488 1275.39C422.484 1263.09 420.228 1250.93 417.785 1239.27C412.485 1204.19 404.908 1162.94 388.931 1122.67C375.086 1084.48 349.461 1050.46 318.631 1029.32C312.76 1025.25 306.681 1021.47 300.556 1018.11C268.951 999.87 234.154 994.509 199.912 1002.61C154.841 1012.95 119.421 1039.88 97.6415 1060.65C56.3538 1095.19 46.4464 1139.38 37.7828 1193.57C34.1824 1212.98 32.0211 1232.56 29.7321 1253.3C28.0416 1268.63 26.2913 1284.49 23.8625 1301.02C21.4516 1317.77 21.5469 1329.81 21.9534 1339.38C22.1246 1343.41 22.367 1347.24 22.6258 1351.3C22.8825 1355.31 23.15 1359.48 23.3336 1363.8C23.7337 1373.22 23.9111 1386.38 21.7156 1404.7C18.292 1431.93 17.0667 1462.43 18.2624 1490.58ZM461.537 1554.14C463.475 1599.76 444.377 1638.97 406.299 1667.56C381.006 1687.28 352.061 1697.8 322.601 1697.97C291.769 1698.22 257.961 1686.78 226.017 1674.39C204.795 1665.82 176.768 1654.8 148.054 1645.47C141.23 1643.25 134.905 1641.26 128.714 1639.4C97.2786 1631.28 80.004 1626.82 52.6422 1606.18C25.2832 1586.21 18.7326 1525.2 17.2634 1490.62C16.064 1462.38 17.294 1431.79 20.7268 1404.47C22.9102 1386.27 22.7345 1373.2 22.3369 1363.84C22.1539 1359.53 21.8851 1355.39 21.6282 1351.37C21.3813 1347.49 21.1242 1343.47 20.9524 1339.42C20.5426 1329.77 20.45 1317.64 22.8788 1300.76C25.3067 1284.25 27.0552 1268.41 28.744 1253.08C31.0322 1232.33 33.1964 1212.71 36.8082 1193.27C45.5099 1138.81 55.4827 1094.38 97.0553 1059.59C118.893 1038.76 154.457 1011.73 199.712 1001.35C234.151 993.204 269.158 998.593 300.944 1016.95C307.089 1020.31 313.193 1024.11 319.09 1028.2C350.116 1049.47 375.901 1083.71 389.822 1122.13C405.859 1162.53 413.451 1203.89 418.76 1239.01C421.204 1250.65 423.455 1262.83 425.469 1275.17C433.705 1333.52 439.885 1382.6 443.306 1432.59C445.531 1449.42 448.421 1465.22 451.216 1480.51C454.607 1499.06 457.814 1516.58 459.278 1533.23C460.482 1540.25 461.247 1547.31 461.537 1554.14Z" fill="white"/>
<path d="M30.5861 1497.13C32.9544 1552.88 44.0872 1590.88 61.9332 1604.13C89.0159 1624.87 105.258 1628.52 134.738 1635.14C140.924 1636.78 147.043 1638.47 153.463 1640.3C179.77 1647.8 205.411 1656.28 229.201 1664.33C258.297 1673.75 292.138 1683.19 322.432 1681.82C350.802 1680.61 378.41 1670.3 402.279 1652C438.185 1625.43 455.492 1590.91 453.728 1549.39C453.354 1540.6 452.089 1531.45 449.97 1522.18C447.888 1508.22 444.49 1493.64 440.891 1478.19C436.978 1461.4 432.933 1444.03 429.929 1425C427.085 1395.5 424.011 1366.35 420.754 1335.48C418.593 1315.03 416.363 1293.89 414.201 1272.6C412.707 1260.29 411.043 1248.38 409.258 1237.2C405.325 1200.16 399.778 1160.7 385.911 1122.74C373.543 1085.57 348.857 1053 318.19 1033.35C312.466 1029.64 306.526 1026.22 300.527 1023.19C270.203 1007.09 236.536 1002.55 203.175 1010.09C158.685 1019.84 124.541 1044.6 103.731 1063.67C62.4078 1097.11 53.7538 1139.65 46.0354 1196.09C43.1493 1214.18 41.558 1232.43 39.8739 1251.75C38.43 1268.29 36.9389 1285.4 34.5323 1303.4C33.0723 1314.54 32.6021 1324.59 33.0458 1335.04C33.3015 1341.06 33.8101 1346.53 34.3494 1352.32C34.8909 1358.1 35.4497 1364.1 35.7298 1370.69C36.2207 1382.25 35.7425 1393.59 34.2189 1406.37C30.6713 1434.9 29.3474 1467.97 30.5861 1497.13ZM454.729 1549.35C456.515 1591.39 439.041 1626.29 402.796 1653.1C378.8 1671.51 351.024 1681.88 322.491 1683.09C292.067 1684.47 258.143 1675.01 228.967 1665.57C205.187 1657.52 179.557 1649.04 153.268 1641.54C146.852 1639.72 140.735 1638.03 134.575 1636.39C104.985 1629.75 88.6793 1626.09 61.4404 1605.23C43.2895 1591.75 31.9743 1553.37 29.5867 1497.17C28.3444 1467.93 29.6728 1434.75 33.2319 1406.15C34.74 1393.45 35.2198 1382.2 34.7326 1370.73C34.4544 1364.18 33.8965 1358.21 33.3578 1352.44C32.8155 1346.63 32.3017 1341.14 32.0443 1335.08C31.5964 1324.53 32.0739 1314.39 33.5469 1303.16C35.9464 1285.19 37.4382 1268.1 38.8787 1251.58C40.5656 1232.23 42.1603 1213.96 45.0489 1195.82C52.8107 1139.09 61.5213 1096.3 103.16 1062.6C124.03 1043.48 158.309 1018.62 202.981 1008.84C236.532 1001.25 270.386 1005.81 300.885 1022.01C306.903 1025.05 312.872 1028.48 318.625 1032.21C349.505 1052 374.365 1084.81 386.828 1122.23C400.738 1160.34 406.305 1199.92 410.247 1237.02C412.028 1248.17 413.694 1260.1 415.194 1272.45C417.354 1293.76 419.588 1314.9 421.744 1335.34C425.002 1366.21 428.08 1395.36 430.916 1424.83C433.905 1443.75 437.944 1461.08 441.848 1477.85C445.454 1493.33 448.86 1507.95 450.942 1521.91C453.074 1531.21 454.351 1540.46 454.729 1549.35Z" fill="white"/>
<path d="M246.806 1013.23C248.341 1013.24 249.691 1013.62 250.854 1014.36C252.032 1015.11 252.94 1016.17 253.578 1017.55C254.23 1018.91 254.562 1020.49 254.576 1022.29C254.589 1024.09 254.28 1025.67 253.648 1027.02C253.03 1028.35 252.138 1029.39 250.971 1030.11C249.819 1030.84 248.475 1031.2 246.94 1031.19L241.833 1031.15L241.699 1013.19L246.806 1013.23ZM246.812 1028.13C248.347 1028.14 249.53 1027.63 250.359 1026.61C251.189 1025.59 251.597 1024.14 251.583 1022.27C251.569 1020.4 251.139 1018.94 250.294 1017.88C249.449 1016.81 248.259 1016.27 246.724 1016.26L244.652 1016.25L244.74 1028.11L246.812 1028.13ZM258.203 1015.32C257.687 1015.31 257.253 1015.11 256.901 1014.72C256.563 1014.3 256.392 1013.79 256.388 1013.19C256.383 1012.59 256.547 1012.1 256.879 1011.7C257.225 1011.3 257.656 1011.09 258.172 1011.1C258.688 1011.1 259.115 1011.31 259.453 1011.72C259.805 1012.12 259.983 1012.62 259.988 1013.22C259.992 1013.82 259.822 1014.33 259.476 1014.74C259.144 1015.13 258.72 1015.32 258.203 1015.32ZM259.66 1017.03L259.766 1031.29L256.836 1031.26L256.73 1017.01L259.66 1017.03ZM265.502 1019.28C265.873 1018.53 266.357 1017.94 266.954 1017.52C267.565 1017.09 268.261 1016.88 269.042 1016.89L269.071 1020.67L268.296 1020.67C267.375 1020.66 266.679 1020.92 266.209 1021.45C265.752 1021.98 265.529 1022.9 265.539 1024.23L265.592 1031.33L262.661 1031.31L262.555 1017.05L265.486 1017.07L265.502 1019.28ZM281.848 1024.01C281.852 1024.53 281.827 1024.99 281.774 1025.4L273.297 1025.34C273.375 1026.37 273.674 1027.18 274.194 1027.76C274.715 1028.35 275.352 1028.65 276.106 1028.65C277.194 1028.66 277.964 1028.09 278.416 1026.95L281.577 1026.97C281.252 1028.34 280.619 1029.47 279.676 1030.35C278.734 1031.22 277.572 1031.65 276.191 1031.64C275.074 1031.63 274.067 1031.32 273.17 1030.72C272.286 1030.09 271.589 1029.22 271.078 1028.1C270.582 1026.98 270.328 1025.69 270.317 1024.24C270.306 1022.76 270.541 1021.47 271.021 1020.35C271.501 1019.24 272.178 1018.39 273.053 1017.8C273.928 1017.2 274.937 1016.91 276.081 1016.92C277.184 1016.93 278.169 1017.22 279.039 1017.81C279.922 1018.4 280.605 1019.24 281.088 1020.33C281.584 1021.39 281.837 1022.62 281.848 1024.01ZM278.805 1022.96C278.784 1022.03 278.507 1021.29 277.972 1020.74C277.438 1020.17 276.787 1019.88 276.019 1019.88C275.294 1019.87 274.682 1020.14 274.184 1020.69C273.699 1021.21 273.405 1021.96 273.3 1022.92L278.805 1022.96ZM283.235 1024.33C283.224 1022.85 283.459 1021.57 283.939 1020.48C284.419 1019.36 285.09 1018.51 285.95 1017.92C286.811 1017.31 287.799 1017 288.916 1017.01C290.353 1017.02 291.542 1017.48 292.484 1018.38C293.439 1019.26 294.083 1020.5 294.416 1022.1L291.256 1022.07C291.084 1021.45 290.794 1020.97 290.387 1020.63C289.993 1020.26 289.504 1020.08 288.918 1020.07C288.08 1020.07 287.42 1020.44 286.937 1021.19C286.455 1021.93 286.218 1022.98 286.228 1024.35C286.239 1025.71 286.491 1026.77 286.985 1027.52C287.478 1028.27 288.144 1028.64 288.981 1028.65C290.167 1028.65 290.937 1028.01 291.29 1026.71L294.451 1026.73C294.141 1028.27 293.515 1029.49 292.573 1030.4C291.631 1031.3 290.448 1031.74 289.025 1031.73C287.909 1031.73 286.916 1031.42 286.046 1030.81C285.176 1030.19 284.493 1029.32 283.997 1028.22C283.5 1027.1 283.246 1025.81 283.235 1024.33ZM299.961 1020.28L300.012 1027.18C300.016 1027.66 300.109 1028.02 300.292 1028.24C300.489 1028.45 300.811 1028.55 301.257 1028.56L302.618 1028.57L302.64 1031.6L300.798 1031.59C298.328 1031.57 297.083 1030.09 297.061 1027.14L297.01 1020.26L295.628 1020.25L295.606 1017.29L296.988 1017.3L296.961 1013.78L299.913 1013.8L299.939 1017.32L302.534 1017.34L302.556 1020.3L299.961 1020.28ZM306.115 1015.67C305.599 1015.67 305.165 1015.47 304.813 1015.07C304.475 1014.66 304.304 1014.15 304.3 1013.55C304.295 1012.95 304.459 1012.45 304.791 1012.06C305.137 1011.65 305.568 1011.45 306.084 1011.45C306.6 1011.45 307.027 1011.66 307.365 1012.08C307.717 1012.48 307.895 1012.97 307.9 1013.57C307.904 1014.18 307.733 1014.68 307.388 1015.09C307.056 1015.48 306.632 1015.68 306.115 1015.67ZM307.572 1017.38L307.678 1031.64L304.748 1031.62L304.642 1017.36L307.572 1017.38ZM315.724 1031.93C314.608 1031.92 313.601 1031.62 312.703 1031.01C311.806 1030.38 311.094 1029.51 310.57 1028.39C310.059 1027.27 309.799 1025.99 309.788 1024.53C309.777 1023.07 310.025 1021.78 310.533 1020.67C311.055 1019.56 311.768 1018.71 312.67 1018.11C313.573 1017.5 314.582 1017.2 315.698 1017.21C316.815 1017.22 317.829 1017.53 318.74 1018.16C319.652 1018.77 320.37 1019.63 320.894 1020.75C321.433 1021.87 321.707 1023.16 321.718 1024.61C321.729 1026.07 321.467 1027.36 320.931 1028.47C320.409 1029.58 319.69 1030.44 318.773 1031.05C317.871 1031.65 316.854 1031.94 315.724 1031.93ZM315.701 1028.79C316.231 1028.8 316.725 1028.64 317.183 1028.34C317.655 1028.02 318.028 1027.54 318.303 1026.91C318.577 1026.27 318.711 1025.5 318.704 1024.59C318.694 1023.24 318.393 1022.2 317.802 1021.47C317.224 1020.73 316.517 1020.36 315.68 1020.35C314.843 1020.34 314.141 1020.71 313.574 1021.44C313.021 1022.16 312.75 1023.19 312.76 1024.55C312.77 1025.9 313.05 1026.95 313.599 1027.69C314.163 1028.42 314.863 1028.79 315.701 1028.79ZM330.239 1017.34C331.62 1017.35 332.741 1017.9 333.6 1018.99C334.459 1020.06 334.896 1021.56 334.91 1023.48L334.972 1031.84L332.042 1031.82L331.983 1023.94C331.975 1022.81 331.738 1021.94 331.273 1021.34C330.808 1020.72 330.178 1020.41 329.383 1020.4C328.573 1020.39 327.934 1020.7 327.464 1021.31C327.008 1021.91 326.784 1022.77 326.793 1023.91L326.851 1031.78L323.921 1031.76L323.815 1017.5L326.745 1017.52L326.758 1019.3C327.144 1018.68 327.636 1018.21 328.234 1017.87C328.845 1017.51 329.513 1017.34 330.239 1017.34ZM342.198 1032.13C341.249 1032.12 340.396 1031.91 339.64 1031.49C338.883 1031.06 338.279 1030.48 337.827 1029.75C337.389 1029.03 337.146 1028.23 337.097 1027.35L340.049 1027.38C340.108 1027.92 340.328 1028.38 340.708 1028.74C341.101 1029.11 341.584 1029.29 342.156 1029.3C342.714 1029.3 343.146 1029.17 343.45 1028.89C343.769 1028.62 343.927 1028.27 343.924 1027.84C343.921 1027.38 343.723 1027.03 343.33 1026.81C342.952 1026.56 342.343 1026.3 341.504 1026.02C340.637 1025.76 339.923 1025.49 339.363 1025.21C338.817 1024.93 338.339 1024.51 337.93 1023.94C337.535 1023.37 337.334 1022.6 337.327 1021.64C337.321 1020.85 337.497 1020.13 337.855 1019.48C338.227 1018.83 338.753 1018.32 339.434 1017.95C340.129 1017.58 340.944 1017.4 341.879 1017.4C343.261 1017.41 344.366 1017.85 345.196 1018.71C346.025 1019.56 346.487 1020.71 346.582 1022.15L343.777 1022.13C343.731 1021.56 343.532 1021.11 343.181 1020.78C342.843 1020.44 342.389 1020.26 341.817 1020.26C341.286 1020.26 340.876 1020.37 340.584 1020.61C340.307 1020.85 340.17 1021.18 340.173 1021.61C340.177 1022.09 340.375 1022.46 340.767 1022.72C341.16 1022.97 341.769 1023.22 342.594 1023.48C343.433 1023.75 344.126 1024.02 344.672 1024.3C345.218 1024.57 345.689 1025.01 346.084 1025.59C346.493 1026.16 346.708 1026.92 346.729 1027.86C346.735 1028.69 346.552 1029.42 346.18 1030.07C345.822 1030.72 345.296 1031.23 344.601 1031.6C343.92 1031.96 343.119 1032.13 342.198 1032.13Z" fill="black"/>
<path d="M713.088 1352.73C713.089 1351.1 713.468 1349.65 714.226 1348.36C715 1347.06 716.047 1346.06 717.364 1345.34C718.698 1344.61 720.189 1344.24 721.835 1344.23C723.762 1344.23 725.45 1344.7 726.899 1345.64C728.347 1346.58 729.36 1347.89 729.935 1349.57L725.958 1349.58C725.564 1348.79 725.004 1348.2 724.279 1347.81C723.572 1347.41 722.748 1347.22 721.81 1347.22C720.805 1347.23 719.908 1347.46 719.117 1347.92C718.343 1348.37 717.733 1349 717.288 1349.82C716.86 1350.65 716.646 1351.61 716.645 1352.72C716.645 1353.81 716.858 1354.78 717.286 1355.61C717.731 1356.43 718.34 1357.07 719.113 1357.53C719.904 1357.97 720.801 1358.19 721.806 1358.18C722.744 1358.18 723.568 1357.98 724.276 1357.58C725.001 1357.17 725.561 1356.57 725.956 1355.77L729.933 1355.76C729.356 1357.46 728.343 1358.78 726.893 1359.73C725.46 1360.67 723.772 1361.14 721.829 1361.15C720.182 1361.16 718.692 1360.81 717.359 1360.1C716.042 1359.37 714.996 1358.37 714.223 1357.09C713.466 1355.82 713.088 1354.36 713.088 1352.73ZM731.998 1354.36C731.998 1353.03 732.271 1351.85 732.814 1350.82C733.375 1349.79 734.124 1348.99 735.063 1348.44C736.018 1347.88 737.081 1347.6 738.25 1347.6C739.271 1347.59 740.16 1347.79 740.917 1348.18C741.691 1348.57 742.308 1349.07 742.769 1349.67L742.77 1347.8L746.253 1347.78L746.248 1360.93L742.765 1360.94L742.766 1359.02C742.321 1359.64 741.703 1360.15 740.913 1360.57C740.138 1360.96 739.241 1361.17 738.22 1361.17C737.067 1361.17 736.013 1360.89 735.059 1360.32C734.12 1359.76 733.371 1358.96 732.812 1357.94C732.269 1356.89 731.997 1355.7 731.998 1354.36ZM742.767 1354.37C742.768 1353.56 742.603 1352.87 742.274 1352.31C741.945 1351.72 741.501 1351.28 740.941 1350.98C740.381 1350.67 739.78 1350.51 739.138 1350.51C738.496 1350.51 737.903 1350.67 737.359 1350.97C736.816 1351.27 736.371 1351.72 736.025 1352.3C735.695 1352.87 735.53 1353.55 735.53 1354.34C735.53 1355.13 735.694 1355.83 736.023 1356.43C736.369 1357.01 736.813 1357.46 737.357 1357.78C737.916 1358.09 738.509 1358.25 739.135 1358.25C739.777 1358.25 740.378 1358.09 740.938 1357.79C741.498 1357.47 741.943 1357.03 742.273 1356.46C742.602 1355.87 742.767 1355.17 742.767 1354.37ZM753.087 1349.8C753.532 1349.1 754.109 1348.56 754.817 1348.16C755.542 1347.76 756.365 1347.56 757.287 1347.56L757.286 1351.05L756.372 1351.05C755.285 1351.05 754.462 1351.3 753.902 1351.79C753.358 1352.28 753.086 1353.14 753.086 1354.36L753.083 1360.91L749.625 1360.92L749.63 1347.77L753.088 1347.76L753.087 1349.8ZM763.074 1349.65C763.519 1349.02 764.128 1348.5 764.902 1348.1C765.693 1347.7 766.59 1347.5 767.595 1347.5C768.764 1347.5 769.818 1347.77 770.756 1348.32C771.711 1348.87 772.46 1349.66 773.003 1350.69C773.563 1351.7 773.842 1352.87 773.842 1354.22C773.841 1355.56 773.561 1356.76 773.001 1357.8C772.457 1358.83 771.707 1359.64 770.752 1360.21C769.813 1360.78 768.759 1361.07 767.59 1361.07C766.569 1361.08 765.672 1360.89 764.898 1360.51C764.14 1360.12 763.531 1359.62 763.07 1359L763.07 1360.87L759.612 1360.89L759.618 1343.33L763.076 1343.32L763.074 1349.65ZM770.31 1354.23C770.31 1353.44 770.137 1352.76 769.792 1352.19C769.462 1351.61 769.018 1351.17 768.458 1350.87C767.915 1350.57 767.322 1350.42 766.68 1350.42C766.054 1350.42 765.461 1350.58 764.901 1350.9C764.358 1351.21 763.913 1351.65 763.567 1352.24C763.237 1352.82 763.072 1353.51 763.072 1354.3C763.072 1355.09 763.236 1355.78 763.565 1356.36C763.911 1356.95 764.355 1357.4 764.899 1357.71C765.459 1358.01 766.051 1358.16 766.677 1358.16C767.319 1358.16 767.912 1358 768.456 1357.68C769.016 1357.36 769.46 1356.91 769.79 1356.32C770.136 1355.73 770.309 1355.04 770.31 1354.23ZM781.589 1361.03C780.469 1361.03 779.464 1360.84 778.575 1360.47C777.686 1360.08 776.978 1359.55 776.452 1358.89C775.941 1358.22 775.662 1357.49 775.613 1356.68L779.096 1356.67C779.161 1357.18 779.416 1357.59 779.861 1357.92C780.322 1358.26 780.89 1358.42 781.565 1358.42C782.224 1358.42 782.734 1358.29 783.097 1358.03C783.475 1357.78 783.665 1357.45 783.665 1357.06C783.665 1356.63 783.435 1356.32 782.974 1356.11C782.529 1355.89 781.813 1355.66 780.825 1355.41C779.804 1355.17 778.964 1354.93 778.306 1354.68C777.664 1354.43 777.104 1354.04 776.627 1353.52C776.166 1353 775.935 1352.3 775.936 1351.41C775.936 1350.68 776.15 1350.02 776.579 1349.42C777.024 1348.81 777.649 1348.34 778.456 1347.99C779.28 1347.64 780.243 1347.46 781.347 1347.46C782.977 1347.45 784.278 1347.84 785.249 1348.63C786.22 1349.4 786.755 1350.45 786.853 1351.78L783.543 1351.79C783.494 1351.27 783.264 1350.86 782.852 1350.56C782.457 1350.24 781.922 1350.09 781.247 1350.09C780.621 1350.09 780.135 1350.2 779.789 1350.43C779.46 1350.65 779.295 1350.96 779.295 1351.35C779.295 1351.8 779.525 1352.14 779.986 1352.37C780.447 1352.59 781.164 1352.82 782.135 1353.05C783.123 1353.29 783.938 1353.53 784.58 1353.78C785.222 1354.03 785.774 1354.43 786.235 1354.96C786.712 1355.48 786.959 1356.18 786.975 1357.05C786.975 1357.81 786.752 1358.49 786.307 1359.09C785.879 1359.69 785.253 1360.17 784.429 1360.52C783.622 1360.85 782.675 1361.02 781.589 1361.03Z" fill="black"/>
</svg>
