<svg width="912" height="1546" viewBox="0 0 912 1546" fill="none" xmlns="http://www.w3.org/2000/svg">
<path d="M1037.69 1100.04C1068.11 1118.08 1091.15 1129.09 1112.41 1135.74C1194.02 1160.1 1290.07 1120.81 1357.1 1035.64C1390.13 992.744 1407.97 944.719 1408.68 896.76C1408.93 854.751 1395.62 806.221 1366.77 744.032C1346.67 701.321 1319.27 658.149 1280.54 608.168C1241.14 557.658 1205.68 523.8 1165.59 498.39C1163.76 497.249 1161.92 496.127 1159.95 494.963C1113.48 467.396 1032.55 435.311 943.447 409.136C852.888 382.531 771.05 367.333 724.531 368.481C610.628 351.973 599.753 395.481 583.286 461.335C575.983 490.548 567.702 523.655 549.351 558.711C536.1 584.005 523.795 606.31 512.938 625.992C460.797 720.502 436.995 763.634 470.518 846.759C478.998 866.467 495.883 883.926 520.693 898.644C540.25 910.245 564.896 920.248 593.952 928.376C620.35 935.684 648.416 941.905 678.13 948.491C717.211 957.152 757.621 966.106 799.968 978.729C850.277 993.9 901.291 1017.03 955.928 1049.44C964.037 1054.25 972.47 1059.41 980.991 1064.78C984.82 1067.19 988.615 1069.59 992.374 1071.96C1008.15 1081.94 1023.06 1091.36 1037.69 1100.04ZM1160.27 494.449C1162.24 495.618 1164.1 496.745 1165.94 497.894C1206.19 523.4 1241.75 557.354 1281.25 607.992C1320.03 658.035 1347.47 701.266 1367.6 744.041C1396.49 806.327 1409.82 854.942 1409.57 897.041C1408.86 945.097 1390.99 993.205 1357.9 1036.17C1290.73 1121.52 1194.37 1160.86 1112.41 1136.4C1091.03 1129.71 1067.89 1118.66 1037.38 1100.55C1022.72 1091.86 1007.81 1082.44 992.019 1072.46C988.261 1070.08 984.469 1067.68 980.64 1065.27C972.129 1059.91 963.709 1054.76 955.61 1049.96C901.08 1017.61 850.174 994.527 799.977 979.387C757.683 966.783 717.298 957.833 678.236 949.176C648.506 942.589 620.426 936.366 593.993 929.046C564.811 920.883 540.045 910.828 520.376 899.16C495.314 884.293 478.259 866.651 469.68 846.718C453.379 806.298 450.031 774.593 458.493 740.701C466.704 707.792 485.744 673.28 512.096 625.514C522.952 605.835 535.26 583.531 548.504 558.238C566.837 523.229 575.109 490.14 582.408 460.95C590.908 426.96 597.619 400.109 616.689 383.098C637.304 364.701 670.477 359.976 724.254 367.775C770.785 366.615 852.753 381.833 943.427 408.47C1032.64 434.68 1113.7 466.822 1160.27 494.449Z" fill="white"/>
<path d="M1354.64 -22.0119C1353.3 -22.8429 1351.96 -23.651 1350.57 -24.4727C1295.91 -56.8975 1195.65 -87.9845 1082.38 -107.614C967.109 -127.6 860.298 -131.455 796.656 -117.926C646.972 -115.737 619.513 -42.9803 577.955 67.154C559.981 114.777 539.609 168.755 505.945 228.11C481.52 271.445 459.087 309.916 439.298 343.857C343.293 508.508 299.476 583.657 321.765 709.371C327.883 742.09 347.668 768.578 380.585 788.104C402.659 801.199 430.781 811.23 464.168 817.914C504.422 827.655 548.774 834.11 595.729 840.94C639.85 847.358 685.477 853.998 732.356 863.972C829.295 885.255 909.346 927.776 961.125 957.909L970.141 963.412C981.086 970.091 991.424 976.401 1001.79 982.551C1045.89 1008.71 1083.29 1027.49 1122.47 1034.09C1226.29 1051.1 1366.57 963.841 1479.85 811.796C1538.29 734.277 1577.05 652.533 1591.94 575.408C1604.86 506.865 1600.53 431.055 1578.29 336.832C1562.21 267.974 1534.58 201.281 1491.35 126.951C1449.01 54.8968 1407.02 9.05832 1355.2 -21.6753L1354.64 -22.0119ZM1351.15 -25.4181C1352.54 -24.5929 1353.89 -23.7803 1355.22 -22.9454L1355.78 -22.6185C1407.79 8.23116 1449.91 54.2061 1492.37 126.451C1535.66 200.882 1563.33 267.674 1579.44 336.642C1601.71 431.017 1606.05 506.97 1593.09 575.668C1578.18 652.948 1539.35 734.836 1480.82 812.48C1367.3 964.853 1226.58 1052.27 1122.33 1035.2C1082.95 1028.55 1045.43 1009.73 1001.21 983.496C990.835 977.342 980.496 971.028 969.545 964.346L960.542 958.853C908.847 928.771 828.917 886.31 732.16 865.063C685.323 855.103 639.718 848.465 595.614 842.046C548.632 835.213 504.252 828.755 463.971 819.007C430.463 812.298 402.207 802.216 380.006 789.046C346.777 769.335 326.788 742.573 320.614 709.505C298.248 583.4 342.125 508.148 438.262 343.27C458.05 309.331 480.479 270.867 504.906 227.532C538.531 168.249 558.886 114.308 576.844 66.7226C598.295 9.87676 615.238 -35.0217 646.074 -67.2195C679.408 -102.026 725.792 -118.006 796.456 -119.036C860.123 -132.58 967.116 -128.726 1082.52 -108.719C1195.94 -89.0624 1296.37 -57.9182 1351.15 -25.4181Z" fill="white"/>
<path d="M398.107 770.796C418.003 782.598 442.56 792.154 471.088 799.202C517.763 814.87 570.738 825.76 626.825 837.289C661.83 844.486 698.025 851.927 734.958 860.972C825.584 883.981 901.761 920.15 964.328 952.497L967.904 954.53C1023.7 986.27 1071.9 1013.68 1123.66 1020.73C1224.55 1035.38 1361.12 951.369 1471.6 806.704C1531.89 730.726 1570.6 654.094 1586.66 578.921C1600.64 512.89 1597.26 436.545 1576.33 345.518C1560.78 274.757 1531.08 204.209 1485.51 129.841C1442.05 59.6424 1396.9 14.0691 1342.08 -14.9811L1340.89 -15.6903C1288.68 -46.6636 1191.9 -76.3814 1082.04 -95.1857C970.077 -114.347 865.989 -118.004 803.594 -104.973C657.923 -102.706 629.823 -32.5512 587.289 73.6433C569.411 118.272 549.147 168.854 516.808 224.339C493.214 265.333 471.491 301.832 452.328 334.038C358.171 492.267 315.196 564.482 335.673 686.088C341.374 721.101 362.38 749.603 398.107 770.796ZM1355.11 -8.93482C1404.51 20.3704 1446.27 64.3018 1486.52 129.314C1532.15 203.798 1561.91 274.461 1577.48 345.338C1598.44 436.52 1601.82 513.017 1587.81 579.203C1571.72 654.532 1532.94 731.311 1472.56 807.402C1418.07 878.759 1356.5 936.606 1294.53 974.69C1232.54 1012.77 1173.42 1029.08 1123.56 1021.84C1071.55 1014.76 1023.26 987.289 967.344 955.484L963.791 953.463C901.313 921.164 825.217 885.031 734.721 862.055C697.822 853.021 661.633 845.579 626.636 838.387C570.514 826.848 517.498 815.95 470.806 800.272C442.198 793.207 417.532 783.606 397.527 771.74C361.466 750.349 340.265 721.57 334.51 686.2C313.972 564.216 357.007 491.898 451.3 333.448C470.46 301.243 492.182 264.746 515.769 223.754C548.074 168.334 568.326 117.789 586.181 73.1916C608.139 18.3816 625.477 -24.9052 656.095 -55.97C689.193 -89.5618 734.622 -105.013 803.395 -106.082C865.814 -119.129 970.077 -115.474 1082.19 -96.2852C1192.2 -77.4613 1289.13 -47.6822 1341.47 -16.6335L1342.64 -15.938C1346.82 -13.7217 1351.02 -11.3604 1355.11 -8.93482Z" fill="white"/>
<path d="M416.97 754.273C434.344 764.578 455.092 773.355 478.63 780.353C532.649 803.837 596.201 820.359 663.487 837.853C687.611 844.123 712.556 850.608 737.747 857.591C829.066 883.886 908.96 920.055 967.299 946.461C1020.7 974.578 1071.11 1001.12 1124.33 1006.58C1172.5 1012.59 1229.62 996.521 1289.51 960.101C1349.52 923.604 1409.33 868.485 1462.47 800.702C1523.77 727.39 1563.49 653.669 1580.5 581.586C1595.76 517.186 1593.53 442.582 1573.7 353.51C1558.57 279.96 1527.69 207.588 1479.31 132.257C1441.07 73.3211 1401.4 32.9085 1354.47 5.06967C1346.42 0.297065 1338.02 -4.17478 1329.5 -8.21504C1279.08 -37.4878 1186.02 -65.4555 1080.47 -83.0593C971.063 -101.307 872.987 -104.498 811.387 -91.8067C669.901 -89.3411 641.102 -21.8083 597.512 80.4149C579.769 122.026 559.657 169.191 528.677 220.787C505.969 259.362 484.993 293.837 466.49 324.257C374.116 476.106 331.953 545.41 350.493 662.847C355.658 700.416 378.028 731.174 416.97 754.273ZM1355.05 4.12476C1402.16 32.0663 1441.95 72.6066 1480.31 131.704C1528.77 207.166 1559.69 279.663 1574.85 353.347C1594.72 442.572 1596.94 517.333 1581.65 581.889C1564.6 654.132 1524.81 727.992 1463.41 801.415C1410.21 869.287 1350.3 924.494 1290.18 961.055C1230.06 997.612 1172.69 1013.74 1124.26 1007.69C1070.81 1002.21 1020.29 975.613 966.81 947.453C908.541 921.077 828.694 884.935 737.471 858.664C712.3 851.687 687.358 845.204 663.235 838.933C595.904 821.428 532.301 804.889 478.268 781.398C454.699 774.392 433.856 765.576 416.39 755.216C377.111 731.917 354.545 700.871 349.326 662.942C330.736 545.135 372.955 475.726 465.464 323.654C483.97 293.238 504.94 258.768 527.648 220.196C558.591 168.653 578.687 121.526 596.42 79.9445C618.92 27.1902 636.687 -14.4849 667.084 -44.4281C699.945 -76.8029 744.393 -91.7559 811.185 -92.9136C872.817 -105.622 971.063 -102.433 1080.62 -84.1627C1186.29 -66.5359 1279.53 -38.5041 1330.02 -9.18896C1338.53 -5.15259 1346.97 -0.668401 1355.05 4.12476Z" fill="white"/>
<path d="M435.462 739.66C449.959 748.259 466.673 755.919 485.156 762.435C547.845 796.282 624.814 819.891 706.288 844.88C717.353 848.272 728.513 851.694 739.763 855.182C807.885 877.135 869.202 901.558 923.3 923.107C939.573 929.592 954.946 935.712 969.716 941.458C1026.44 968.839 1073.84 990.048 1124.61 993.503C1171.42 998.33 1226.86 982.4 1284.96 947.442C1343.2 912.397 1401.43 859.834 1453.35 795.429C1515.78 724.677 1556.55 653.772 1574.55 584.661C1591.11 521.836 1590.05 448.876 1571.3 361.622C1556.81 286.236 1523.83 209.835 1473.3 134.516C1437 80.9529 1399.38 43.719 1354.91 17.3424C1342.88 10.2081 1330.12 3.79007 1316.98 -1.74738C1267.88 -29.1883 1178.42 -55.2431 1077.61 -71.4681C972.76 -88.3438 878.388 -91.0708 818.694 -78.9416C681.194 -76.2381 651.605 -11.2233 606.824 87.1971C589.243 125.84 569.315 169.635 539.703 217.412C517.892 253.549 497.685 285.996 479.848 314.618C389.036 460.396 347.593 526.928 364.173 640.397C368.716 680.905 392.698 714.295 435.462 739.66ZM1355.49 16.3966C1400.13 42.8725 1437.87 80.2243 1474.28 133.95C1524.91 209.396 1557.93 285.949 1572.46 361.467C1591.24 448.879 1592.3 521.996 1575.69 584.99C1557.65 654.254 1516.81 725.303 1454.29 796.159C1402.3 860.642 1343.97 913.293 1285.63 948.397C1227.31 983.488 1171.62 999.472 1124.57 994.618C1073.59 991.15 1026.08 969.896 969.279 942.473C954.551 936.746 939.176 930.625 922.898 924.14C868.82 902.598 807.523 878.183 739.448 856.245C728.209 852.763 717.049 849.339 705.989 845.946C624.448 820.938 547.424 797.312 484.71 763.442C466.246 756.946 449.447 749.244 434.881 740.604C391.771 715.034 367.592 681.346 363.006 640.474C346.367 526.639 387.881 460.008 478.835 314.011C496.662 285.386 516.875 252.949 538.678 216.81C568.256 169.08 588.175 125.318 605.738 86.7051C628.853 35.9107 647.111 -4.20802 677.355 -33.0805C710.053 -64.2952 753.58 -78.7868 818.496 -80.0502C878.225 -92.1945 972.748 -89.4726 1077.74 -72.5731C1178.69 -56.3235 1268.3 -30.2181 1317.47 -2.73965C1330.6 2.7849 1343.41 9.23367 1355.49 16.3966Z" fill="white"/>
<path d="M510.316 754.353C574.749 792.57 653.528 820.964 742.369 851.51C778.487 864.425 812.466 877.148 845.325 889.453C891.367 906.695 934.86 922.978 972.887 935.388C1025.64 958.471 1073.51 977.705 1125.74 979.49C1171.2 983.182 1224.96 967.485 1281.24 934.097C1337.66 900.622 1394.26 850.745 1444.9 789.861C1508.4 721.851 1550.14 653.888 1569 587.841C1586.81 526.706 1586.82 455.48 1569.03 370.096C1554.87 291.916 1520.57 213.59 1467.1 137.27C1433.12 89.2731 1396.49 54.012 1355.13 29.4789C1339.21 20.0329 1322.02 11.8554 1304.04 5.17179C1207.18 -46.7334 952.86 -91.4741 825.403 -66.1536C691.807 -63.384 661.453 -0.976226 615.502 93.4901C598.197 129.08 578.579 169.414 550.449 213.26C529.651 246.819 510.287 277.101 493.21 303.821C404.018 443.335 363.307 507.008 378.103 616.46C381.938 660.261 407.887 696.692 455.215 724.764C466.369 731.38 478.78 737.526 492.099 743.037C498 746.873 504.095 750.663 510.316 754.353ZM1355.71 28.534C1397.23 53.1596 1433.98 88.5377 1468.06 136.686C1521.64 213.143 1556 291.626 1570.19 369.952C1588.01 455.499 1588 526.889 1570.13 588.192C1551.23 654.401 1509.41 722.504 1445.82 790.61C1395.12 851.564 1338.43 901.521 1281.9 935.061C1225.42 968.569 1171.42 984.319 1125.73 980.611C1073.31 978.818 1025.32 959.539 972.503 936.426C934.508 924.028 891.005 907.737 844.949 890.495C812.091 878.19 778.119 865.472 742.019 852.562C653.12 821.992 574.274 793.573 509.737 755.294C503.503 751.596 497.392 747.797 491.577 744.004C478.305 738.529 465.84 732.35 454.636 725.705C406.946 697.418 380.802 660.685 376.93 616.516C369.765 563.503 375.478 519.745 396.04 470.223C415.715 422.827 447.79 372.647 492.191 303.198C509.272 276.482 528.63 246.2 549.435 212.644C577.528 168.84 597.134 128.535 614.433 92.9701C638.15 44.2181 656.876 5.70716 686.964 -22.0226C719.503 -52.0081 762.133 -65.9579 825.202 -67.263C883.02 -78.7534 973.855 -76.3861 1074.32 -60.7413C1170.56 -45.7626 1256.61 -21.4957 1304.5 4.16407C1322.46 10.8408 1339.72 19.048 1355.71 28.534Z" fill="white"/>
<path d="M554.624 762.377C615.098 798.246 684.702 826.293 744.811 848.998C824.784 880.389 908.473 912.519 975.579 930.223C1032.68 952.499 1077.76 966.279 1126.2 966.207C1216.42 971.319 1335.03 901.685 1435.77 784.484C1500.41 719.103 1543.19 653.992 1562.94 590.933C1582.1 531.448 1583.27 461.918 1566.56 378.348C1553.06 298.481 1516.58 215.999 1461.08 139.804C1428.98 96.159 1394.52 63.7566 1355.72 40.7478C1335.82 28.9454 1314.86 19.5426 1291.62 12.0031C1245.11 -11.7724 1162.88 -34.0516 1071.58 -47.6326C975.877 -61.868 888.965 -63.7726 833.125 -52.8595C703.471 -49.8404 672.221 10.0507 624.911 100.708C607.924 133.272 588.669 170.178 562.067 210.14C542.316 241.078 523.842 269.174 507.535 293.957C422.386 423.47 379.643 488.476 392.482 594.026C395.371 640.947 424.35 682.012 476.276 712.811C483.481 717.083 491.196 721.204 499.226 725.062C515.862 737.888 534.461 750.419 554.624 762.377ZM1356.3 39.8044C1395.25 62.9022 1429.83 95.4128 1462.04 139.197C1517.65 215.541 1554.19 298.194 1567.71 378.215C1584.46 461.948 1583.28 531.662 1564.08 591.306C1544.27 654.527 1501.4 719.777 1436.67 785.252C1335.73 902.68 1216.77 972.457 1126.23 967.329C1072.37 967.409 1022.11 949.564 975.258 931.278C908.152 913.578 824.426 881.437 744.421 850.034C684.269 827.313 614.606 799.242 554.043 763.321C533.842 751.339 515.195 738.775 498.633 725.987C490.682 722.185 482.933 718.05 475.695 713.756C423.399 682.738 394.22 641.349 391.31 594.061C378.431 488.16 421.243 423.047 506.535 293.328C522.833 268.542 541.302 240.449 561.056 209.507C587.632 169.591 606.877 132.707 623.856 100.168C648.272 53.3759 667.553 16.4193 697.541 -10.2407C729.962 -39.0625 771.717 -52.5459 832.933 -53.9697C888.798 -64.8984 975.864 -62.9967 1071.7 -48.7412C1163.13 -35.1395 1245.5 -12.8183 1292.04 10.9812C1315.27 18.5112 1336.32 27.9528 1356.3 39.8044Z" fill="white"/>
<path d="M600.28 774.495C640.943 798.613 689.054 822.027 747.359 846.069C842.505 886.793 918.126 912.523 978.557 924.734C1031.7 942.854 1077.25 954.525 1127.05 952.653C1214.29 955.34 1329.26 888.761 1427.15 778.896C1492.98 716.165 1536.8 653.902 1557.42 593.803C1577.89 535.997 1580.22 468.13 1564.53 386.329C1548.04 281.862 1496.08 195.78 1455.39 141.961C1425.03 102.181 1392.61 72.3642 1356.27 50.8127C1332.83 36.913 1307.68 26.3036 1279.37 18.3786C1187.26 -26.2785 958.069 -62.6761 840.714 -40.1916C714.824 -36.9524 682.593 20.4566 633.811 107.355C617.244 136.867 598.466 170.317 573.473 206.369C554.862 234.589 537.355 260.412 521.906 283.192C437.921 407.043 395.766 469.211 406.69 570.972C408.523 622.221 440.279 667.553 498.531 702.103C501.059 703.602 503.673 705.1 506.298 706.557C533.097 730.663 563.803 752.861 600.28 774.495ZM1356.85 49.8687C1393.33 71.5057 1425.87 101.425 1456.33 141.338C1497.1 195.267 1549.16 281.525 1565.69 386.206C1581.41 468.18 1579.08 536.222 1558.54 594.208C1537.87 654.46 1493.96 716.869 1428.03 779.683C1329.96 889.752 1214.65 956.472 1127.12 953.775C1077.17 955.653 1031.5 943.953 978.293 925.811C917.857 913.602 842.154 887.845 746.941 847.093C688.584 823.029 640.418 799.59 599.699 775.439C563.147 753.76 532.378 731.515 505.629 707.435C503.115 706.057 500.49 704.553 497.95 703.047C439.324 668.275 407.36 622.608 405.52 570.989C394.556 468.879 436.78 406.608 520.906 282.546C536.35 259.768 553.858 233.955 572.478 205.729C597.445 169.704 616.211 136.277 632.768 106.783C681.731 19.5645 714.083 -38.0554 840.518 -41.2994C957.985 -63.8172 1187.58 -27.3559 1279.75 17.3412C1308.06 25.2615 1333.32 35.9107 1356.85 49.8687Z" fill="white"/>
<path d="M644.296 787.786C676.187 806.701 710.83 824.47 750.188 842.102C839.564 883.587 917.544 909.255 981.97 918.393C1025.87 931.137 1073.93 942.362 1128.42 938.379C1212.71 938.738 1324.02 875.386 1418.96 773.042C1486.92 712.256 1530.48 654.587 1552.16 596.697C1573.93 540.653 1577.32 474.519 1562.56 394.507C1550.04 310.26 1509.86 221.442 1449.43 144.398C1420.66 108.047 1390.12 80.559 1356.06 60.3618C1329.3 44.491 1300.06 32.9038 1266.65 24.9355C1177.02 -16.0327 961.847 -49.0171 847.636 -27.7401C725.367 -24.4091 692.104 30.4678 641.753 113.541C625.76 139.927 607.63 169.837 584.397 201.893C567.05 227.25 550.635 250.657 536.142 271.309C453.242 389.44 411.633 448.738 420.754 546.745C421.47 614.21 471.527 660.173 513.39 686.863L513.508 686.958C548.788 723.533 591.571 756.516 644.296 787.786ZM1356.64 59.4205C1390.83 79.6989 1421.49 107.283 1450.36 143.754C1510.91 220.964 1551.18 309.972 1563.72 394.392C1578.52 474.589 1575.1 540.905 1553.27 597.13C1531.53 655.172 1487.87 712.982 1419.82 773.845C1324.72 876.372 1213.09 939.859 1128.53 939.501C1073.89 943.494 1025.7 932.241 981.773 919.483C917.31 910.345 839.21 884.645 749.732 843.111C710.335 825.461 675.658 807.672 643.716 788.728C590.915 757.411 548.063 724.379 512.712 687.743C470.605 660.889 420.301 614.634 419.575 546.736C410.426 448.391 452.109 388.99 535.149 270.647C549.636 250.001 566.061 226.6 583.402 201.234C606.629 169.199 624.741 139.312 640.723 112.936C691.264 29.5671 724.646 -25.5134 847.444 -28.8527C961.763 -50.1516 1177.32 -17.1086 1266.99 23.887C1300.4 31.8472 1329.77 43.4845 1356.64 59.4205Z" fill="white"/>
<path d="M683.136 802.222C704.923 815.144 728.339 827.676 752.737 839.48C838.332 882.303 918.603 907.776 984.879 913.154C1041.09 926.454 1084.22 929.997 1129.17 925.018C1169.2 923.993 1216.22 908.988 1265.2 881.617C1314.48 854.081 1364.63 814.632 1410.23 767.532C1479.49 709.443 1524.07 654.519 1546.57 599.576C1569.7 545.242 1574.27 480.765 1560.54 402.463C1548.51 315.4 1507.06 224.511 1443.83 146.514C1416.6 113.21 1387.86 87.825 1355.97 68.9122C1326.16 51.2294 1292.99 38.9301 1254.55 31.3086C1166.56 -6.24984 965.225 -34.9436 855.496 -14.9377C736.752 -11.322 702.255 41.173 650.037 120.637C634.746 143.903 617.418 170.277 596.051 198.363C580.089 220.781 565.505 240.797 551.405 260.147C469.226 372.948 427.976 429.565 435.129 524.025C434.054 591.234 480.992 639.788 520.55 668.691L520.663 668.794C562.23 718.043 616.893 762.934 683.136 802.222ZM1356.55 67.9679C1388.57 86.9573 1417.42 112.436 1444.75 145.856C1508.11 224.019 1549.65 315.112 1561.7 402.357C1575.46 480.851 1570.87 545.52 1547.67 600.039C1525.11 655.136 1480.43 710.195 1411.08 768.357C1365.44 815.492 1315.2 855.007 1265.84 882.591C1216.7 910.053 1169.49 925.109 1129.32 926.135C1084.26 931.128 1041.01 927.578 984.75 914.258C918.406 908.881 837.976 883.361 752.242 840.472C727.825 828.657 704.374 816.104 682.556 803.164C616.219 763.821 561.463 718.857 519.806 669.525C480.03 640.448 432.872 591.611 433.957 523.997C426.775 429.2 468.099 372.476 550.425 259.474C564.527 240.122 579.105 220.114 595.076 197.685C616.432 169.614 633.749 143.256 649.031 119.999C701.432 40.2573 736.052 -12.4257 855.301 -16.0501C905.422 -25.1946 981.336 -24.5497 1063.48 -14.2757C1140.62 -4.62726 1212.17 12.0188 1254.86 30.2524C1293.31 37.8579 1326.61 50.2097 1356.55 67.9679Z" fill="white"/>
<path d="M715.097 813.638C728.008 821.295 741.467 828.772 755.099 835.868C839.06 880.945 919.473 905.548 987.659 907.027C1039.98 916.503 1083.8 917.68 1129.81 910.851C1209.4 906.327 1310.87 850.508 1401.29 761.523C1471.83 706.248 1517.4 654.14 1540.64 602.178C1565.1 549.624 1570.79 486.859 1558.03 410.29C1546.44 320.461 1503.66 227.532 1437.57 148.598C1411.74 117.997 1384.64 94.5005 1354.73 76.7587C1322.06 57.3819 1285.09 44.5756 1241.71 37.6071C1157.24 4.27537 965.792 -20.7352 862.565 -2.45331C747.147 1.38583 711.269 51.5041 656.98 127.37C642.622 147.428 626.355 170.166 607.06 194.184C592.675 213.501 579.401 230.963 566.564 247.848C487.45 351.953 443.868 409.298 449.106 500.304C446.284 567.172 490.129 618.332 527.41 649.483C574.198 712.31 637.311 767.505 715.097 813.638ZM1355.31 75.8127C1385.35 93.6265 1412.55 117.216 1438.47 147.926C1504.71 227.032 1547.58 320.17 1559.2 410.192C1571.99 486.962 1566.27 549.931 1541.72 602.671C1518.42 654.782 1472.75 707.023 1402.11 762.37C1311.55 851.495 1209.81 907.435 1130 911.966C1083.9 918.812 1039.97 917.631 987.599 908.142C919.317 906.669 838.704 882.011 754.577 836.844C740.924 829.739 727.44 822.247 714.516 814.582C636.586 768.363 573.352 713.061 526.559 650.203C489.177 618.984 445.089 567.524 447.928 500.25C442.672 408.91 486.334 351.458 565.597 247.158C578.432 230.272 591.701 212.812 606.107 193.485C625.388 169.479 641.647 146.755 655.994 126.702C710.477 50.5762 746.471 0.285271 862.373 -3.56662C911.275 -12.2302 981.596 -12.0065 1060.3 -2.92231C1132.63 5.42698 1200.55 20.1806 1241.97 36.5385C1285.38 43.4946 1322.5 56.3524 1355.31 75.8127Z" fill="white"/>
<path d="M741.507 822.824C747.035 826.103 752.694 829.356 758.324 832.495C841.04 879.959 921.541 903.677 991.127 901.081C1039.38 907.021 1083.81 905.675 1131.04 896.855C1207.65 889.917 1305.47 837.169 1392.76 755.744C1465.59 702.602 1510.78 654.74 1535.02 605.085C1560.82 554.367 1567.63 493.35 1555.86 418.539C1544.89 327.333 1499.66 229.93 1431.76 151.278C1407.24 123.104 1381.67 101.311 1353.58 84.6521C1317.77 63.4142 1278.33 50.6847 1229.46 44.5887C1148.09 15.2993 969.924 -6.29178 870.511 10.7791C758.205 14.8778 720.749 62.6911 664.049 135.069C650.922 151.821 636.047 170.806 619.112 190.66C606.526 206.703 594.789 221.435 583.433 235.677C504.433 334.785 460.913 389.373 464.19 477.077C459.625 543.514 500.345 597.265 535.306 630.666C584.941 705.828 656.222 772.244 741.507 822.824ZM1354.16 83.7066C1382.37 100.436 1408.04 122.314 1432.65 150.593C1500.7 229.419 1546.03 327.054 1557.02 418.46C1568.83 493.473 1561.99 554.698 1536.09 605.61C1511.78 655.417 1466.48 703.404 1393.55 756.607C1306.14 838.151 1208.07 891.012 1131.27 897.963C1083.97 906.802 1039.43 908.149 991.142 902.197C921.419 904.804 840.683 881.032 757.769 833.454C752.135 830.312 746.467 827.051 740.928 823.766C655.475 773.086 584.063 706.546 534.414 631.33C499.351 597.86 458.42 543.81 463.011 476.997C459.725 388.965 503.324 334.266 582.48 234.968C593.834 220.727 605.575 206.001 618.165 189.943C635.101 170.087 649.972 151.108 663.09 134.367C692.399 96.9541 715.545 67.4039 746.041 45.951C778.966 22.789 817.294 11.5933 870.319 9.66339C917.223 1.60868 983.848 1.42206 1057.85 9.15706C1125.3 16.2083 1189.53 29.0498 1229.68 43.507C1278.6 49.5936 1318.19 62.3761 1354.16 83.7066Z" fill="white"/>
<path d="M767.291 833.753C846.742 880.873 925.048 902.285 993.746 895.669C1038.96 898.467 1081.42 894.653 1131.52 883.299C1205.28 873.885 1299.56 824.077 1383.76 750.051C1458.02 699.724 1504.2 654.528 1529.15 607.783C1555.95 559.517 1564.15 498.469 1553.54 426.307C1543.09 332.304 1496.56 232.763 1425.88 153.194C1402.58 127.152 1378.4 106.873 1351.96 91.1919C1313.62 68.4513 1270.75 55.6058 1217.07 50.7772C1136.02 24.6618 973.911 7.41694 878.064 23.3822C768.397 27.8423 731.076 71.1375 669.24 142.866C657.176 156.855 644.709 171.317 630.482 186.913C619.994 199.53 610.06 211.329 600.462 222.747C520.918 317.267 477.106 369.332 478.316 454.112C471.974 520.168 509.559 576.583 542.203 612.292C593.853 700.221 669.341 775.367 760.575 829.711C762.824 831.082 765.055 832.427 767.291 833.753ZM1352.54 90.2433C1379.1 105.992 1403.37 126.355 1426.76 152.492C1497.6 232.244 1544.23 332.019 1554.71 426.232C1565.35 498.605 1557.11 559.882 1530.19 608.341C1505.18 655.235 1458.89 700.548 1384.53 750.938C1300.22 825.062 1205.72 874.969 1131.79 884.401C1081.64 895.773 1039.07 899.596 993.832 896.79C924.965 903.428 846.394 881.959 766.709 834.7C764.468 833.371 762.234 832.023 759.987 830.649C668.575 776.202 592.938 700.903 541.259 612.899C508.527 577.116 470.764 520.411 477.142 454.011C475.924 368.898 519.83 316.727 599.523 222.012C609.13 210.6 619.056 198.802 629.558 186.17C643.796 170.567 656.254 156.106 668.312 142.126C699.208 106.287 723.611 77.9826 754.629 57.4053C788.076 35.2095 826.085 24.3736 877.88 22.2672C922.822 14.7768 985.807 14.1438 1055.15 20.4956C1117.75 26.2283 1178.35 37.1414 1217.25 49.6884C1270.99 54.5063 1314.03 67.4022 1352.54 90.2433Z" fill="white"/>
<path d="M780.659 837.344C855.8 881.907 930.525 900.08 996.756 889.9C1037.84 889.844 1079.67 883.554 1132.47 869.496C1203.54 857.652 1294.29 810.884 1375.27 744.377C1452.07 696.331 1497.84 655.114 1523.75 610.676C1551.9 564.221 1561.25 504.9 1551.56 434.344C1541.54 337.548 1493.6 235.855 1420 155.323C1397.8 131.182 1374.86 112.249 1349.9 97.4415C1309.09 73.2415 1262.87 60.4042 1204.44 57.038C1126.93 35.1915 976.828 21.1011 885.137 35.7758C777.428 40.5609 737.756 82.1035 672.022 150.923C662.329 161.063 652.308 171.565 641.36 182.679C633.399 191.622 625.702 200.203 618.3 208.459C537.476 298.584 492.959 348.228 492.099 430.433C484.049 496.021 518.561 555.151 548.923 593.213C599.132 688.785 673.132 769.375 762.997 826.377C768.846 830.175 774.789 833.863 780.659 837.344ZM1350.48 96.4968C1375.55 111.368 1398.58 130.377 1420.87 154.613C1494.63 235.332 1542.69 337.262 1552.73 434.279C1562.46 505.054 1553.06 564.613 1524.78 611.267C1498.79 655.85 1452.9 697.183 1376.01 745.288C1294.94 811.868 1203.99 858.728 1132.79 870.589C1079.94 884.665 1038.02 890.966 996.915 891.014C930.487 901.233 855.476 883.002 780.079 838.287C774.193 834.797 768.237 831.1 762.372 827.294C672.336 770.186 598.181 689.428 547.943 593.765C517.497 555.623 482.837 496.211 490.926 430.299C491.781 347.76 536.396 298.013 617.384 207.702C624.787 199.444 632.481 190.867 640.463 181.904C651.424 170.777 661.444 160.285 671.131 150.138C704.035 115.696 730.012 88.4912 761.83 68.7191C796.108 47.4263 834.078 36.9192 884.951 34.6622C976.723 19.9716 1127.08 34.0818 1204.58 55.9384C1263.09 59.2936 1309.49 72.1892 1350.48 96.4968Z" fill="white"/>
<path d="M791.612 839.491C863.505 882.128 935.513 897.494 999.857 883.923C1043.3 880.975 1084.64 870.415 1133.38 855.457C1202.89 840.906 1287.85 798.272 1366.54 738.478C1419.27 708.155 1484.08 666.571 1518 613.391C1547.5 568.791 1558.01 511.235 1549.26 442.319C1539.86 344.257 1489.31 237.832 1414.02 157.62C1392.85 135.2 1371.09 117.501 1347.5 103.51C1303.79 77.5892 1255.82 65.2709 1191.94 63.5885C1116.71 45.6986 978.585 35.4038 892.686 48.5731C786.042 53.7989 743.268 93.9853 672.395 160.566C666.125 166.448 659.651 172.534 652.903 178.813C648.084 183.808 643.351 188.695 638.734 193.478C558.265 276.684 509.699 326.909 506.61 407.001C496.864 472.027 528.237 533.841 556.272 574.258C604.086 675.855 678.469 764.143 765.757 822.949C774.299 828.818 782.999 834.383 791.612 839.491ZM1348.08 102.565C1371.78 116.618 1393.63 134.388 1414.88 156.893C1450.18 194.505 1481.08 239.145 1504.25 286.006C1529.94 337.935 1545.47 390.502 1550.43 442.258C1559.22 511.42 1548.65 569.213 1519.01 614.017C1484.97 667.387 1420.02 709.065 1367.24 739.411C1288.49 799.262 1203.36 841.968 1133.75 856.542C1084.98 871.509 1043.56 882.089 1000.09 885.03C935.52 898.654 863.202 883.237 791.03 840.435C782.394 835.314 773.671 829.732 765.107 823.85C721.582 794.53 681.486 758.35 645.94 716.315C609.919 673.726 579.41 626.098 555.25 574.756C527.147 534.256 495.645 472.16 505.44 406.84C508.536 326.409 557.207 276.076 637.843 192.689C642.471 187.914 647.195 183.025 652.031 178.01C658.806 171.713 665.278 165.626 671.542 159.746C742.598 92.9907 785.49 52.6958 892.5 47.4565C978.482 34.2788 1116.82 44.5839 1192.04 62.4797C1256.01 64.1625 1304.17 76.5268 1348.08 102.565Z" fill="white"/>
<path d="M801.25 840.869C870.661 882.034 940.591 894.907 1003.47 878.099C1047.21 872.096 1089.76 857.289 1134.8 841.611C1202.04 824.424 1283.48 784.781 1358.29 732.831C1415.39 702.838 1478.35 665.577 1512.71 616.413C1543.55 573.707 1555.21 517.932 1547.37 450.642C1538.45 349.907 1486.49 241.377 1408.4 160.306C1388.2 139.45 1367.52 122.871 1345.18 109.623C1299.22 82.3631 1248.21 70.2978 1179.8 70.5073C1107.26 56.735 983.056 49.6742 900.593 61.6908C793.236 67.492 745.972 107.14 667.662 172.83L664.821 175.211L662.648 177.257C578.107 256.914 527.073 304.993 521.559 383.762C510.149 448.136 538.383 512.659 564.076 555.461C610.117 664.368 682.891 758.163 769.028 819.646C779.645 827.346 790.484 834.484 801.25 840.869ZM1345.77 108.677C1368.2 121.983 1388.97 138.632 1409.25 159.575C1487.52 240.832 1539.6 349.626 1548.55 450.595C1556.41 518.144 1544.69 574.157 1513.69 617.078C1479.21 666.426 1416.12 703.766 1358.96 733.791C1284.1 785.775 1202.53 825.476 1135.21 842.683C1090.16 858.366 1047.56 873.192 1003.78 879.197C940.638 896.08 870.38 883.156 800.669 841.813C789.87 835.409 778.998 828.248 768.352 820.526C682.032 758.917 609.113 664.934 563.026 555.902C537.272 513.01 508.93 448.222 520.388 383.57C525.927 304.452 577.071 256.266 661.798 176.44L663.994 174.373L666.86 171.969C745.347 106.128 792.717 66.3931 900.402 60.5756C982.946 48.5515 1107.32 55.6135 1179.86 69.3967C1248.38 69.175 1299.59 81.2912 1345.77 108.677Z" fill="white"/>
<path d="M808.368 841.808C875.792 881.794 944.062 892.361 1005.81 872.374C1041.13 864.927 1076.17 851.032 1113.27 836.325C1120.35 833.515 1127.56 830.658 1134.93 827.78C1200.71 807.593 1278.64 770.879 1348.78 727.039C1407.04 699.241 1471.25 664.714 1506.18 619.156C1538.39 578.324 1551.23 524.306 1544.35 458.598C1535.94 355.154 1482.66 244.496 1401.83 162.588C1382.54 143.144 1362.88 127.585 1341.71 115.032C1293.57 86.4815 1239.62 74.7832 1166.79 77.1049C1097.65 67.6328 986.51 63.74 907.664 74.6235C804.875 80.8291 751.533 115.402 675.887 171.599C594.069 240.211 543.502 286.064 535.556 360.676C522.485 424.38 547.531 491.644 570.842 536.864C614.939 653.051 686.039 752.349 771.082 816.538C783.328 825.897 795.874 834.399 808.368 841.808ZM1342.29 114.088C1363.55 126.697 1383.3 142.315 1402.66 161.838C1483.69 243.95 1537.09 354.87 1545.52 458.559C1552.43 524.539 1539.52 578.812 1507.15 619.856C1472.07 665.588 1407.73 700.194 1349.41 728.02C1279.25 771.879 1201.22 808.637 1135.38 828.838C1128.06 831.699 1120.85 834.557 1113.77 837.365C1076.63 852.093 1041.55 866 1006.18 873.457C976.39 883.102 944.605 885.628 911.765 880.946C877.196 876.016 842.212 863.165 807.788 842.75C795.251 835.316 782.668 826.786 770.381 817.4C685.156 753.078 613.913 653.586 569.762 537.254C546.399 491.937 521.269 424.415 534.391 360.455C542.37 285.493 593.064 239.52 675.108 170.72C750.94 114.375 804.41 79.7287 907.483 73.5077C986.389 62.6125 1097.68 66.5071 1166.79 75.9885C1239.77 73.6553 1293.93 85.4059 1342.29 114.088Z" fill="white"/>
<path d="M815.728 841.858C881.64 880.946 948.662 889.425 1009.54 866.37C1039.01 857.904 1068.17 844.617 1099.05 830.549C1111.12 825.052 1123.6 819.366 1136.56 813.752C1184.7 796.318 1259.2 766.12 1340.92 721.178C1403.4 694.37 1466.05 663.809 1501.4 621.92C1534.97 583.003 1548.96 530.731 1542.96 466.567C1535.01 360.375 1480.27 247.532 1396.52 164.704C1378.32 146.778 1359.03 131.718 1339.19 119.952C1288.86 90.1032 1231.97 78.8136 1154.75 83.3405C1094.6 78.5566 995.919 76.6481 915.44 87.0089C819.152 93.4521 761.044 120.193 687.48 167.297C604.058 227.615 559.898 270.405 550.085 336.847C535.431 399.815 557.338 469.884 578.3 517.584C620.505 641.061 690.085 745.943 774.248 812.959C787.835 823.872 801.791 833.593 815.728 841.858ZM1339.77 119.008C1359.7 130.827 1379.07 145.948 1397.34 163.948C1436.19 202.371 1470.17 249.276 1495.62 299.593C1523.28 354.288 1540.05 412.02 1544.14 466.536C1550.16 530.991 1536.09 583.52 1502.32 622.66C1466.84 664.708 1404.06 695.342 1341.5 722.18C1259.77 767.134 1185.21 797.356 1137.06 814.792C1124.14 820.389 1111.67 826.073 1099.6 831.566C1068.69 845.652 1039.49 858.957 1009.98 867.433C980.609 878.557 949.338 882.354 917.083 878.696C883.109 874.843 848.814 862.768 815.147 842.802C801.158 834.506 787.155 824.749 773.523 813.804C689.177 746.644 619.46 641.566 577.199 517.923C556.192 470.113 534.214 399.799 548.932 336.591C553.791 303.626 567.683 274.96 592.635 246.421C617.705 217.754 652.687 191.008 686.76 166.372C760.508 119.151 818.752 92.3515 915.259 85.896C995.786 75.525 1094.58 77.4324 1154.69 82.2256C1232.1 77.675 1289.21 89.0217 1339.77 119.008Z" fill="white"/>
<path d="M821.575 842.047C886.164 880.351 952.089 886.809 1012.23 860.72C1037.32 851.478 1062.17 838.456 1088.48 824.672C1103.99 816.547 1120.03 808.139 1137.01 800.037C1148.87 795.014 1161.27 789.817 1174.14 784.422C1222.03 764.351 1276.32 741.601 1331.71 715.558C1405.39 687.367 1461.36 661.166 1495.12 624.895C1530.06 587.908 1545.21 537.411 1540.14 474.809C1532.82 367.559 1475.34 249.748 1390.13 167.34C1372.72 150.578 1354.34 136.406 1335.49 125.225C1282.37 93.7265 1224.49 83.2792 1141.94 90.2845C1113.73 89.8482 1014.74 89.2717 922.736 100.243C836.552 106.73 771.685 125.18 698.802 163.926C637.082 200.681 578.066 244.302 564.408 313.939C551.568 363.132 558.832 427.149 585.412 499.103C625.539 629.734 693.465 740.105 776.674 809.902C791.337 822.258 806.442 833.073 821.575 842.047ZM1336.07 124.279C1355.01 135.509 1373.47 149.742 1390.94 166.578C1430.93 205.257 1465.91 252.894 1492.09 304.346C1520.49 360.182 1537.52 419.12 1541.32 474.791C1546.4 537.696 1531.16 588.461 1496.02 625.667C1462.12 662.091 1406.03 688.353 1332.24 716.588C1276.86 742.625 1222.57 765.379 1174.66 785.454C1161.79 790.848 1149.39 796.046 1137.57 801.056C1120.63 809.141 1104.6 817.54 1089.09 825.662C1062.75 839.464 1037.86 852.5 1012.73 861.759C983.714 874.349 952.889 879.383 921.132 876.713C887.675 873.903 853.985 862.556 820.994 842.991C805.801 833.982 790.637 823.125 775.923 810.726C692.537 740.779 624.478 630.21 584.297 499.394C557.65 427.258 550.365 363.012 563.257 313.642C569.256 283.056 583.862 255.867 607.916 230.568C628.649 208.753 657.324 187.266 698.162 162.952C771.222 124.111 836.221 105.622 922.558 99.1213C1014.6 88.1487 1113.66 88.7288 1141.83 89.1671C1224.6 82.1359 1282.71 92.6353 1336.07 124.279Z" fill="white"/>
<path d="M826.98 841.995C889.621 879.142 956.47 883.805 1015.21 855.125C1036.92 845.274 1058.46 832.369 1081.27 818.704C1099.26 807.926 1117.87 796.777 1137.9 786.318C1187.35 761.99 1246.72 739.202 1309.57 715.073L1323.12 709.874C1386.6 688.483 1451.73 664.521 1489.62 627.73C1525.96 592.663 1542.28 543.89 1538.13 482.77C1531.32 372.768 1472.4 252.692 1384.36 169.398C1367.7 153.678 1350.15 140.313 1332.2 129.667C1262.75 88.4837 1190.76 89.8169 1129.5 96.5558C1091.41 98.6723 1014.92 103.588 930.186 112.794C860.439 118.733 785.511 128.549 710.048 159.919C634.174 194.262 592.383 235.764 578.543 290.523C564.286 339.756 568.938 403.598 592.366 480.295C630.406 618.17 696.742 734.133 779.151 806.831C794.717 820.575 810.809 832.404 826.98 841.995ZM1332.78 128.723C1350.81 139.415 1368.44 152.84 1385.17 168.621C1473.41 252.119 1532.48 372.488 1539.31 482.764C1543.48 544.201 1527.05 593.252 1490.49 628.541C1452.43 665.489 1387.17 689.502 1323.59 710.929L1310.07 716.121C1247.24 740.236 1187.89 763.017 1138.5 787.318C1118.51 797.754 1099.91 808.894 1081.94 819.666C1059.1 833.344 1037.53 846.267 1015.78 856.136C987.023 870.178 956.526 876.422 925.145 874.695C892.077 872.872 858.855 862.189 826.398 842.941C810.161 833.312 794.003 821.432 778.379 807.638C695.798 734.782 629.33 618.613 591.23 480.538C567.746 403.65 563.089 339.6 577.396 290.185C591.321 235.115 633.301 193.389 709.513 158.893C785.137 127.455 860.173 117.617 930.002 111.676C1014.75 102.474 1091.27 97.5544 1129.33 95.4378C1190.77 88.6762 1263.01 87.3459 1332.78 128.723Z" fill="white"/>
<path d="M831.894 841.658C893.655 878.284 959.776 881.041 1018.08 849.423C1037.03 839.109 1055.9 826.27 1075.87 812.68C1095.7 799.182 1116.21 785.227 1138.63 772.492C1182.13 747.784 1234.68 727.325 1314.33 704.089C1381.89 684.335 1445.69 663.839 1483.88 630.47C1521.61 597.337 1539.1 550.301 1535.88 490.657C1529.59 377.919 1469.26 255.609 1378.43 171.454C1362.48 156.702 1345.72 144.085 1328.61 133.942C1256.55 91.2075 1181.19 94.2538 1116.97 102.87C1106.52 104.282 1095.82 105.761 1084.85 107.281C1041.12 113.325 991.565 120.181 937.611 125.411C924.832 126.649 911.618 127.81 898.837 128.932C839.142 134.177 777.419 139.599 721.322 155.967C655.196 175.286 609.531 214.766 592.745 267.131C577.301 315.65 579.524 381.034 599.356 461.473C635.254 606.54 699.965 728.075 781.58 803.694C797.898 818.765 814.828 831.538 831.894 841.658ZM1329.2 132.995C1346.37 143.182 1363.21 155.857 1379.23 170.665C1470.28 255.027 1530.75 377.64 1537.05 490.663C1540.3 550.641 1522.69 597.962 1484.71 631.314C1446.35 664.828 1382.41 685.375 1314.73 705.164C1235.17 728.377 1182.69 748.802 1139.28 773.466C1116.89 786.18 1096.41 800.121 1076.59 813.606C1056.59 827.213 1037.7 840.065 1018.7 850.407C990.154 865.886 959.934 873.32 928.865 872.503C896.131 871.634 863.309 861.578 831.313 842.603C814.169 832.437 797.169 819.608 780.783 804.481C740.145 766.826 703.554 717.628 672.022 658.247C640.744 599.342 615.915 533.207 598.209 461.672C578.332 381.039 576.114 315.457 591.613 266.749C608.51 214.043 654.434 174.312 720.925 154.889C777.127 138.492 838.915 133.062 898.666 127.81C911.443 126.691 924.652 125.53 937.423 124.288C991.36 119.07 1040.9 112.215 1084.62 106.169C1095.58 104.649 1106.3 103.171 1116.75 101.756C1181.18 93.1086 1256.8 90.0615 1329.2 132.995Z" fill="white"/>
<path d="M840.418 830.545C901.918 867.015 966.526 870.537 1022.34 840.46C1042.12 829.817 1061.44 816.59 1081.89 802.587C1100.1 790.123 1118.92 777.233 1139.48 765.207C1149.14 759.601 1159.61 754.034 1170.6 748.658C1207.03 730.834 1249.69 714.755 1308.9 696.521C1373.8 676.426 1435.1 655.657 1471.92 622.638C1508.26 589.924 1525.16 544.007 1522.18 486.164C1518.78 419.483 1496.04 351.091 1456.42 288.382C1431.37 247.944 1399.6 209.996 1364.54 178.624C1349.18 164.698 1333.05 152.69 1316.6 142.937C1272.41 116.731 1223.82 104.893 1163.7 105.689C1147.21 105.955 1129.6 107.174 1109.86 109.418C1094.34 111.086 1078.43 112.905 1061.6 114.826C1023.86 119.127 981.088 124.012 935.506 127.959C928.052 128.581 920.548 129.186 913 129.794C861.668 133.936 808.584 138.215 758.734 149.443C746.894 152.105 735.512 155.095 724.91 158.336C661.101 177.71 616.815 216.543 600.206 267.674C584.763 315.413 586.416 379.147 605.105 457.096C617.236 509.501 635.718 561.342 660.035 611.181C676.788 646.003 696.242 679.271 717.856 710.056C739.585 740.943 762.554 767.195 790.152 792.674C806.391 807.652 823.304 820.396 840.418 830.545ZM1317.18 141.994C1333.7 151.791 1349.9 163.846 1365.32 177.829C1400.47 209.272 1432.31 247.32 1457.42 287.846C1497.15 350.72 1519.95 419.302 1523.36 486.17C1526.36 544.342 1509.33 590.538 1472.76 623.475C1435.77 656.645 1374.34 677.46 1309.32 697.592C1250.17 715.81 1207.56 731.869 1171.18 749.663C1160.22 755.028 1149.77 760.582 1140.14 766.173C1119.61 778.181 1100.8 791.059 1082.61 803.511C1062.14 817.534 1042.79 830.774 1022.96 841.446C966.766 871.727 901.728 868.192 839.836 831.49C822.645 821.295 805.663 808.5 789.36 793.464C761.696 767.921 738.666 741.602 716.888 710.645C695.236 679.806 675.751 646.484 658.97 611.604C634.618 561.691 616.105 509.768 603.953 457.283C585.217 379.142 583.578 315.216 599.078 267.286C615.8 215.822 660.337 176.743 724.495 157.261C735.126 154.015 746.534 151.016 758.4 148.352C808.332 137.101 861.455 132.817 912.836 128.673C920.383 128.068 927.889 127.463 935.339 126.836C980.903 122.892 1021.82 118.223 1061.4 113.711C1078.23 111.787 1094.13 109.968 1109.66 108.301C1129.44 106.053 1147.09 104.832 1163.61 104.57C1223.98 103.767 1272.77 115.661 1317.18 141.994Z" fill="white"/>
<path d="M849.387 819.682C910.517 855.932 973.523 860.199 1026.8 831.698C1047.44 820.717 1067.19 807.094 1088.1 792.671C1104.64 781.261 1121.74 769.462 1140.4 758.214C1149.68 752.704 1159.76 747.188 1170.38 741.815C1205.6 723.992 1246.62 707.805 1303.37 689.334C1365.54 668.935 1424.27 647.925 1459.69 615.286C1494.59 583.017 1510.9 538.273 1508.15 482.288C1505.11 416.357 1482.22 350.155 1441.98 290.837C1417.08 252.694 1386.29 217.672 1350.44 186.745C1335.7 173.661 1320.24 162.293 1304.49 152.952C1261.27 127.321 1213.74 115.1 1154.93 114.486C1138.9 114.4 1121.84 115.211 1102.78 116.961C1080.52 118.712 1057.23 120.815 1032.57 123.045C1001.2 125.881 968.768 128.814 933.613 131.47L929.868 131.733C873.816 135.624 815.86 139.652 761.638 152.575C750.226 155.283 739.212 158.325 728.925 161.613C667.5 181.024 624.636 219.158 608.232 268.997C592.807 315.91 593.882 377.918 611.416 453.295C622.401 504.213 640.662 553.818 667.233 604.959C684.082 638.249 703.42 669.798 726.345 701.415C747.186 730.048 768.959 754.119 799.143 781.891C815.303 796.78 832.206 809.494 849.387 819.682ZM1305.07 152.005C1320.9 161.387 1336.42 172.804 1351.21 185.934C1387.14 216.935 1418.01 252.044 1442.96 290.277C1483.32 349.76 1506.28 416.162 1509.33 482.301C1512.09 538.605 1495.67 583.626 1460.53 616.114C1424.96 648.896 1366.1 669.956 1303.81 690.398C1247.11 708.85 1206.14 725.018 1170.98 742.814C1160.38 748.175 1150.32 753.682 1141.07 759.177C1122.44 770.405 1105.35 782.193 1088.83 793.592C1067.89 808.034 1048.12 821.675 1027.42 832.685C1001.22 846.699 972.514 852.866 942.094 851.01C910.992 849.113 879.604 838.89 848.806 820.627C831.55 810.394 814.575 797.624 798.349 782.676C768.1 754.843 746.277 730.721 725.391 702.016C702.426 670.348 683.056 638.747 666.179 605.406C639.561 554.179 621.269 504.478 610.265 453.472C592.684 377.905 591.617 315.705 607.104 268.609C623.617 218.439 666.727 180.06 728.497 160.546C738.816 157.245 749.848 154.203 761.295 151.485C815.607 138.541 873.617 134.511 929.723 130.614L933.454 130.351C968.594 127.694 1001.03 124.76 1032.39 121.927C1057.06 119.697 1080.35 117.591 1102.62 115.84C1121.7 114.09 1138.79 113.277 1154.87 113.362C1213.92 113.976 1261.65 126.255 1305.07 152.005Z" fill="white"/>
<path d="M858.504 808.926C918.449 844.473 981.546 849.623 1031.62 823.058C1053.25 811.708 1073.44 797.648 1094.83 782.764C1109.71 772.405 1125.09 761.697 1141.86 751.282C1150.78 745.861 1160.49 740.389 1170.74 735.02C1204.79 717.184 1244.23 700.882 1298.62 682.164C1358.16 661.457 1414.41 640.201 1448.49 607.905C1482 576.049 1497.71 532.417 1495.18 478.227C1492.47 412.956 1469.38 348.848 1428.41 292.824C1404.05 257.498 1373.31 224.328 1337.04 194.21C1322.92 181.96 1308.13 171.227 1293.06 162.295C1250.71 137.183 1204.14 124.53 1146.48 122.468C1130.87 122.034 1114.35 122.426 1095.96 123.674C1063.9 125.212 1029.3 127.57 992.677 130.063C973.081 131.401 952.821 132.782 931.678 134.125C876.658 137.111 818.414 141.165 764.224 154.818C753.182 157.579 742.531 160.669 732.553 164.006C673.418 183.452 631.918 220.932 615.705 269.541C600.287 315.689 600.81 376.056 617.252 448.967C627.265 498.91 645.324 546.398 674.098 598.426C690.755 629.664 710.556 660.467 734.647 692.617C757.291 722.696 778.723 744.163 808.091 771.084C824.23 785.929 841.19 798.66 858.504 808.926ZM1293.64 161.35C1308.77 170.32 1323.62 181.102 1337.79 193.395C1374.14 223.573 1404.96 256.83 1429.38 292.231C1470.47 348.427 1493.64 412.753 1496.36 478.244C1498.91 532.747 1483.08 576.649 1449.34 608.721C1415.11 641.167 1358.73 662.479 1299.08 683.224C1244.74 701.924 1205.35 718.204 1171.36 736.01C1161.13 741.37 1151.43 746.831 1142.53 752.235C1125.8 762.637 1110.42 773.335 1095.56 783.682C1074.14 798.59 1053.92 812.668 1032.24 824.049C981.786 850.813 918.25 845.647 857.921 809.873C840.532 799.562 823.5 786.775 807.298 771.872C777.879 744.905 756.403 723.39 733.699 693.236C709.573 661.035 689.736 630.18 673.062 598.899C644.229 546.771 626.131 499.18 616.099 449.132C599.609 376.039 599.1 315.48 614.58 269.146C630.906 220.216 672.642 182.494 732.113 162.939C742.11 159.597 752.795 156.499 763.862 153.731C818.157 140.054 876.467 135.992 931.54 133.004C952.673 131.66 972.935 130.281 992.528 128.946C1029.16 126.447 1063.76 124.091 1095.82 122.557C1114.24 121.304 1130.81 120.913 1146.45 121.345C1204.33 123.413 1251.1 136.124 1293.64 161.35Z" fill="white"/>
<path d="M867.183 798.954C926.645 834.213 988.058 840.028 1035.68 814.903C1058.35 803.12 1078.98 788.564 1100.82 773.154C1114.02 763.84 1127.68 754.207 1142.52 744.658C1151.07 739.319 1160.41 733.879 1170.31 728.49C1203.16 710.591 1241 694.115 1293 675.067C1347.59 654.812 1403.62 632.364 1436.33 600.361C1468.46 568.859 1483.63 526.31 1481.39 473.897C1479.1 409.276 1455.93 347.271 1414.38 294.585C1390.71 262.152 1360.1 230.859 1323.4 201.555C1309.96 190.174 1295.9 180.104 1281.59 171.621C1240.18 147.065 1194.59 134.018 1138.13 130.562C1122.97 129.794 1106.99 129.8 1089.27 130.571C1041.01 131.392 987.124 134.204 930.074 137.181C880.035 139.166 821.57 143.158 767.307 157.703C756.657 160.529 746.368 163.684 736.711 167.085C679.903 186.649 639.762 223.542 623.688 270.97C608.223 316.385 608.108 375.13 623.34 445.573C632.377 494.841 650.143 540.244 680.943 592.802C697.434 622.264 717.064 651.454 742.71 684.666C766.323 715.061 787.748 734.649 814.876 759.456L816.619 761.046C832.718 775.854 849.73 788.605 867.183 798.954ZM1282.17 170.674C1296.54 179.194 1310.66 189.302 1324.14 200.722C1360.91 230.084 1391.6 261.458 1415.32 293.959C1457.01 346.822 1480.27 409.057 1482.57 473.919C1484.82 526.636 1469.55 569.452 1437.19 601.166C1404.33 633.317 1348.18 655.824 1293.48 676.119C1241.53 695.147 1203.74 711.601 1170.93 729.471C1161.06 734.854 1151.73 740.28 1143.21 745.605C1128.39 755.135 1114.75 764.761 1101.56 774.071C1079.68 789.502 1059.02 804.081 1036.29 815.895C988.295 841.218 926.445 835.386 866.601 799.901C849.073 789.507 831.987 776.704 815.824 761.836L814.083 760.247C786.915 735.402 765.458 715.781 741.775 685.3C716.088 652.039 696.434 622.806 679.918 593.299C649.046 540.626 631.244 495.11 622.182 445.724C606.911 375.105 607.042 316.172 622.565 270.569C638.747 222.829 679.124 185.703 736.253 166.023C745.934 162.617 756.262 159.454 766.935 156.616C821.306 142.041 879.85 138.045 929.953 136.06C987.004 133.081 1040.9 130.27 1089.17 129.455C1106.91 128.677 1122.93 128.667 1138.13 129.438C1194.81 132.906 1240.58 146.012 1282.17 170.674Z" fill="white"/>
<path d="M876.12 788.075C935.085 823.038 994.789 829.566 1039.93 805.985C1063.69 793.801 1084.71 778.772 1106.96 762.86C1118.47 754.628 1130.37 746.117 1143.27 737.544C1151.57 732.221 1160.29 726.988 1169.93 721.533C1201.56 703.653 1237.78 687.084 1287.37 667.814C1339.36 647.305 1392.74 624.63 1424.07 592.989C1454.78 561.938 1469.33 520.557 1467.31 470.001C1465.34 406.121 1441.98 346.281 1399.75 296.947C1376.5 267.04 1346.83 238.445 1309.01 209.506C1296.28 199.004 1282.97 189.623 1269.44 181.603C1228.9 157.563 1184.24 144.052 1128.9 139.09C1114.18 137.964 1098.74 137.557 1081.71 137.835C1039.63 137.103 992.103 137.876 927.579 140.345C862.882 141.809 812.656 148.183 769.51 160.414C759.253 163.284 749.328 166.488 739.998 169.933C685.551 189.499 646.826 225.684 630.947 271.829C615.729 315.801 615.047 374.422 628.978 441.348C639.352 502.961 665.742 551.131 687.573 586.21C708.357 621.424 732.24 652.539 750.725 675.708C771.497 701.563 790.372 718.567 812.226 738.25C816.41 742.018 820.727 745.907 825.217 749.999C841.342 764.798 858.467 777.608 876.12 788.075ZM1270.03 180.656C1283.61 188.709 1296.97 198.129 1309.73 208.657C1347.62 237.652 1377.37 266.321 1400.67 296.286C1443.05 345.805 1466.51 405.89 1468.49 470.023C1470.52 520.88 1455.87 562.525 1424.95 593.783C1393.47 625.574 1339.97 648.301 1287.88 668.857C1238.33 688.11 1202.15 704.654 1170.58 722.508C1160.95 727.951 1152.25 733.174 1143.98 738.483C1131.1 747.041 1119.2 755.545 1107.7 763.77C1085.42 779.709 1064.37 794.764 1040.53 806.981C995.027 830.755 934.886 824.21 875.538 789.02C857.81 778.508 840.612 765.646 824.428 750.789C819.939 746.7 815.622 742.814 811.446 739.047C789.549 719.325 770.639 702.295 749.805 676.359C731.292 653.153 707.374 621.998 686.558 586.732C664.68 551.572 638.225 503.281 627.816 441.488C613.847 374.389 614.543 315.579 629.827 271.426C645.803 224.975 684.764 188.554 739.523 168.881C748.877 165.431 758.831 162.214 769.116 159.332C812.364 147.081 862.679 140.684 927.477 139.225C992.019 136.75 1039.56 135.975 1081.64 136.711C1098.69 136.429 1114.17 136.84 1128.93 137.969C1184.48 142.952 1229.31 156.515 1270.03 180.656Z" fill="white"/>
<path d="M885.528 777.475C942.984 811.542 1002.38 818.872 1044.41 797.089C1069.34 784.464 1090.71 768.899 1113.33 752.424C1123.15 745.266 1133.31 737.869 1144.28 730.308C1152.19 725.083 1160.54 719.89 1169.82 714.421C1199.8 696.76 1235.45 679.548 1282.01 660.256C1331.38 639.438 1382.1 616.482 1412.08 585.134C1441.39 554.483 1455.36 514.233 1453.6 465.503C1452.02 402.337 1428.55 344.646 1385.72 298.668C1363.1 271.443 1334.39 245.455 1295.34 216.859C1283.39 207.27 1270.91 198.608 1258.24 191.095C1218.57 167.575 1174.81 153.616 1120.54 147.151C1106.28 145.68 1091.39 144.865 1075.04 144.676C1030.82 142.344 982.095 141.879 926.051 143.248C866.808 143.583 815.231 150.235 772.739 163.03C762.885 165.955 753.32 169.216 744.312 172.718C692.229 192.347 654.899 227.887 639.189 272.805C623.948 316.011 622.644 372.906 635.419 437.339C644.547 497.326 670.578 543.051 694.836 579.863C714.506 611.54 737.417 640.458 759.243 666.985C778.1 689.727 794.623 704.211 813.749 720.981C820.241 726.669 826.948 732.554 834.209 739.152C850.373 753.974 867.637 766.867 885.528 777.475ZM1258.82 190.148C1271.54 197.692 1284.07 206.388 1296.05 215.998C1335.16 244.639 1363.94 270.696 1386.6 297.976C1429.61 344.138 1453.19 402.09 1454.78 465.532C1456.55 514.549 1442.48 555.051 1412.97 585.915C1382.85 617.41 1332.02 640.423 1282.53 661.289C1236.02 680.563 1200.42 697.753 1170.48 715.388C1161.22 720.844 1152.88 726.029 1145 731.236C1134.05 738.781 1123.89 746.177 1114.08 753.329C1091.42 769.834 1070.02 785.422 1045.01 798.085C1023.32 809.331 997.829 813.106 969.265 809.308C942.091 805.697 912.933 795.015 884.946 778.42C866.98 767.768 849.642 754.823 833.421 739.944C826.163 733.349 819.459 727.472 812.976 721.789C793.808 704.982 777.251 690.469 758.333 667.65C736.476 641.085 713.54 612.133 693.839 580.41C669.52 543.503 643.416 497.643 634.262 437.465C621.45 372.868 622.767 315.781 638.07 272.397C653.883 227.179 691.439 191.409 743.821 171.676C752.853 168.163 762.452 164.892 772.329 161.958C814.925 149.132 866.623 142.458 925.962 142.122C982.037 140.754 1030.79 141.222 1075.01 143.55C1091.37 143.743 1106.3 144.561 1120.61 146.037C1175.08 152.52 1218.99 166.533 1258.82 190.148Z" fill="white"/>
<path d="M894.776 766.785C951.54 800.44 1009.08 808.395 1048.69 788.066C1074.86 774.991 1095.52 759.621 1119.44 741.824C1127.61 735.744 1136.06 729.455 1145.13 722.974C1152.69 717.825 1160.68 712.676 1169.56 707.218C1198.33 689.55 1232.33 672.21 1276.56 652.642C1323.35 631.536 1371.43 608.33 1400.08 577.262C1427.98 547.006 1441.37 507.883 1439.85 460.974C1438.63 398.504 1415 342.939 1371.51 300.29C1343.62 269.039 1308.7 243.126 1281.4 224.036C1270.27 215.391 1258.68 207.481 1246.93 200.512C1208.04 177.458 1165.08 162.982 1111.73 154.946C1097.91 153.116 1083.56 151.895 1067.88 151.22C1022.33 147.103 975.252 145.327 923.921 145.785C868.672 145.078 817.273 151.799 775.26 165.22C765.796 168.2 756.593 171.517 747.898 175.071C698.163 194.731 662.211 229.625 646.673 273.323C627.393 326.959 633.052 389.719 641.181 432.917C649.197 491.654 674.923 535.038 701.525 573.172C720.926 602.814 742.783 629.109 767.281 657.964C784.844 678.48 799.771 691.1 817.056 705.717C825.121 712.536 833.463 719.591 842.816 728.066C859.081 742.961 876.564 755.987 894.776 766.785ZM1247.51 199.571C1259.31 206.567 1270.94 214.502 1282.09 223.158C1309.42 242.27 1344.41 268.241 1372.37 299.563C1416.05 342.403 1439.8 398.242 1441.03 461.009C1442.56 508.195 1429.08 547.57 1400.98 578.031C1372.2 609.244 1324 632.515 1277.11 653.666C1232.92 673.213 1198.97 690.533 1170.24 708.171C1161.37 713.623 1153.4 718.764 1145.86 723.892C1136.81 730.361 1128.36 736.646 1120.2 742.723C1096.23 760.552 1075.54 775.952 1049.29 789.062C1009.31 809.583 951.332 801.608 894.194 767.73C875.905 756.887 858.353 743.809 842.025 728.858C832.69 720.399 824.357 713.354 816.299 706.54C798.971 691.887 784.009 679.234 766.384 658.645C741.852 629.754 719.974 603.426 700.544 573.743C673.869 535.5 648.062 491.977 640.017 433.028C631.861 389.722 626.2 326.766 645.55 272.905C661.193 228.919 697.36 193.804 747.387 174.03C756.109 170.462 765.346 167.141 774.834 164.149C816.961 150.693 868.494 143.954 923.86 144.664C975.216 144.2 1022.33 145.979 1067.9 150.098C1083.58 150.775 1097.97 151.997 1111.84 153.831C1165.37 161.895 1208.48 176.43 1247.51 199.571Z" fill="white"/>
<path d="M904.23 757.271C960.233 790.475 1015.89 799.03 1053.11 780.154C1080.56 766.653 1101.41 750.75 1125.56 732.339C1132.13 727.33 1138.92 722.151 1146.16 716.782C1153.35 711.724 1160.98 706.619 1169.5 701.162C1197.05 683.51 1229.41 666.05 1271.35 646.21C1315.57 624.851 1361.03 601.417 1388.36 570.615C1414.87 540.759 1427.66 502.75 1426.37 457.653C1425.47 395.865 1401.63 342.405 1357.43 303.046C1333 277.752 1303.8 256.468 1267.46 232.287C1257.25 224.626 1246.64 217.52 1235.9 211.152C1197.7 188.504 1155.4 173.429 1102.77 163.707C1089.36 161.503 1075.54 159.871 1060.53 158.715C1014.57 152.7 969.101 149.59 921.483 149.202C869.027 147.477 819.199 154.05 777.365 168.215C768.282 171.246 759.439 174.608 751.064 178.217C703.636 197.889 669.057 232.118 653.697 274.612C634.405 327.307 639.166 387.819 646.557 429.307C653.187 483.881 675.898 523.961 707.954 567.357C727.134 595.123 748.891 619.931 771.926 646.196L775.157 649.879C791.831 668.737 805.635 679.919 821.624 692.866C830.829 700.322 840.348 708.028 851.358 717.973C867.806 733.001 885.593 746.221 904.23 757.271ZM1236.48 210.208C1247.26 216.599 1257.91 223.728 1268.13 231.398C1304.51 255.603 1333.77 276.934 1358.24 302.274C1402.66 341.833 1426.64 395.585 1427.55 457.693C1428.85 503.059 1415.98 541.31 1389.28 571.368C1361.82 602.319 1316.25 625.812 1271.92 647.222C1230.02 667.042 1197.7 684.482 1170.19 702.106C1161.69 707.553 1154.08 712.652 1146.91 717.691C1139.69 723.048 1132.89 728.225 1126.33 733.233C1102.13 751.679 1081.24 767.61 1053.7 781.157C1016.12 800.217 960.024 791.642 903.648 758.217C884.937 747.124 867.079 733.851 850.568 718.768C839.589 708.849 830.086 701.153 820.891 693.709C804.859 680.725 791.01 669.508 774.27 650.577L771.037 646.885C747.976 620.594 726.197 595.759 706.995 567.954C674.831 524.422 652.039 484.194 645.389 429.405C637.978 387.819 633.211 327.102 652.577 274.19C668.042 231.422 702.829 196.97 750.535 177.185C758.931 173.567 767.808 170.189 776.918 167.154C818.878 152.941 868.854 146.347 921.444 148.074C969.095 148.465 1014.61 151.579 1060.59 157.595C1075.61 158.755 1089.46 160.394 1102.91 162.597C1155.71 172.358 1198.15 187.481 1236.48 210.208Z" fill="white"/>
<path d="M914.252 747.032C969.214 779.617 1022.79 788.651 1057.58 771.187C1086.26 757.27 1107.17 740.835 1131.38 721.807C1136.42 717.844 1141.64 713.74 1147.14 709.486C1153.98 704.513 1161.24 699.448 1169.36 693.995C1195.64 676.359 1226.33 658.758 1265.94 638.611C1307.53 616.977 1350.33 593.298 1376.32 562.73C1401.43 533.263 1413.64 496.392 1412.6 453.144C1412.09 392.08 1388.14 340.779 1343.35 304.778C1318.66 281.28 1289.41 262.184 1253.75 239.654C1244.63 233.064 1235.18 226.87 1225.63 221.209C1188.11 198.967 1146.4 183.26 1094.37 171.787C1081.4 169.225 1068.13 167.188 1053.82 165.566C1008.08 157.657 964.293 153.259 919.937 152.112C870.815 149.493 821.336 156.146 780.589 170.836C771.903 173.92 763.421 177.341 755.38 181.005C710.335 200.707 677.154 234.293 661.947 275.571C642.618 327.311 646.421 385.535 653.015 425.267C658.677 478.984 681.983 518.359 715.231 560.959C732.798 585.079 752.486 606.744 773.332 629.68C776.757 633.45 780.208 637.247 783.684 641.095C799.688 658.644 813.271 669.126 827.648 680.22C837.668 687.953 848.029 695.946 860.359 707.058C877.018 722.257 895.148 735.705 914.252 747.032ZM1226.21 220.259C1235.79 225.938 1245.27 232.163 1254.39 238.75C1290.09 261.295 1319.38 280.425 1344.12 303.968C1389.16 340.171 1413.27 391.782 1413.78 453.187C1414.82 496.697 1402.53 533.803 1377.26 563.471C1351.13 594.181 1308.24 617.921 1266.54 639.609C1226.97 659.735 1196.31 677.315 1170.07 694.927C1161.96 700.372 1154.71 705.428 1147.9 710.388C1142.42 714.626 1137.2 718.73 1132.16 722.693C1107.9 741.76 1086.95 758.225 1058.17 772.194C1023.02 789.835 969.003 780.783 913.67 747.978C894.492 736.608 876.289 723.108 859.571 707.855C847.279 696.779 836.938 688.797 826.939 681.08C812.515 669.951 798.89 659.434 782.813 641.803C779.331 637.955 775.886 634.158 772.46 630.39C751.59 607.427 731.874 585.736 714.285 561.583C680.922 518.835 657.53 479.301 651.851 425.351C645.236 385.523 641.423 327.101 660.83 275.145C676.137 233.598 709.519 199.8 754.828 179.982C762.891 176.304 771.405 172.873 780.124 169.784C821.01 155.039 870.654 148.363 919.924 150.989C964.325 152.137 1008.17 156.542 1053.93 164.454C1068.24 166.077 1081.54 168.115 1094.56 170.69C1146.75 182.194 1188.58 197.946 1226.21 220.259Z" fill="white"/>
<path d="M924.256 736.784C978.854 769.152 1029.01 778.377 1061.87 762.091C1091.73 747.819 1111.55 731.7 1136.65 711.29C1140.3 708.319 1144.06 705.259 1147.99 702.094C1154.47 697.191 1161.37 692.171 1169.08 686.737C1194.09 669.14 1223.12 651.414 1260.45 630.955C1297.72 610.048 1339.57 585.193 1364.25 554.833C1387.96 525.758 1399.57 490.017 1398.78 448.606C1398.62 388.26 1374.51 339.097 1329.06 306.418C1305.74 286.206 1277.6 269.432 1247.8 251.681L1239.72 246.865C1231.91 241.454 1223.85 236.279 1215.72 231.464C1178.71 209.52 1137.33 193.04 1085.49 179.608C1072.96 176.673 1060.22 174.224 1046.6 172.142C1000.74 162.137 959.811 156.585 917.764 154.669C870.98 151.136 823.16 157.659 783.096 173.03C774.798 176.164 766.675 179.632 758.954 183.36C716.268 203.07 684.477 235.994 669.43 276.07C650.068 326.863 652.956 382.81 658.793 420.798C664.082 479.666 692.888 518.976 721.936 554.195C738.227 575.374 756.301 594.465 775.43 614.674C780.81 620.355 786.257 626.109 791.751 632C807.295 648.524 820.22 657.974 833.903 667.981C844.545 675.76 855.547 683.808 868.991 695.889C885.727 711.131 904.838 725.272 924.256 736.784ZM1216.31 230.518C1224.45 235.348 1232.54 240.537 1240.35 245.946L1248.39 250.736C1278.23 268.522 1306.42 285.319 1329.79 305.572C1375.52 338.447 1399.8 387.938 1399.96 448.66C1400.76 490.314 1389.07 526.28 1365.2 555.551C1340.4 586.054 1298.46 610.975 1261.09 631.938C1223.78 652.38 1194.79 670.084 1169.82 687.658C1162.12 693.08 1155.23 698.093 1148.77 702.981C1144.86 706.133 1141.09 709.193 1137.44 712.163C1112.29 732.615 1092.43 748.773 1062.46 763.098C1029.23 779.564 978.646 770.321 923.673 737.73C904.182 726.175 884.999 711.98 868.202 696.686C854.812 684.65 843.833 676.621 833.214 668.856C819.482 658.817 806.515 649.331 790.89 632.722C785.392 626.829 779.951 621.079 774.575 615.403C755.418 595.167 737.324 576.052 721.016 554.85C691.859 519.495 662.934 480.021 657.62 420.865C651.769 382.783 648.876 326.643 668.319 275.637C683.46 235.305 715.448 202.174 758.382 182.342C766.13 178.61 774.279 175.121 782.605 171.984C822.824 156.55 870.829 150 917.772 153.541C959.874 155.467 1000.87 161.023 1046.76 171.034C1060.38 173.126 1073.14 175.573 1085.72 178.523C1137.7 191.99 1179.18 208.508 1216.31 230.518Z" fill="white"/>
<path d="M934.42 727.69C987.524 759.172 1035.44 768.67 1065.87 753.746C1096.78 739.154 1115.37 723.41 1141.1 701.616C1143.52 699.566 1146 697.465 1148.57 695.306C1154.72 690.452 1161.25 685.464 1168.55 680.046C1192.24 662.478 1219.62 644.579 1254.73 623.709C1297.87 597.437 1330.93 574.359 1351.99 547.16C1374.32 518.407 1385.38 483.76 1384.87 444.172C1385.14 384.498 1360.96 337.457 1314.93 308.131C1304.87 300.277 1293.3 292.531 1278.44 283.726C1267.69 277.348 1256.56 271.201 1244.79 264.695C1238.6 261.271 1232.31 257.798 1225.96 254.224C1219.84 250.175 1213.56 246.238 1207.26 242.504C1170.08 220.465 1129.93 203.569 1077.05 187.715C1065.11 184.449 1052.59 181.53 1039.84 179.036C994.759 167.065 955.466 160.283 916.154 157.685C871.57 153.314 825.43 159.773 786.208 175.867C778.277 179.07 770.516 182.613 763.145 186.393C722.82 206.163 692.396 238.492 677.457 277.431C657.997 327.359 659.902 381.061 664.925 417.318C669.176 475.476 697.565 512.531 728.806 548.455C743.999 567.181 760.722 584.102 778.431 602.023C785.397 609.074 792.608 616.369 799.831 623.893C815.027 639.577 827.43 648.132 840.557 657.185C851.666 664.847 863.149 672.764 877.514 685.66C894.65 701.244 914.323 715.777 934.42 727.69ZM1279.03 282.778C1293.93 291.612 1305.55 299.386 1315.6 307.24C1361.94 336.769 1386.33 384.146 1386.05 444.227C1386.56 484.051 1375.43 518.92 1352.95 547.857C1331.79 575.188 1298.65 598.331 1255.39 624.671C1220.32 645.523 1192.97 663.403 1169.31 680.948C1162.02 686.359 1155.49 691.341 1149.36 696.178C1146.82 698.324 1144.33 700.427 1141.91 702.477C1116.12 724.323 1097.48 740.106 1066.44 754.756C1035.65 769.858 987.312 760.34 933.836 728.638C913.666 716.681 893.92 702.095 876.728 686.457C862.424 673.62 850.977 665.724 839.903 658.085C826.721 648.993 814.269 640.407 798.983 624.629C791.759 617.109 784.556 609.819 777.593 602.772C759.861 584.829 743.115 567.884 727.899 549.127C696.535 513.066 668.02 475.839 663.746 417.37C658.718 381.023 656.809 327.129 676.347 276.993C691.38 237.812 721.99 205.275 762.551 185.388C769.945 181.597 777.734 178.042 785.698 174.829C825.091 158.663 871.434 152.177 916.197 156.567C955.57 159.168 994.937 165.958 1040.06 177.941C1052.79 180.43 1065.34 183.357 1077.33 186.635C1130.32 202.527 1170.57 219.463 1207.84 241.558C1214.16 245.304 1220.46 249.25 1226.56 253.287C1232.87 256.835 1239.15 260.31 1245.34 263.728C1257.12 270.24 1268.25 276.39 1279.03 282.778Z" fill="white"/>
<path d="M1300.8 310.697C1295.8 307.225 1290.5 303.835 1284.54 300.301C1270.73 292.115 1255.76 284.58 1239.91 276.601C1230.85 272.039 1221.48 267.325 1212 262.315C1208.26 259.969 1204.47 257.658 1200.69 255.417C1163.42 233.323 1122.54 215.093 1068.13 196.311C1056.57 192.65 1044.61 189.297 1032.56 186.353C987.712 172.113 951.117 164.257 913.857 160.886C871.288 155.596 826.803 161.875 788.573 178.561C781.024 181.799 773.628 185.384 766.584 189.208C728.098 209.196 699.847 239.978 684.886 278.244C665.417 327.189 666.466 378.56 670.77 413.038C674.145 470.48 702.193 505.356 735.746 541.845C750.078 558.516 765.741 573.61 782.314 589.588C790.747 597.717 799.462 606.121 808.232 614.963C823.239 629.968 835.264 637.743 847.99 645.971C859.482 653.399 871.364 661.081 886.577 674.691C904.288 690.748 924.721 705.801 945.667 718.218C997.128 748.725 1042.71 758.477 1070.72 744.981C1102.48 730.274 1119.66 715.097 1145.68 692.124L1149.93 688.376C1155.76 683.58 1161.92 678.648 1168.79 673.283C1191.4 655.636 1216.35 638.182 1249.7 616.68C1289.72 590.241 1320.45 567.087 1340.33 540.037C1361.23 511.707 1371.67 478.227 1371.36 440.528C1371.9 383.231 1348.75 339.058 1304.39 312.764C1303.21 312.062 1302.01 311.368 1300.8 310.697ZM1285.12 299.352C1291.11 302.903 1296.44 306.311 1301.41 309.766C1302.57 310.417 1303.78 311.11 1304.97 311.817C1349.72 338.346 1373.09 382.871 1372.54 440.588C1372.85 478.511 1362.35 512.199 1341.31 540.716C1321.34 567.894 1290.53 591.112 1250.41 617.621C1217.08 639.106 1192.15 656.545 1169.57 674.168C1162.71 679.529 1156.55 684.454 1150.74 689.234L1146.51 692.971C1120.42 716.006 1103.19 731.225 1071.29 745.994C1042.92 759.668 996.913 749.889 945.084 719.165C924.064 706.704 903.562 691.601 885.79 675.486C870.654 661.946 858.815 654.293 847.368 646.892C834.578 638.622 822.501 630.814 807.398 615.713C798.638 606.88 789.926 598.483 781.496 590.356C764.899 574.355 749.219 559.238 734.865 542.542C702.413 507.249 672.986 470.779 669.596 413.072C665.282 378.51 664.23 326.948 683.774 277.794C698.831 239.295 727.258 208.322 765.963 188.219C773.028 184.382 780.456 180.783 788.03 177.53C826.452 160.765 871.162 154.454 913.925 159.768C951.255 163.145 987.941 171.017 1032.83 185.277C1044.87 188.213 1056.86 191.575 1068.46 195.251C1122.97 214.067 1163.93 232.329 1201.28 254.471C1205.06 256.716 1208.86 259.036 1212.57 261.36C1222 266.342 1231.36 271.054 1240.42 275.61C1256.29 283.599 1271.27 291.148 1285.12 299.352Z" fill="white"/>
<path d="M956.371 709.49C1005.79 738.785 1048.83 748.615 1074.46 736.462C1106.83 721.709 1122.5 707.198 1148.45 683.164L1150.22 681.517C1155.75 676.748 1161.56 671.855 1167.98 666.547C1189.11 649.098 1212.45 631.505 1243.67 609.504C1275.6 586.442 1307.88 561.159 1327.73 532.554C1347.24 504.565 1357.09 472.206 1357.04 436.363C1357.89 383.063 1337.14 342.329 1297.04 318.555C1293.54 316.483 1289.86 314.513 1286.08 312.705C1285.3 312.231 1284.57 311.798 1283.84 311.361C1268.64 302.354 1251.42 294.624 1233.19 286.446C1221.66 281.274 1209.75 275.93 1197.57 269.921C1149.35 241.419 1100.41 220.892 1058.89 204.56C1047.72 200.496 1036.31 196.722 1024.98 193.363C995.46 182.37 955.903 169.092 911.358 163.91C871.305 157.867 827.359 164.201 790.762 181.277C783.597 184.572 776.563 188.211 769.858 192.099C733.785 212.06 706.885 242.226 692.041 279.332C672.497 327.393 672.621 376.485 676.167 409.203C678.599 465.948 707.429 500.072 742.02 535.729C755.581 550.63 770.308 564.138 785.898 578.439C795.626 587.362 805.682 596.589 815.824 606.507C830.693 620.93 842.406 627.993 854.806 635.472C866.58 642.571 878.764 649.916 894.709 664.144C912.882 680.586 934.778 696.69 956.371 709.49ZM1297.62 317.608C1338.13 341.618 1359.08 382.71 1358.22 436.435C1358.28 472.48 1348.36 505.046 1328.72 533.214C1308.78 561.942 1276.42 587.296 1244.41 610.419C1213.21 632.406 1189.88 649.986 1168.78 667.417C1162.36 672.716 1156.57 677.604 1151.06 682.359L1149.3 683.991C1123.27 708.101 1107.55 722.655 1075.02 737.476C1049.04 749.803 1005.57 739.949 955.788 710.437C934.124 697.594 912.154 681.439 893.924 664.943C878.074 650.797 865.944 643.484 854.216 636.412C841.75 628.897 829.98 621.797 814.999 607.269C804.873 597.363 794.827 588.145 785.105 579.231C769.495 564.909 754.749 551.385 741.159 536.455C706.411 500.636 677.437 466.329 674.984 409.221C671.427 376.415 671.308 327.14 690.94 278.88C705.869 241.551 732.937 211.203 769.21 191.118C775.94 187.226 783.005 183.566 790.204 180.261C826.996 163.083 871.193 156.72 911.458 162.797C956.114 167.989 995.766 181.298 1025.32 192.304C1036.62 195.655 1048.06 199.434 1059.27 203.518C1100.85 219.871 1149.85 240.427 1198.11 268.948C1210.22 274.923 1222.13 280.266 1233.64 285.431C1252.79 294.022 1270.83 302.117 1286.62 311.736C1290.37 313.533 1294.09 315.516 1297.62 317.608Z" fill="white"/>
<path d="M968.815 700.76C996.437 717.134 1047.53 742.383 1079.39 727.537C1112.1 712.88 1126.13 699.199 1151.61 674.361C1156.96 669.492 1162.4 664.644 1168.32 659.448C1193.24 637.603 1219.06 617.27 1238.77 601.988C1267.97 578.806 1297.56 553.399 1316.22 524.781C1334.34 497.127 1343.61 465.896 1343.79 431.946C1344.91 382.281 1326.31 344.657 1290 323.134C1284.56 319.908 1278.66 316.997 1272.45 314.49C1258.59 307.257 1243.02 301.195 1226.52 294.777C1212.89 289.47 1198.79 283.979 1184.24 277.319C1143.21 254.671 1101.22 235.071 1050.78 212.603C1039.97 208.109 1029.11 203.922 1018.54 200.169C987.962 186.969 951.195 172.7 910.021 166.728C871.777 159.852 829.552 166.066 794.156 183.764C787.376 187.107 780.703 190.801 774.325 194.749C740.706 214.66 715.158 244.186 700.433 280.15C680.798 327.321 680.01 374.102 682.808 405.044C684.341 461.202 712.667 493.222 749.536 529.247C762.44 542.614 776.359 554.733 791.1 567.567C802.002 577.056 813.273 586.869 824.655 597.662C836.216 608.55 845.652 614.682 853.354 619.247C856.596 621.169 859.726 622.922 863.048 624.779C866.331 626.614 869.738 628.517 873.216 630.578C880.796 635.072 891.153 641.705 904.069 653.203C923.169 670.444 946.164 687.333 968.815 700.76ZM1290.59 322.184C1327.3 343.947 1346.11 381.925 1344.97 432.026C1344.79 465.688 1335.2 497.983 1317.24 525.413C1298.5 554.158 1268.83 579.63 1239.55 602.874C1219.85 618.148 1194.05 638.466 1169.15 660.298C1163.23 665.485 1157.8 670.329 1152.54 675.113C1126.91 700.097 1112.83 713.825 1079.95 728.557C1047.59 743.636 996.067 718.207 968.232 701.708C945.509 688.237 922.443 671.296 903.283 654.003C890.453 642.577 880.167 635.989 872.634 631.524C869.168 629.469 865.774 627.577 862.49 625.741C859.314 623.964 856.025 622.126 852.769 620.196C845.006 615.594 835.504 609.416 823.846 598.439C812.486 587.662 801.222 577.856 790.327 568.374C775.57 555.53 761.626 543.391 748.703 529.996C711.646 493.795 683.174 461.591 681.624 405.042C678.818 374.017 679.617 327.05 699.33 279.686C714.14 243.515 739.839 213.808 773.655 193.787C780.051 189.823 786.753 186.116 793.565 182.759C829.184 164.948 871.679 158.699 910.153 165.625C951.461 171.606 988.324 185.918 1018.93 199.129C1029.5 202.875 1040.37 207.077 1051.21 211.581C1101.7 234.069 1143.72 253.685 1184.74 276.327C1199.21 282.954 1213.3 288.434 1226.92 293.737C1243.44 300.17 1259.06 306.242 1272.92 313.483C1279.13 315.991 1285.09 318.925 1290.59 322.184Z" fill="white"/>
<path d="M981.077 692.982C1025.96 719.588 1062.41 728.884 1083.7 719.16C1116.5 704.726 1129.32 691.525 1152.6 667.568C1157.68 662.672 1162.75 657.862 1168.13 652.845C1190.13 632.289 1212.5 612.861 1233.39 594.927C1258.61 572.773 1286.76 546.223 1304.32 517.383C1320.81 490.412 1329.75 459.445 1330.16 427.824C1331.53 380.755 1315.28 346.845 1281.85 327.027C1274.77 322.832 1266.86 319.277 1258.34 316.459C1246.19 311.179 1232.74 306.798 1218.5 302.16C1203.01 297.116 1186.99 291.898 1170.32 284.856C1145.59 272.251 1120.99 260.045 1094.95 247.122C1077.69 238.563 1059.85 229.709 1041.93 220.715C1031.42 215.741 1021.12 211.133 1011.32 207.016C980.049 191.53 945.895 176.288 907.801 169.551C871.25 161.835 830.704 167.929 796.551 186.257C790.137 189.652 783.823 193.402 777.781 197.41C746.595 217.249 722.372 246.171 707.739 281.047C687.992 327.401 686.297 371.904 688.359 401.08C689.017 456.738 716.836 486.754 756.058 523.084C768.378 535.113 781.618 546.021 795.631 557.566C807.629 567.454 820.04 577.678 832.583 589.214C840.361 596.324 847.907 601.958 856.316 606.943C861.162 609.815 865.737 612.17 870.577 614.659C875.419 617.147 880.432 619.726 885.74 622.872C895.044 628.387 903.584 634.691 912.608 642.713C932.647 660.745 957.601 679.065 981.077 692.982ZM1282.43 326.076C1316.28 346.139 1332.73 380.403 1331.34 427.914C1330.93 459.708 1321.94 490.861 1305.35 517.989C1287.72 546.954 1259.5 573.567 1234.21 595.784C1213.33 613.709 1190.97 633.128 1168.98 653.67C1163.61 658.684 1158.53 663.493 1153.47 668.367C1130.11 692.416 1117.24 705.667 1084.25 720.184C1062.6 730.077 1025.74 720.753 980.493 693.93C956.949 679.974 931.921 661.597 911.825 643.512C902.864 635.553 894.392 629.292 885.158 623.819C879.886 620.694 874.89 618.126 870.062 615.643C865.204 613.146 860.61 610.785 855.731 607.893C847.243 602.861 839.637 597.178 831.79 590.005C819.269 578.493 806.874 568.278 794.89 558.404C780.85 546.838 767.594 535.914 755.244 523.862C715.816 487.338 687.842 457.143 687.176 401.059C685.112 371.802 686.811 327.12 706.644 280.579C721.358 245.504 745.715 216.42 777.08 196.467C783.143 192.446 789.486 188.678 795.925 185.261C830.324 166.811 871.162 160.678 907.974 168.441C946.204 175.211 980.462 190.494 1011.79 206.002C1021.57 210.109 1031.88 214.728 1042.43 219.715C1060.35 228.719 1078.2 237.571 1095.44 246.128C1121.49 259.053 1146.1 271.257 1170.79 283.85C1187.37 290.85 1203.36 296.057 1218.82 301.097C1233.09 305.745 1246.57 310.134 1258.73 315.416C1267.28 318.24 1275.27 321.833 1282.43 326.076Z" fill="white"/>
<path d="M362.006 1352.67C361.99 1351.03 362.345 1349.56 363.072 1348.28C363.815 1346.97 364.826 1345.97 366.106 1345.26C367.402 1344.53 368.855 1344.17 370.464 1344.18C372.347 1344.19 374.001 1344.68 375.427 1345.64C376.853 1346.61 377.856 1347.93 378.437 1349.63L374.55 1349.61C374.156 1348.81 373.603 1348.21 372.891 1347.8C372.195 1347.4 371.388 1347.2 370.471 1347.19C369.489 1347.19 368.614 1347.41 367.847 1347.87C367.095 1348.31 366.506 1348.95 366.08 1349.77C365.67 1350.6 365.471 1351.57 365.482 1352.69C365.494 1353.79 365.713 1354.76 366.14 1355.61C366.583 1356.44 367.185 1357.09 367.946 1357.55C368.723 1358 369.602 1358.23 370.584 1358.24C371.501 1358.24 372.303 1358.05 372.991 1357.65C373.695 1357.24 374.236 1356.64 374.614 1355.84L378.5 1355.87C377.955 1357.57 376.978 1358.89 375.572 1359.84C374.182 1360.77 372.537 1361.23 370.638 1361.22C369.029 1361.22 367.569 1360.85 366.258 1360.12C364.963 1359.38 363.931 1358.37 363.162 1357.07C362.408 1355.78 362.023 1354.31 362.006 1352.67ZM380.503 1354.47C380.49 1353.13 380.743 1351.94 381.263 1350.91C381.8 1349.88 382.524 1349.08 383.436 1348.53C384.363 1347.98 385.398 1347.7 386.541 1347.71C387.539 1347.72 388.41 1347.92 389.154 1348.32C389.914 1348.72 390.523 1349.23 390.98 1349.84L390.96 1347.95L394.364 1347.97L394.499 1361.21L391.096 1361.19L391.076 1359.26C390.648 1359.88 390.05 1360.39 389.281 1360.8C388.529 1361.19 387.654 1361.39 386.656 1361.38C385.53 1361.38 384.497 1361.08 383.558 1360.51C382.635 1359.93 381.894 1359.12 381.337 1358.08C380.795 1357.02 380.517 1355.82 380.503 1354.47ZM391.028 1354.57C391.02 1353.76 390.852 1353.06 390.524 1352.49C390.196 1351.9 389.757 1351.45 389.207 1351.14C388.656 1350.82 388.068 1350.66 387.44 1350.66C386.812 1350.65 386.235 1350.8 385.707 1351.1C385.179 1351.4 384.749 1351.84 384.417 1352.43C384.101 1353 383.947 1353.69 383.955 1354.48C383.963 1355.28 384.131 1355.98 384.459 1356.59C384.803 1357.18 385.242 1357.64 385.777 1357.96C386.327 1358.28 386.908 1358.44 387.52 1358.45C388.147 1358.45 388.733 1358.3 389.277 1358C389.821 1357.69 390.251 1357.24 390.567 1356.67C390.883 1356.08 391.036 1355.38 391.028 1354.57ZM400.998 1343.56L401.179 1361.25L397.8 1361.23L397.619 1343.54L400.998 1343.56ZM410.458 1361.51C409.171 1361.51 408.009 1361.22 406.973 1360.66C405.938 1360.08 405.117 1359.27 404.511 1358.23C403.921 1357.19 403.619 1355.99 403.605 1354.64C403.591 1353.28 403.877 1352.09 404.462 1351.06C405.063 1350.03 405.883 1349.23 406.924 1348.68C407.964 1348.11 409.127 1347.83 410.415 1347.84C411.702 1347.85 412.872 1348.14 413.924 1348.72C414.975 1349.28 415.804 1350.08 416.41 1351.12C417.032 1352.16 417.35 1353.36 417.364 1354.71C417.378 1356.07 417.076 1357.26 416.459 1358.29C415.858 1359.33 415.03 1360.13 413.974 1360.7C412.933 1361.25 411.761 1361.52 410.458 1361.51ZM410.428 1358.6C411.04 1358.6 411.609 1358.46 412.138 1358.18C412.682 1357.88 413.112 1357.43 413.427 1356.84C413.743 1356.26 413.897 1355.54 413.888 1354.7C413.875 1353.44 413.527 1352.47 412.845 1351.8C412.178 1351.11 411.362 1350.76 410.396 1350.76C409.431 1350.75 408.622 1351.09 407.969 1351.77C407.332 1352.44 407.02 1353.4 407.033 1354.66C407.046 1355.92 407.369 1356.89 408.004 1357.58C408.655 1358.25 409.463 1358.59 410.428 1358.6ZM423.176 1350.18C423.603 1349.48 424.16 1348.93 424.848 1348.54C425.552 1348.15 426.355 1347.95 427.256 1347.96L427.292 1351.47L426.399 1351.46C425.337 1351.46 424.535 1351.7 423.993 1352.19C423.467 1352.68 423.21 1353.54 423.222 1354.77L423.29 1361.37L419.911 1361.35L419.775 1348.11L423.155 1348.12L423.176 1350.18ZM431.232 1346.59C430.636 1346.59 430.136 1346.4 429.73 1346.03C429.34 1345.65 429.142 1345.18 429.136 1344.62C429.13 1344.06 429.319 1343.6 429.701 1343.24C430.1 1342.86 430.596 1342.67 431.192 1342.67C431.787 1342.67 432.28 1342.87 432.67 1343.25C433.076 1343.62 433.282 1344.08 433.288 1344.64C433.293 1345.2 433.097 1345.67 432.699 1346.05C432.316 1346.41 431.827 1346.59 431.232 1346.59ZM432.914 1348.18L433.049 1361.42L429.669 1361.4L429.534 1348.16L432.914 1348.18ZM448.748 1354.6C448.753 1355.08 448.725 1355.51 448.665 1355.89L438.889 1355.84C438.979 1356.79 439.325 1357.54 439.926 1358.09C440.527 1358.63 441.261 1358.91 442.13 1358.91C443.386 1358.92 444.273 1358.39 444.793 1357.33L448.438 1357.35C448.065 1358.62 447.336 1359.67 446.25 1360.49C445.164 1361.29 443.824 1361.69 442.231 1361.69C440.944 1361.68 439.782 1361.39 438.747 1360.83C437.727 1360.25 436.922 1359.44 436.332 1358.4C435.759 1357.36 435.465 1356.17 435.451 1354.81C435.437 1353.44 435.706 1352.24 436.259 1351.21C436.812 1350.17 437.592 1349.38 438.6 1348.83C439.608 1348.28 440.772 1348.01 442.092 1348.01C443.363 1348.02 444.5 1348.3 445.503 1348.84C446.523 1349.39 447.311 1350.17 447.868 1351.18C448.442 1352.17 448.735 1353.31 448.748 1354.6ZM445.238 1353.62C445.213 1352.76 444.893 1352.08 444.276 1351.56C443.659 1351.03 442.908 1350.77 442.023 1350.76C441.186 1350.76 440.481 1351.01 439.907 1351.51C439.349 1352.01 439.01 1352.7 438.89 1353.59L445.238 1353.62ZM456.405 1361.76C455.311 1361.76 454.327 1361.56 453.454 1361.17C452.581 1360.77 451.884 1360.23 451.362 1359.56C450.856 1358.89 450.575 1358.15 450.518 1357.33L453.922 1357.35C453.991 1357.86 454.245 1358.28 454.683 1358.62C455.137 1358.96 455.694 1359.13 456.354 1359.13C456.997 1359.14 457.495 1359.01 457.846 1358.76C458.214 1358.51 458.396 1358.18 458.392 1357.78C458.387 1357.35 458.159 1357.03 457.706 1356.82C457.269 1356.6 456.567 1356.35 455.599 1356.09C454.598 1355.85 453.775 1355.6 453.129 1355.34C452.499 1355.08 451.948 1354.69 451.476 1354.16C451.02 1353.63 450.787 1352.92 450.778 1352.03C450.771 1351.29 450.973 1350.63 451.385 1350.02C451.813 1349.42 452.42 1348.95 453.205 1348.6C454.006 1348.25 454.946 1348.08 456.024 1348.09C457.617 1348.1 458.892 1348.5 459.85 1349.3C460.807 1350.09 461.341 1351.15 461.451 1352.49L458.217 1352.47C458.163 1351.95 457.934 1351.53 457.528 1351.23C457.139 1350.91 456.614 1350.74 455.954 1350.74C455.343 1350.74 454.869 1350.85 454.534 1351.07C454.214 1351.29 454.056 1351.6 454.06 1352C454.065 1352.44 454.294 1352.79 454.747 1353.03C455.2 1353.25 455.902 1353.49 456.854 1353.73C457.822 1353.98 458.621 1354.23 459.251 1354.49C459.881 1354.75 460.424 1355.15 460.88 1355.69C461.353 1356.22 461.601 1356.92 461.626 1357.8C461.634 1358.56 461.424 1359.25 460.995 1359.85C460.583 1360.45 459.977 1360.93 459.176 1361.28C458.39 1361.61 457.467 1361.77 456.405 1361.76Z" fill="black"/>
<path d="M379.593 1434.63C379.602 1435.52 379.393 1436.36 378.966 1437.13C378.556 1437.91 377.894 1438.54 376.982 1439.01C376.085 1439.48 374.945 1439.72 373.561 1439.71L370.737 1439.69L370.801 1446.1L367.422 1446.08L367.255 1429.39L373.459 1429.43C374.762 1429.44 375.875 1429.67 376.796 1430.12C377.718 1430.57 378.408 1431.19 378.866 1431.97C379.341 1432.75 379.583 1433.64 379.593 1434.63ZM373.389 1437.01C374.323 1437.01 375.013 1436.81 375.459 1436.4C375.905 1435.97 376.125 1435.37 376.117 1434.61C376.101 1432.98 375.176 1432.16 373.341 1432.15L370.662 1432.14L370.71 1436.99L373.389 1437.01ZM385.375 1435C385.802 1434.3 386.36 1433.75 387.048 1433.36C387.752 1432.96 388.555 1432.77 389.456 1432.77L389.491 1436.29L388.598 1436.28C387.536 1436.28 386.733 1436.52 386.191 1437.01C385.665 1437.5 385.408 1438.36 385.42 1439.59L385.486 1446.18L382.107 1446.16L381.975 1432.92L385.354 1432.94L385.375 1435ZM397.806 1446.47C396.518 1446.46 395.357 1446.18 394.322 1445.61C393.286 1445.03 392.465 1444.23 391.86 1443.19C391.27 1442.15 390.968 1440.95 390.955 1439.6C390.941 1438.24 391.227 1437.05 391.812 1436.01C392.413 1434.98 393.234 1434.19 394.274 1433.64C395.315 1433.07 396.479 1432.79 397.766 1432.8C399.053 1432.81 400.223 1433.1 401.274 1433.68C402.326 1434.24 403.154 1435.05 403.76 1436.08C404.382 1437.12 404.7 1438.32 404.713 1439.68C404.727 1441.03 404.425 1442.22 403.808 1443.26C403.206 1444.29 402.378 1445.09 401.321 1445.66C400.281 1446.21 399.109 1446.48 397.806 1446.47ZM397.777 1443.56C398.388 1443.56 398.958 1443.42 399.486 1443.13C400.03 1442.84 400.46 1442.39 400.776 1441.8C401.092 1441.22 401.246 1440.5 401.237 1439.66C401.225 1438.4 400.877 1437.43 400.195 1436.76C399.528 1436.07 398.712 1435.72 397.747 1435.71C396.781 1435.71 395.972 1436.05 395.319 1436.73C394.682 1437.39 394.37 1438.36 394.382 1439.62C394.395 1440.87 394.718 1441.85 395.353 1442.54C396.003 1443.21 396.811 1443.55 397.777 1443.56ZM411.088 1435.84L411.152 1442.25C411.156 1442.69 411.264 1443.02 411.475 1443.23C411.702 1443.42 412.073 1443.52 412.588 1443.52L414.157 1443.53L414.185 1446.35L412.061 1446.34C409.213 1446.32 407.775 1444.94 407.748 1442.2L407.684 1435.82L406.091 1435.81L406.064 1433.06L407.657 1433.07L407.624 1429.8L411.028 1429.82L411.06 1433.09L414.053 1433.11L414.081 1435.86L411.088 1435.84ZM428.978 1439.53C428.983 1440.01 428.955 1440.44 428.894 1440.82L419.119 1440.76C419.209 1441.72 419.554 1442.47 420.155 1443.02C420.756 1443.56 421.49 1443.84 422.359 1443.84C423.614 1443.85 424.502 1443.32 425.023 1442.26L428.667 1442.28C428.294 1443.55 427.564 1444.6 426.478 1445.42C425.392 1446.23 424.052 1446.63 422.459 1446.62C421.172 1446.61 420.011 1446.32 418.975 1445.76C417.956 1445.18 417.151 1444.37 416.562 1443.33C415.988 1442.29 415.695 1441.09 415.681 1439.74C415.667 1438.37 415.937 1437.17 416.49 1436.14C417.043 1435.1 417.823 1434.31 418.831 1433.76C419.84 1433.21 421.004 1432.93 422.323 1432.94C423.594 1432.95 424.731 1433.23 425.735 1433.78C426.754 1434.32 427.542 1435.1 428.099 1436.11C428.672 1437.1 428.965 1438.24 428.978 1439.53ZM425.468 1438.55C425.444 1437.69 425.123 1437.01 424.507 1436.49C423.89 1435.96 423.139 1435.7 422.254 1435.69C421.417 1435.69 420.712 1435.94 420.137 1436.44C419.579 1436.93 419.24 1437.63 419.12 1438.52L425.468 1438.55ZM433.079 1431.64C432.484 1431.64 431.983 1431.45 431.577 1431.08C431.187 1430.7 430.989 1430.23 430.984 1429.67C430.978 1429.11 431.167 1428.65 431.549 1428.29C431.948 1427.91 432.445 1427.72 433.04 1427.72C433.636 1427.73 434.128 1427.92 434.518 1428.31C434.924 1428.67 435.13 1429.14 435.136 1429.7C435.141 1430.25 434.945 1430.72 434.546 1431.1C434.164 1431.47 433.675 1431.65 433.079 1431.64ZM434.76 1433.23L434.893 1446.47L431.513 1446.45L431.381 1433.21L434.76 1433.23ZM445.507 1433.1C447.101 1433.11 448.393 1433.62 449.384 1434.63C450.376 1435.62 450.881 1437.01 450.898 1438.8L450.976 1446.57L447.597 1446.55L447.524 1439.23C447.513 1438.18 447.24 1437.37 446.703 1436.81C446.166 1436.24 445.439 1435.95 444.522 1435.94C443.589 1435.94 442.851 1436.22 442.31 1436.79C441.785 1437.34 441.527 1438.15 441.538 1439.2L441.61 1446.51L438.231 1446.49L438.099 1433.25L441.478 1433.27L441.495 1434.92C441.94 1434.35 442.507 1433.91 443.195 1433.59C443.9 1433.26 444.671 1433.1 445.507 1433.1Z" fill="black"/>
</svg>
