<svg width="16" height="45" viewBox="0 0 16 45" fill="none" xmlns="http://www.w3.org/2000/svg">
<path d="M7.61251 43.4875C6.73563 43.4875 5.89468 43.1165 5.27464 42.456C4.6546 41.7955 4.30627 40.8997 4.30627 39.9656L5.74377 20.825H9.625L11.0625 39.9656C11.0629 40.4413 10.9729 40.9121 10.7978 41.3497C10.6228 41.7873 10.3663 42.1826 10.0439 42.5117C9.72146 42.8408 9.33983 43.097 8.92195 43.2647C8.50408 43.4324 8.05863 43.5082 7.61251 43.4875Z" stroke="black" stroke-width="2" stroke-linecap="round" stroke-linejoin="round"/>
<path d="M14.0813 13.9344C13.8482 15.6047 13.0595 17.1302 11.8589 18.233C10.6584 19.3358 9.12592 19.9424 7.54065 19.9424C5.95538 19.9424 4.42286 19.3358 3.22232 18.233C2.02178 17.1302 1.2331 15.6047 1 13.9344H14.0813Z" stroke="black" stroke-width="2" stroke-linecap="round" stroke-linejoin="round"/>
<path d="M1 1.22498V13.9344" stroke="black" stroke-width="2" stroke-linecap="round" stroke-linejoin="round"/>
<path d="M7.46875 1.22498V13.6281" stroke="black" stroke-width="2" stroke-linecap="round" stroke-linejoin="round"/>
<path d="M14.0813 1.22498V13.9344" stroke="black" stroke-width="2" stroke-linecap="round" stroke-linejoin="round"/>
</svg>
