<svg width="56" height="55" viewBox="0 0 56 55" fill="none" xmlns="http://www.w3.org/2000/svg">
<path fill-rule="evenodd" clip-rule="evenodd" d="M15.1666 9.16666H19.8333V11.4592C19.8333 12.0921 20.3556 12.6051 21 12.6051C21.6443 12.6051 22.1666 12.0921 22.1666 11.4592V9.16666H31.5V11.4592C31.5 12.0921 32.0223 12.6051 32.6666 12.6051C33.311 12.6051 33.8333 12.0921 33.8333 11.4592V9.16666H35C36.933 9.16666 38.5 10.7057 38.5 12.6042V40.1042C38.5 42.0027 36.933 43.5417 35 43.5417H15.1666C13.2336 43.5417 11.6666 42.0027 11.6666 40.1042V12.6042C11.6666 10.7057 13.2336 9.16666 15.1666 9.16666ZM17.5 20.625C16.8556 20.625 16.3333 21.138 16.3333 21.7708C16.3333 22.4037 16.8556 22.9167 17.5 22.9167H32.6666C33.311 22.9167 33.8333 22.4037 33.8333 21.7708C33.8333 21.138 33.311 20.625 32.6666 20.625H17.5ZM16.3333 27.5C16.3333 26.8671 16.8556 26.3542 17.5 26.3542H25.6666C26.311 26.3542 26.8333 26.8671 26.8333 27.5C26.8333 28.1328 26.311 28.6458 25.6666 28.6458H17.5C16.8556 28.6458 16.3333 28.1328 16.3333 27.5ZM17.5 32.0833C16.8556 32.0833 16.3333 32.5963 16.3333 33.2292C16.3333 33.862 16.8556 34.375 17.5 34.375H30.3333C30.9776 34.375 31.5 33.862 31.5 33.2292C31.5 32.5963 30.9776 32.0833 30.3333 32.0833H17.5Z" fill="black"/>
<path fill-rule="evenodd" clip-rule="evenodd" d="M9.33333 11.4583V40.1042C9.33333 43.2683 11.945 45.8333 15.1667 45.8333H35V48.125H15.1667C10.6563 48.125 7 44.534 7 40.1042V11.4583H9.33333Z" fill="black"/>
<path fill-rule="evenodd" clip-rule="evenodd" d="M45.5 11.4583C43.5669 11.4583 42 12.9973 42 14.8958V18.3333H49V14.8958C49 12.9973 47.433 11.4583 45.5 11.4583ZM49 20.625H42V37.8125L45.5 42.3958L49 37.8125V20.625Z" fill="black"/>
<path fill-rule="evenodd" clip-rule="evenodd" d="M30.3333 6.875C30.9776 6.875 31.5 7.38801 31.5 8.02083V12.6042C31.5 13.237 30.9776 13.75 30.3333 13.75C29.6889 13.75 29.1666 13.237 29.1666 12.6042V8.02083C29.1666 7.38801 29.6889 6.875 30.3333 6.875Z" fill="black"/>
<path fill-rule="evenodd" clip-rule="evenodd" d="M18.6667 6.875C19.311 6.875 19.8333 7.38801 19.8333 8.02083V12.6042C19.8333 13.237 19.311 13.75 18.6667 13.75C18.0223 13.75 17.5 13.237 17.5 12.6042V8.02083C17.5 7.38801 18.0223 6.875 18.6667 6.875Z" fill="black"/>
</svg>
