<svg width="59" height="62" viewBox="0 0 59 62" fill="none" xmlns="http://www.w3.org/2000/svg">
<path fill-rule="evenodd" clip-rule="evenodd" d="M8.68391 22.459C7.30515 21.133 6.36369 18.9812 6.17918 15.5052C6.14137 14.7929 6.70134 14.2063 7.38008 14.2188C9.43909 14.2566 11.0159 14.4047 12.22 14.7778C12.736 13.3718 13.7653 12.0442 15.3078 10.8313C15.7051 10.5189 16.2535 10.5189 16.6508 10.8313C18.2059 12.0542 19.2393 13.3937 19.7511 14.8124C20.9911 14.3744 22.5805 14.2467 24.5818 14.2165C25.2605 14.2063 25.8173 14.7929 25.7795 15.5052C25.595 18.9812 24.6535 21.133 23.2748 22.4589C23.948 22.9859 24.3383 23.8703 24.1951 24.8265C23.8545 27.0992 23.2665 30.5989 22.3415 34.875H14.7501V37.4583H21.762C20.8391 41.4309 19.6471 45.9257 18.127 50.645C17.4104 52.8697 14.5483 52.8697 13.8317 50.645C13.2349 48.7922 12.6887 46.9739 12.1894 45.2083H14.7501V42.625H11.4816C10.3192 38.2444 9.45392 34.2683 8.82536 31H13.521V28.4167H8.3498C8.10361 27.0157 7.91065 25.8069 7.76373 24.8265C7.62044 23.8703 8.01072 22.9859 8.68391 22.459ZM17.4525 15.7281L18.2912 18.0535L20.5345 17.2611C21.153 17.0426 21.9898 16.9122 23.1819 16.8466C22.817 19.3422 21.9377 20.3962 21.1362 20.941C19.9912 21.7191 18.323 21.9559 16.0161 21.9583H15.9426C13.6358 21.9559 11.9675 21.7191 10.8225 20.941C10.0217 20.3967 9.14329 19.3441 8.77784 16.8537C10.0079 16.9243 10.8834 17.057 11.5246 17.2556L13.6982 17.9292L14.5137 15.7076C14.7481 15.0691 15.2006 14.3524 15.9793 13.5967C16.7662 14.3604 17.2202 15.0843 17.4525 15.7281Z" fill="black"/>
<path fill-rule="evenodd" clip-rule="evenodd" d="M41.4316 17.705C39.0066 20.2533 38.7704 23.8112 40.1333 27.1604C46.1005 23.055 52.8542 28.1322 52.8542 36.1667C52.8542 43.3003 46.8006 49.0833 39.3333 49.0833C31.866 49.0833 25.8125 43.3003 25.8125 36.1667C25.8125 28.6849 31.669 23.7674 37.2933 26.4414C36.3329 22.8241 36.8301 18.887 39.6934 15.8783L41.4316 17.705ZM49.1299 39.0632C49.2946 38.3712 48.8942 37.6699 48.2356 37.4968C47.577 37.3239 46.9097 37.7446 46.7451 38.4366C46.2405 40.5572 44.7407 42.1334 42.7228 42.6635C42.0642 42.8366 41.6637 43.5378 41.8284 44.2299C41.993 44.922 42.6603 45.3428 43.3189 45.1697C46.2176 44.4081 48.4053 42.1094 49.1299 39.0632Z" fill="black"/>
<path d="M41.7916 23.25C45.4791 23.25 47.9375 20.6667 47.9375 16.7917C44.25 16.7917 41.7916 19.375 41.7916 23.25Z" fill="black"/>
</svg>
