<svg width="44" height="36" viewBox="0 0 44 36" fill="none" xmlns="http://www.w3.org/2000/svg">
<path d="M3.5625 12.3649C3.5625 6.13719 8.08889 0.362305 14.2871 0.362305C18.5883 0.362305 21.7799 2.95329 23.75 6.62885C25.7199 2.9535 28.9116 0.362305 33.2129 0.362305C39.4118 0.362305 43.9375 6.13817 43.9375 12.3649C43.9375 25.6943 23.75 35.1698 23.75 35.1698C23.75 35.1698 10.1516 29.1733 5.27618 19.3372H17.3195L19.2337 16.2202L21.4696 23.3888L26.7058 17.2222H33.25V15.0467H25.5442L22.4679 18.6697L19.9538 10.6101L15.9305 17.1617H4.36981C4.62154 17.9062 4.92646 18.6316 5.27618 19.3372L0 19.3371V17.1616L4.36981 17.1617C3.85514 15.6399 3.5625 14.0385 3.5625 12.3649Z" fill="black"/>
</svg>
